<svg xmlns="http://www.w3.org/2000/svg" width="671.158272" height="508" viewBox="-90 -90 671.158272 508" font-family="'Russo One', Inter, sans-serif" data-shell="52.0 75.0 387.2 168.0" role="img" aria-label="PLAY, default state">
<defs>
  <linearGradient id="b27band" x1="0.500" y1="1.000" x2="0.500" y2="0.000">
    <stop offset="0" stop-color="#9f3468"/>
    <stop offset=".5" stop-color="#e34a95"/>
    <stop offset="1" stop-color="#f09bc5"/>
  </linearGradient>
  <linearGradient id="b27ext" x1="1" y1="0.5" x2="0" y2="0.5">
    <stop offset="0" stop-color="#83355b"/>
    <stop offset="0.55" stop-color="#7b2851"/>
    <stop offset="1" stop-color="#75264d"/>
  </linearGradient>
  <linearGradient id="b27extv" x1="0" y1="0" x2="0" y2="1">
    <stop offset="0.5" stop-color="#371224" stop-opacity="0"/>
    <stop offset="1" stop-color="#371224" stop-opacity="0.38"/>
  </linearGradient>
  <radialGradient id="b27ct">
    <stop offset="0" stop-color="#8C1D53" stop-opacity="1"/>
    <stop offset="1" stop-color="#8C1D53" stop-opacity="0"/>
  </radialGradient>
  <clipPath id="b27ec"><path d="M 108 36 H 383.158272 A 56 56 0 0 1 439.158272 92 V 148 A 56 56 0 0 1 383.158272 204 H 108 A 56 56 0 0 1 52 148 V 92 A 56 56 0 0 1 108 36 Z" transform="translate(0 9.0)"/></clipPath>
  <radialGradient id="b27eg"><stop offset="0" stop-color="#ffc4e0" stop-opacity="1"/><stop offset="1" stop-color="#ffc4e0" stop-opacity="0"/></radialGradient>
  <pattern id="b27pt" width="98.0" height="98.0" patternUnits="userSpaceOnUse" patternTransform="rotate(45)"><rect width="49.0" height="98.0" fill="#28879f"/></pattern>
  <linearGradient id="b27rim" x1="0.500" y1="1.000" x2="0.500" y2="0.000">
    <stop offset="0" stop-color="#ffffff" stop-opacity="0.45"/>
    <stop offset=".4" stop-color="#ffffff" stop-opacity="0.08"/>
    <stop offset="1" stop-color="#ffffff" stop-opacity="0.95"/>
  </linearGradient>
  <linearGradient id="b27face" x1="0.500" y1="1.000" x2="0.500" y2="0.000">
    <stop offset="0" stop-color="#b75285"/>
    <stop offset="0.50" stop-color="#f870b5"/>
    <stop offset="1" stop-color="#fa9fcd"/>
  </linearGradient>
  <linearGradient id="b27ie" x1="0.500" y1="1.000" x2="0.500" y2="0.000">
    <stop offset="0" stop-color="rgba(252,191,222,0.55)"/>
    <stop offset=".55" stop-color="rgba(148,48,97,0.35)"/>
    <stop offset="1" stop-color="rgba(95,31,63,0.90)"/>
  </linearGradient>
  <linearGradient id="b27ig" x1="0.500" y1="1.000" x2="0.500" y2="0.000">
    <stop offset="0" stop-color="#ffc4e0" stop-opacity="0.55"/>
    <stop offset="0.55" stop-color="#ffc4e0" stop-opacity="0"/>
  </linearGradient>
  <linearGradient id="b27gl" x1="0" y1="0" x2="0" y2="1">
    <stop offset="0" stop-color="#3d97b6" stop-opacity="0.78"/>
    <stop offset="0.83" stop-color="#9fd1e2" stop-opacity="0.71"/>
    <stop offset="1" stop-color="#e1f7ff" stop-opacity="0.55"/>
  </linearGradient>
  <radialGradient id="b27sp">
    <stop offset="0" stop-color="#ffffff" stop-opacity="1"/>
    <stop offset="0.85" stop-color="#ffffff" stop-opacity="1"/>
    <stop offset="0.92" stop-color="#ffffff" stop-opacity="0.50"/>
    <stop offset="1" stop-color="#ffffff" stop-opacity="0"/>
  </radialGradient>
  
  <radialGradient id="b27bl">
    <stop offset="0" stop-color="#ffffff" stop-opacity="1"/>
    <stop offset="1" stop-color="#ffffff" stop-opacity="0"/>
  </radialGradient>
  <linearGradient id="b27tg" x1="0" y1="0" x2="0" y2="1"><stop offset="0" stop-color="#0db9c5"/><stop offset="1" stop-color="#1b9bc5"/></linearGradient>
  
  
  
  
  <filter id="b27tf" x="-70%" y="-70%" width="240%" height="240%" color-interpolation-filters="sRGB"><feDropShadow dx="-0.0" dy="4.5" stdDeviation="0.3" flood-color="#FFFFFF" flood-opacity="0.52"/><feDropShadow dx="0.0" dy="-4.5" stdDeviation="0.3" flood-color="#04080E" flood-opacity="0.44"/><feDropShadow dx="0.0" dy="5.7" stdDeviation="1.4" flood-color="#561836" flood-opacity="0.45"/><feDropShadow dx="0" dy="0" stdDeviation="4.5" flood-color="#FFC1DE" flood-opacity="1.00"/><feDropShadow dx="0" dy="0" stdDeviation="12.0" flood-color="#FFC1DE" flood-opacity="0.60"/></filter>
  <clipPath id="b27fc"><path d="M 111.84 44 H 379.318272 A 51.84 51.84 0 0 1 431.158272 95.84 V 144.16 A 51.84 51.84 0 0 1 379.318272 196 H 111.84 A 51.84 51.84 0 0 1 60 144.16 V 95.84 A 51.84 51.84 0 0 1 111.84 44 Z"/></clipPath>
  <clipPath id="b27oc"><path d="M 108 36 H 383.158272 A 56 56 0 0 1 439.158272 92 V 148 A 56 56 0 0 1 383.158272 204 H 108 A 56 56 0 0 1 52 148 V 92 A 56 56 0 0 1 108 36 Z"/></clipPath>
  <filter id="b27sb" x="-40%" y="-40%" width="180%" height="180%"><feGaussianBlur stdDeviation="7.0"/></filter>
  
  <filter id="b27nz" x="-5%" y="-5%" width="110%" height="110%"><feTurbulence type="fractalNoise" baseFrequency="1.05" numOctaves="2" seed="7" stitchTiles="stitch"/><feColorMatrix type="saturate" values="0"/><feComponentTransfer><feFuncR type="linear" slope="2.6" intercept="-0.8"/><feFuncG type="linear" slope="2.6" intercept="-0.8"/><feFuncB type="linear" slope="2.6" intercept="-0.8"/></feComponentTransfer></filter>
</defs>
<g opacity="1.00" transform="translate(0 39.0)">
  <g id="b27_cast-shadow"><path d="M 108 36 H 383.158272 A 56 56 0 0 1 439.158272 92 V 148 A 56 56 0 0 1 383.158272 204 H 108 A 56 56 0 0 1 52 148 V 92 A 56 56 0 0 1 108 36 Z" transform="translate(-0.0 37.0)" fill="#8C1D53" opacity="0.40" filter="url(#b27sb)"/></g>
  <g id="b27_contact-shadow"><ellipse cx="245.6" cy="214.5" rx="182.0" ry="7.5" fill="url(#b27ct)" opacity="0.32"/></g>
  
  <g transform="translate(0 0)">
    <g id="b27_extrusion"><g>
        <path d="M 108 36 H 383.158272 A 56 56 0 0 1 439.158272 92 V 148 A 56 56 0 0 1 383.158272 204 H 108 A 56 56 0 0 1 52 148 V 92 A 56 56 0 0 1 108 36 Z" transform="translate(0 2.3)" fill="url(#b27ext)"/><path d="M 108 36 H 383.158272 A 56 56 0 0 1 439.158272 92 V 148 A 56 56 0 0 1 383.158272 204 H 108 A 56 56 0 0 1 52 148 V 92 A 56 56 0 0 1 108 36 Z" transform="translate(0 4.5)" fill="url(#b27ext)"/><path d="M 108 36 H 383.158272 A 56 56 0 0 1 439.158272 92 V 148 A 56 56 0 0 1 383.158272 204 H 108 A 56 56 0 0 1 52 148 V 92 A 56 56 0 0 1 108 36 Z" transform="translate(0 6.8)" fill="url(#b27ext)"/><path d="M 108 36 H 383.158272 A 56 56 0 0 1 439.158272 92 V 148 A 56 56 0 0 1 383.158272 204 H 108 A 56 56 0 0 1 52 148 V 92 A 56 56 0 0 1 108 36 Z" transform="translate(0 9.0)" fill="url(#b27ext)" stroke="#501a35" stroke-width="1"/>
        <path d="M 108 36 H 383.158272 A 56 56 0 0 1 439.158272 92 V 148 A 56 56 0 0 1 383.158272 204 H 108 A 56 56 0 0 1 52 148 V 92 A 56 56 0 0 1 108 36 Z" transform="translate(0 9.0)" fill="url(#b27extv)"/>
        <g clip-path="url(#b27ec)"><ellipse cx="245.6" cy="208.1" rx="123.9" ry="9.9" fill="url(#b27eg)" opacity="0.69"/></g>
        <path d="M 108 36 H 383.158272 A 56 56 0 0 1 439.158272 92 V 148 A 56 56 0 0 1 383.158272 204 H 108 A 56 56 0 0 1 52 148 V 92 A 56 56 0 0 1 108 36 Z" transform="translate(0 8.2)" fill="none" stroke="#ad7a93" stroke-width="1.2" opacity="0.45"/>
      </g></g>
    <g id="b27_shell" opacity="1.00">
      <path d="M 108 36 H 383.158272 A 56 56 0 0 1 439.158272 92 V 148 A 56 56 0 0 1 383.158272 204 H 108 A 56 56 0 0 1 52 148 V 92 A 56 56 0 0 1 108 36 Z" fill="url(#b27band)" stroke="#72254b" stroke-width="1.5"/>
      <path d="M 110.3 38.3 H 380.858272 A 56 56 0 0 1 436.858272 94.3 V 145.7 A 56 56 0 0 1 380.858272 201.7 H 110.3 A 56 56 0 0 1 54.3 145.7 V 94.3 A 56 56 0 0 1 110.3 38.3 Z" fill="none" stroke="url(#b27rim)" stroke-width="3.0" opacity="0.80"/>
      
    </g>
    <g data-oclip="1" clip-path="url(#b27oc)">
    <g id="b27_face" opacity="1.00">
      <path d="M 111.84 44 H 379.318272 A 51.84 51.84 0 0 1 431.158272 95.84 V 144.16 A 51.84 51.84 0 0 1 379.318272 196 H 111.84 A 51.84 51.84 0 0 1 60 144.16 V 95.84 A 51.84 51.84 0 0 1 111.84 44 Z" fill="url(#b27face)"/>
      <g clip-path="url(#b27fc)">
        <rect x="40" y="24" width="411.158272" height="192" fill="url(#b27pt)" opacity="0.71"/>
        <path d="M 111.84 44 H 379.318272 A 51.84 51.84 0 0 1 431.158272 95.84 V 144.16 A 51.84 51.84 0 0 1 379.318272 196 H 111.84 A 51.84 51.84 0 0 1 60 144.16 V 95.84 A 51.84 51.84 0 0 1 111.84 44 Z" fill="url(#b27ig)"/>
        <ellipse cx="245.6" cy="165.6" rx="116.1" ry="26.9" fill="url(#b27bl)" opacity="0.62"/>
        
        <rect x="60" y="44" width="371.158272" height="152" filter="url(#b27nz)" opacity="0.15" style="mix-blend-mode:overlay"/>
      </g>
      <path d="M 111.84 44 H 379.318272 A 51.84 51.84 0 0 1 431.158272 95.84 V 144.16 A 51.84 51.84 0 0 1 379.318272 196 H 111.84 A 51.84 51.84 0 0 1 60 144.16 V 95.84 A 51.84 51.84 0 0 1 111.84 44 Z" fill="none" stroke="url(#b27ie)" stroke-width="3.0" opacity="0.45"/>
    </g>
    <g id="b27_content" opacity="1.00">
      
      <text x="237.6" y="121.0" font-size="76.0" font-weight="700" font-style="italic" letter-spacing="0.020em" fill="url(#b27tg)" stroke="url(#b27tg)" stroke-width="2.5" stroke-linejoin="round" paint-order="stroke" text-anchor="middle" dominant-baseline="central" filter="url(#b27tf)">PLAY</text>
      
      
      
    </g>
    <g id="b27_gloss" opacity="1.00" clip-path="url(#b27fc)"><path d="M 58 42 H 433.158272 V 120.0 Q 245.6 181.2 58 120.0 Z" fill="url(#b27gl)"/></g>
    <g id="b27_specular" opacity="1.00" clip-path="url(#b27fc)"><g transform="rotate(0.0 294.6 56.2)" opacity="0.92">
        <rect x="246.7" y="52.4" width="66.0" height="7.6" rx="3.8" fill="#ffffff"/>
        <rect x="342.4" y="52.4" width="19.8" height="7.6" rx="3.8" fill="#ffffff"/>
      </g></g>
    </g>
  </g>
</g>
</svg>