<svg xmlns="http://www.w3.org/2000/svg" width="743.8016" height="508" viewBox="-90 -90 743.8016 508" font-family="'Bungee', Inter, sans-serif" data-shell="52.0 72.0 459.8 168.0" role="img" aria-label="PLAY, disabled state">
<defs>
  <linearGradient id="b11band" x1="0.526" y1="0.999" x2="0.474" y2="0.001">
    <stop offset="0" stop-color="#383e47"/>
    <stop offset=".5" stop-color="#505865"/>
    <stop offset="1" stop-color="#6c727d"/>
  </linearGradient>
  <linearGradient id="b11ext" x1="0" y1="0.5" x2="1" y2="0.5">
    <stop offset="0" stop-color="#393d43"/>
    <stop offset="0.55" stop-color="#2b3036"/>
    <stop offset="1" stop-color="#282d33"/>
  </linearGradient>
  <linearGradient id="b11extv" x1="0" y1="0" x2="0" y2="1">
    <stop offset="0.5" stop-color="#131618" stop-opacity="0"/>
    <stop offset="1" stop-color="#131618" stop-opacity="0.38"/>
  </linearGradient>
  <radialGradient id="b11ct">
    <stop offset="0" stop-color="#0e264e" stop-opacity="1"/>
    <stop offset="1" stop-color="#0e264e" stop-opacity="0"/>
  </radialGradient>
  
  <pattern id="b11pt" width="72.8" height="72.8" patternUnits="userSpaceOnUse" patternTransform="rotate(45)"><circle cx="36.4" cy="36.4" r="16.0" fill="#62707e"/></pattern>
  <linearGradient id="b11rim" x1="0.526" y1="0.999" x2="0.474" y2="0.001">
    <stop offset="0" stop-color="#fcfcfc" stop-opacity="0.45"/>
    <stop offset=".4" stop-color="#fcfcfc" stop-opacity="0.08"/>
    <stop offset="1" stop-color="#fcfcfc" stop-opacity="0.95"/>
  </linearGradient>
  <linearGradient id="b11face" x1="0.526" y1="0.999" x2="0.474" y2="0.001">
    <stop offset="0" stop-color="#7a8c9d"/>
    <stop offset="0.39" stop-color="#7a8c9d"/>
    <stop offset="1" stop-color="#7a8c9d"/>
  </linearGradient>
  <linearGradient id="b11ie" x1="0.526" y1="0.999" x2="0.474" y2="0.001">
    <stop offset="0" stop-color="rgba(195,203,211,0.55)"/>
    <stop offset=".55" stop-color="rgba(52,57,66,0.35)"/>
    <stop offset="1" stop-color="rgba(34,37,42,0.90)"/>
  </linearGradient>
  <linearGradient id="b11ig" x1="0.526" y1="0.999" x2="0.474" y2="0.001">
    <stop offset="0" stop-color="#B9BEC6" stop-opacity="0.00"/>
    <stop offset="0.66" stop-color="#B9BEC6" stop-opacity="0"/>
  </linearGradient>
  <linearGradient id="b11gl" x1="0" y1="0" x2="0" y2="1">
    <stop offset="0" stop-color="#474f59" stop-opacity="0.31"/>
    <stop offset="0.75" stop-color="#a8a7ad" stop-opacity="0.27"/>
    <stop offset="1" stop-color="#e9e1e5" stop-opacity="0.17"/>
  </linearGradient>
  <radialGradient id="b11sp">
    <stop offset="0" stop-color="#fcfcfc" stop-opacity="1"/>
    <stop offset="0.64" stop-color="#fcfcfc" stop-opacity="1"/>
    <stop offset="0.82" stop-color="#fcfcfc" stop-opacity="0.42"/>
    <stop offset="1" stop-color="#fcfcfc" stop-opacity="0"/>
  </radialGradient>
  
  <radialGradient id="b11bl">
    <stop offset="0" stop-color="#fcfcfc" stop-opacity="1"/>
    <stop offset="1" stop-color="#fcfcfc" stop-opacity="0"/>
  </radialGradient>
  <linearGradient id="b11tg" x1="0" y1="0" x2="0" y2="1"><stop offset="0" stop-color="#d6c9cf"/><stop offset="1" stop-color="#8a8893"/></linearGradient>
  <linearGradient id="b11og" x1="0" y1="0" x2="0" y2="1"><stop offset="0" stop-color="#875e76"/><stop offset="1" stop-color="#322d33"/></linearGradient>
  
  <pattern id="b11tst" width="21.6" height="21.6" patternUnits="userSpaceOnUse" patternTransform="rotate(66)"><rect width="10.8" height="21.6" fill="#3c424c"/></pattern>
  
  <filter id="b11tf" x="-70%" y="-70%" width="240%" height="240%" color-interpolation-filters="sRGB"><feDropShadow dx="5.4" dy="0.0" stdDeviation="10.8" flood-color="#0062ff" flood-opacity="1.00"/></filter>
  <clipPath id="b11fc"><path d="M 136 50 H 427.8016 A 70 70 0 0 1 497.8016 120 V 120 A 70 70 0 0 1 427.8016 190 H 136 A 70 70 0 0 1 66 120 V 120 A 70 70 0 0 1 136 50 Z"/></clipPath>
  <clipPath id="b11oc"><path d="M 136 36 H 427.8016 A 84 84 0 0 1 511.8016 120 V 120 A 84 84 0 0 1 427.8016 204 H 136 A 84 84 0 0 1 52 120 V 120 A 84 84 0 0 1 136 36 Z"/></clipPath>
  <filter id="b11sb" x="-40%" y="-40%" width="180%" height="180%"><feGaussianBlur stdDeviation="7.0"/></filter>
  
  <filter id="b11nz" x="-5%" y="-5%" width="110%" height="110%"><feTurbulence type="fractalNoise" baseFrequency="1.05" numOctaves="2" seed="7" stitchTiles="stitch"/><feColorMatrix type="saturate" values="0"/><feComponentTransfer><feFuncR type="linear" slope="2.6" intercept="-0.8"/><feFuncG type="linear" slope="2.6" intercept="-0.8"/><feFuncB type="linear" slope="2.6" intercept="-0.8"/></feComponentTransfer></filter>
</defs>
<g opacity="1.00" transform="translate(0 34.0)">
  <g id="b11_cast-shadow"><path d="M 136 36 H 427.8016 A 84 84 0 0 1 511.8016 120 V 120 A 84 84 0 0 1 427.8016 204 H 136 A 84 84 0 0 1 52 120 V 120 A 84 84 0 0 1 136 36 Z" transform="translate(0.8 44.0)" fill="#0e264e" opacity="0.14" filter="url(#b11sb)"/></g>
  <g id="b11_contact-shadow"><ellipse cx="282.2" cy="221.5" rx="216.1" ry="8.6" fill="url(#b11ct)" opacity="0.13"/></g>
  
  <g transform="translate(0 2)">
    <g id="b11_extrusion"><g>
        <path d="M 136 36 H 427.8016 A 84 84 0 0 1 511.8016 120 V 120 A 84 84 0 0 1 427.8016 204 H 136 A 84 84 0 0 1 52 120 V 120 A 84 84 0 0 1 136 36 Z" transform="translate(0 2.3)" fill="url(#b11ext)"/><path d="M 136 36 H 427.8016 A 84 84 0 0 1 511.8016 120 V 120 A 84 84 0 0 1 427.8016 204 H 136 A 84 84 0 0 1 52 120 V 120 A 84 84 0 0 1 136 36 Z" transform="translate(0 4.7)" fill="url(#b11ext)"/><path d="M 136 36 H 427.8016 A 84 84 0 0 1 511.8016 120 V 120 A 84 84 0 0 1 427.8016 204 H 136 A 84 84 0 0 1 52 120 V 120 A 84 84 0 0 1 136 36 Z" transform="translate(0 7.0)" fill="url(#b11ext)"/><path d="M 136 36 H 427.8016 A 84 84 0 0 1 511.8016 120 V 120 A 84 84 0 0 1 427.8016 204 H 136 A 84 84 0 0 1 52 120 V 120 A 84 84 0 0 1 136 36 Z" transform="translate(0 9.3)" fill="url(#b11ext)"/><path d="M 136 36 H 427.8016 A 84 84 0 0 1 511.8016 120 V 120 A 84 84 0 0 1 427.8016 204 H 136 A 84 84 0 0 1 52 120 V 120 A 84 84 0 0 1 136 36 Z" transform="translate(0 11.7)" fill="url(#b11ext)"/><path d="M 136 36 H 427.8016 A 84 84 0 0 1 511.8016 120 V 120 A 84 84 0 0 1 427.8016 204 H 136 A 84 84 0 0 1 52 120 V 120 A 84 84 0 0 1 136 36 Z" transform="translate(0 14.0)" fill="url(#b11ext)" stroke="#1c1f23" stroke-width="1"/>
        <path d="M 136 36 H 427.8016 A 84 84 0 0 1 511.8016 120 V 120 A 84 84 0 0 1 427.8016 204 H 136 A 84 84 0 0 1 52 120 V 120 A 84 84 0 0 1 136 36 Z" transform="translate(0 14.0)" fill="url(#b11extv)"/>
        
        <path d="M 136 36 H 427.8016 A 84 84 0 0 1 511.8016 120 V 120 A 84 84 0 0 1 427.8016 204 H 136 A 84 84 0 0 1 52 120 V 120 A 84 84 0 0 1 136 36 Z" transform="translate(0 13.2)" fill="none" stroke="#7c7f82" stroke-width="1.2" opacity="0.45"/>
      </g></g>
    <g id="b11_shell" opacity="1.00">
      <path d="M 136 36 H 427.8016 A 84 84 0 0 1 511.8016 120 V 120 A 84 84 0 0 1 427.8016 204 H 136 A 84 84 0 0 1 52 120 V 120 A 84 84 0 0 1 136 36 Z" fill="url(#b11band)" stroke="#3c424c" stroke-width="1.5"/>
      <path d="M 136 39.8 H 427.8016 A 80.2 80.2 0 0 1 508.0016 120 V 119.99999999999999 A 80.2 80.2 0 0 1 427.8016 200.2 H 136 A 80.2 80.2 0 0 1 55.8 119.99999999999999 V 120 A 80.2 80.2 0 0 1 136 39.8 Z" fill="none" stroke="url(#b11rim)" stroke-width="6.0" opacity="0.40"/>
      
    </g>
    <g data-oclip="1" clip-path="url(#b11oc)">
    <g id="b11_face" opacity="1.00">
      <path d="M 136 50 H 427.8016 A 70 70 0 0 1 497.8016 120 V 120 A 70 70 0 0 1 427.8016 190 H 136 A 70 70 0 0 1 66 120 V 120 A 70 70 0 0 1 136 50 Z" fill="url(#b11face)"/>
      <g clip-path="url(#b11fc)">
        <rect x="46" y="30" width="471.8016" height="180" fill="url(#b11pt)" opacity="0.18"/>
        
        <ellipse cx="285.5" cy="161.9" rx="143.0" ry="26.2" fill="url(#b11bl)" opacity="0.18"/>
        
        <rect x="66" y="50" width="431.8016" height="140" filter="url(#b11nz)" opacity="0.06" style="mix-blend-mode:overlay"/>
      </g>
      <path d="M 136 50 H 427.8016 A 70 70 0 0 1 497.8016 120 V 120 A 70 70 0 0 1 427.8016 190 H 136 A 70 70 0 0 1 66 120 V 120 A 70 70 0 0 1 136 50 Z" fill="none" stroke="url(#b11ie)" stroke-width="6.0" opacity="1.00"/>
    </g>
    <g id="b11_content" opacity="1.00">
      
      <text x="274.3" y="117.0" font-size="72.0" font-weight="400" font-style="italic" letter-spacing="0.000em" fill="url(#b11tg)" fill-opacity="0.97" stroke="url(#b11og)" stroke-width="4.2" stroke-linejoin="round" paint-order="stroke" text-anchor="middle" dominant-baseline="central" filter="url(#b11tf)">PLAY</text>
      <text x="274.3" y="117.0" font-size="72.0" font-weight="400" font-style="italic" letter-spacing="0.000em" fill="url(#b11tst)" opacity="0.30" text-anchor="middle" dominant-baseline="central">PLAY</text>
      
      
    </g>
    <g id="b11_gloss" opacity="1.00" clip-path="url(#b11fc)" style="mix-blend-mode:hard-light"><path d="M 64 48 H 499.8016 V 106.0 Q 279.2 142.0 64 106.0 Z" fill="url(#b11gl)"/></g>
    <g id="b11_specular" opacity="1.00" clip-path="url(#b11fc)" style="mix-blend-mode:hard-light"><g transform="rotate(-0.0 351.9 66.3)" opacity="0.09">
        <rect x="269.0" y="59.7" width="114.4" height="13.1" rx="6.6" fill="#fcfcfc"/>
        <rect x="392.0" y="59.7" width="34.3" height="13.1" rx="6.6" fill="#fcfcfc"/>
      </g></g>
    </g>
  </g>
</g>
</svg>