<svg xmlns="http://www.w3.org/2000/svg" width="743.8016" height="508" viewBox="-90 -90 743.8016 508" font-family="'Bungee', Inter, sans-serif" data-shell="52.0 72.0 459.8 168.0" role="img" aria-label="PLAY, default state">
<defs>
  <linearGradient id="b8band" x1="0.526" y1="0.999" x2="0.474" y2="0.001">
    <stop offset="0" stop-color="#0e419f"/>
    <stop offset=".5" stop-color="#145de3"/>
    <stop offset="1" stop-color="#7ea6f0"/>
  </linearGradient>
  <linearGradient id="b8ext" x1="0" y1="0.5" x2="1" y2="0.5">
    <stop offset="0" stop-color="#1d4185"/>
    <stop offset="0.55" stop-color="#0b327b"/>
    <stop offset="1" stop-color="#0a2f74"/>
  </linearGradient>
  <linearGradient id="b8extv" x1="0" y1="0" x2="0" y2="1">
    <stop offset="0.5" stop-color="#051637" stop-opacity="0"/>
    <stop offset="1" stop-color="#051637" stop-opacity="0.38"/>
  </linearGradient>
  <radialGradient id="b8ct">
    <stop offset="0" stop-color="#0e264e" stop-opacity="1"/>
    <stop offset="1" stop-color="#0e264e" stop-opacity="0"/>
  </radialGradient>
  <clipPath id="b8ec"><path d="M 136 36 H 427.8016 A 84 84 0 0 1 511.8016 120 V 120 A 84 84 0 0 1 427.8016 204 H 136 A 84 84 0 0 1 52 120 V 120 A 84 84 0 0 1 136 36 Z" transform="translate(0 14.0)"/></clipPath>
  <radialGradient id="b8eg"><stop offset="0" stop-color="#ff93dd" stop-opacity="1"/><stop offset="1" stop-color="#ff93dd" stop-opacity="0"/></radialGradient>
  <pattern id="b8pt" width="72.8" height="72.8" patternUnits="userSpaceOnUse" patternTransform="rotate(45)"><circle cx="36.4" cy="36.4" r="16.0" fill="#1086cc"/></pattern>
  <linearGradient id="b8rim" x1="0.526" y1="0.999" x2="0.474" y2="0.001">
    <stop offset="0" stop-color="#fefcfc" stop-opacity="0.45"/>
    <stop offset=".4" stop-color="#fefcfc" stop-opacity="0.08"/>
    <stop offset="1" stop-color="#fefcfc" stop-opacity="0.95"/>
  </linearGradient>
  <linearGradient id="b8face" x1="0.526" y1="0.999" x2="0.474" y2="0.001">
    <stop offset="0" stop-color="#14a7ff"/>
    <stop offset="0.39" stop-color="#14a7ff"/>
    <stop offset="1" stop-color="#14a7ff"/>
  </linearGradient>
  <linearGradient id="b8ie" x1="0.526" y1="0.999" x2="0.474" y2="0.001">
    <stop offset="0" stop-color="rgba(149,215,255,0.55)"/>
    <stop offset=".55" stop-color="rgba(13,60,148,0.35)"/>
    <stop offset="1" stop-color="rgba(8,39,95,0.90)"/>
  </linearGradient>
  <linearGradient id="b8ig" x1="0.526" y1="0.999" x2="0.474" y2="0.001">
    <stop offset="0" stop-color="#ff93dd" stop-opacity="0.72"/>
    <stop offset="0.66" stop-color="#ff93dd" stop-opacity="0"/>
  </linearGradient>
  <linearGradient id="b8gl" x1="0" y1="0" x2="0" y2="1">
    <stop offset="0" stop-color="#1452c5" stop-opacity="0.89"/>
    <stop offset="0.75" stop-color="#a199de" stop-opacity="0.77"/>
    <stop offset="1" stop-color="#ffc9ee" stop-opacity="0.48"/>
  </linearGradient>
  <radialGradient id="b8sp">
    <stop offset="0" stop-color="#fefcfc" stop-opacity="1"/>
    <stop offset="0.64" stop-color="#fefcfc" stop-opacity="1"/>
    <stop offset="0.82" stop-color="#fefcfc" stop-opacity="0.42"/>
    <stop offset="1" stop-color="#fefcfc" stop-opacity="0"/>
  </radialGradient>
  
  <radialGradient id="b8bl">
    <stop offset="0" stop-color="#fefcfc" stop-opacity="1"/>
    <stop offset="1" stop-color="#fefcfc" stop-opacity="0"/>
  </radialGradient>
  <linearGradient id="b8tg" x1="0" y1="0" x2="0" y2="1"><stop offset="0" stop-color="#ff9de1"/><stop offset="1" stop-color="#8775e0"/></linearGradient>
  <linearGradient id="b8og" x1="0" y1="0" x2="0" y2="1"><stop offset="0" stop-color="#ff14c7"/><stop offset="1" stop-color="#4a144d"/></linearGradient>
  
  <pattern id="b8tst" width="21.6" height="21.6" patternUnits="userSpaceOnUse" patternTransform="rotate(66)"><rect width="10.8" height="21.6" fill="#0f46aa"/></pattern>
  
  <filter id="b8tf" x="-70%" y="-70%" width="240%" height="240%" color-interpolation-filters="sRGB"><feDropShadow dx="0.2" dy="4.6" stdDeviation="1.6" flood-color="#FFFFFF" flood-opacity="0.37"/><feDropShadow dx="-0.2" dy="-4.6" stdDeviation="1.6" flood-color="#04080E" flood-opacity="0.54"/><feDropShadow dx="5.4" dy="0.0" stdDeviation="10.8" flood-color="#0062ff" flood-opacity="1.00"/><feDropShadow dx="0" dy="0" stdDeviation="3.0" flood-color="#a7c3fb" flood-opacity="1.00"/><feDropShadow dx="0" dy="0" stdDeviation="8.0" flood-color="#a7c3fb" flood-opacity="0.60"/></filter>
  <clipPath id="b8fc"><path d="M 136 50 H 427.8016 A 70 70 0 0 1 497.8016 120 V 120 A 70 70 0 0 1 427.8016 190 H 136 A 70 70 0 0 1 66 120 V 120 A 70 70 0 0 1 136 50 Z"/></clipPath>
  <clipPath id="b8oc"><path d="M 136 36 H 427.8016 A 84 84 0 0 1 511.8016 120 V 120 A 84 84 0 0 1 427.8016 204 H 136 A 84 84 0 0 1 52 120 V 120 A 84 84 0 0 1 136 36 Z"/></clipPath>
  <filter id="b8sb" x="-40%" y="-40%" width="180%" height="180%"><feGaussianBlur stdDeviation="7.0"/></filter>
  
  <filter id="b8nz" x="-5%" y="-5%" width="110%" height="110%"><feTurbulence type="fractalNoise" baseFrequency="1.05" numOctaves="2" seed="7" stitchTiles="stitch"/><feColorMatrix type="saturate" values="0"/><feComponentTransfer><feFuncR type="linear" slope="2.6" intercept="-0.8"/><feFuncG type="linear" slope="2.6" intercept="-0.8"/><feFuncB type="linear" slope="2.6" intercept="-0.8"/></feComponentTransfer></filter>
</defs>
<g opacity="1.00" transform="translate(0 34.0)">
  <g id="b8_cast-shadow"><path d="M 136 36 H 427.8016 A 84 84 0 0 1 511.8016 120 V 120 A 84 84 0 0 1 427.8016 204 H 136 A 84 84 0 0 1 52 120 V 120 A 84 84 0 0 1 136 36 Z" transform="translate(0.8 44.0)" fill="#0e264e" opacity="0.40" filter="url(#b8sb)"/></g>
  <g id="b8_contact-shadow"><ellipse cx="282.2" cy="221.5" rx="216.1" ry="8.6" fill="url(#b8ct)" opacity="0.32"/></g>
  
  <g transform="translate(0 2)">
    <g id="b8_extrusion"><g>
        <path d="M 136 36 H 427.8016 A 84 84 0 0 1 511.8016 120 V 120 A 84 84 0 0 1 427.8016 204 H 136 A 84 84 0 0 1 52 120 V 120 A 84 84 0 0 1 136 36 Z" transform="translate(0 2.3)" fill="url(#b8ext)"/><path d="M 136 36 H 427.8016 A 84 84 0 0 1 511.8016 120 V 120 A 84 84 0 0 1 427.8016 204 H 136 A 84 84 0 0 1 52 120 V 120 A 84 84 0 0 1 136 36 Z" transform="translate(0 4.7)" fill="url(#b8ext)"/><path d="M 136 36 H 427.8016 A 84 84 0 0 1 511.8016 120 V 120 A 84 84 0 0 1 427.8016 204 H 136 A 84 84 0 0 1 52 120 V 120 A 84 84 0 0 1 136 36 Z" transform="translate(0 7.0)" fill="url(#b8ext)"/><path d="M 136 36 H 427.8016 A 84 84 0 0 1 511.8016 120 V 120 A 84 84 0 0 1 427.8016 204 H 136 A 84 84 0 0 1 52 120 V 120 A 84 84 0 0 1 136 36 Z" transform="translate(0 9.3)" fill="url(#b8ext)"/><path d="M 136 36 H 427.8016 A 84 84 0 0 1 511.8016 120 V 120 A 84 84 0 0 1 427.8016 204 H 136 A 84 84 0 0 1 52 120 V 120 A 84 84 0 0 1 136 36 Z" transform="translate(0 11.7)" fill="url(#b8ext)"/><path d="M 136 36 H 427.8016 A 84 84 0 0 1 511.8016 120 V 120 A 84 84 0 0 1 427.8016 204 H 136 A 84 84 0 0 1 52 120 V 120 A 84 84 0 0 1 136 36 Z" transform="translate(0 14.0)" fill="url(#b8ext)" stroke="#072150" stroke-width="1"/>
        <path d="M 136 36 H 427.8016 A 84 84 0 0 1 511.8016 120 V 120 A 84 84 0 0 1 427.8016 204 H 136 A 84 84 0 0 1 52 120 V 120 A 84 84 0 0 1 136 36 Z" transform="translate(0 14.0)" fill="url(#b8extv)"/>
        <g clip-path="url(#b8ec)"><ellipse cx="281.9" cy="210.3" rx="147.1" ry="15.4" fill="url(#b8eg)" opacity="0.69"/></g>
        <path d="M 136 36 H 427.8016 A 84 84 0 0 1 511.8016 120 V 120 A 84 84 0 0 1 427.8016 204 H 136 A 84 84 0 0 1 52 120 V 120 A 84 84 0 0 1 136 36 Z" transform="translate(0 13.2)" fill="none" stroke="#6880ad" stroke-width="1.2" opacity="0.45"/>
      </g></g>
    <g id="b8_shell" opacity="1.00">
      <path d="M 136 36 H 427.8016 A 84 84 0 0 1 511.8016 120 V 120 A 84 84 0 0 1 427.8016 204 H 136 A 84 84 0 0 1 52 120 V 120 A 84 84 0 0 1 136 36 Z" fill="url(#b8band)" stroke="#0a2f72" stroke-width="1.5"/>
      <path d="M 136 39.8 H 427.8016 A 80.2 80.2 0 0 1 508.0016 120 V 119.99999999999999 A 80.2 80.2 0 0 1 427.8016 200.2 H 136 A 80.2 80.2 0 0 1 55.8 119.99999999999999 V 120 A 80.2 80.2 0 0 1 136 39.8 Z" fill="none" stroke="url(#b8rim)" stroke-width="6.0" opacity="0.80"/>
      
    </g>
    <g data-oclip="1" clip-path="url(#b8oc)">
    <g id="b8_face" opacity="1.00">
      <path d="M 136 50 H 427.8016 A 70 70 0 0 1 497.8016 120 V 120 A 70 70 0 0 1 427.8016 190 H 136 A 70 70 0 0 1 66 120 V 120 A 70 70 0 0 1 136 50 Z" fill="url(#b8face)"/>
      <g clip-path="url(#b8fc)">
        <rect x="46" y="30" width="471.8016" height="180" fill="url(#b8pt)" opacity="0.37"/>
        <path d="M 136 50 H 427.8016 A 70 70 0 0 1 497.8016 120 V 120 A 70 70 0 0 1 427.8016 190 H 136 A 70 70 0 0 1 66 120 V 120 A 70 70 0 0 1 136 50 Z" fill="url(#b8ig)"/>
        <ellipse cx="285.5" cy="161.9" rx="143.0" ry="26.2" fill="url(#b8bl)" opacity="0.60"/>
        
        <rect x="66" y="50" width="431.8016" height="140" filter="url(#b8nz)" opacity="0.15" style="mix-blend-mode:overlay"/>
      </g>
      <path d="M 136 50 H 427.8016 A 70 70 0 0 1 497.8016 120 V 120 A 70 70 0 0 1 427.8016 190 H 136 A 70 70 0 0 1 66 120 V 120 A 70 70 0 0 1 136 50 Z" fill="none" stroke="url(#b8ie)" stroke-width="6.0" opacity="1.00"/>
    </g>
    <g id="b8_content" opacity="1.00">
      
      <text x="274.3" y="117.0" font-size="72.0" font-weight="400" font-style="italic" letter-spacing="0.000em" fill="url(#b8tg)" fill-opacity="0.97" stroke="url(#b8og)" stroke-width="4.2" stroke-linejoin="round" paint-order="stroke" text-anchor="middle" dominant-baseline="central" filter="url(#b8tf)">PLAY</text>
      <text x="274.3" y="117.0" font-size="72.0" font-weight="400" font-style="italic" letter-spacing="0.000em" fill="url(#b8tst)" opacity="0.30" text-anchor="middle" dominant-baseline="central">PLAY</text>
      
      
    </g>
    <g id="b8_gloss" opacity="1.00" clip-path="url(#b8fc)" style="mix-blend-mode:hard-light"><path d="M 64 48 H 499.8016 V 106.0 Q 279.2 142.0 64 106.0 Z" fill="url(#b8gl)"/></g>
    <g id="b8_specular" opacity="1.00" clip-path="url(#b8fc)" style="mix-blend-mode:hard-light"><g transform="rotate(-0.0 351.9 66.3)" opacity="0.35">
        <rect x="269.0" y="59.7" width="114.4" height="13.1" rx="6.6" fill="#fefcfc"/>
        <rect x="392.0" y="59.7" width="34.3" height="13.1" rx="6.6" fill="#fefcfc"/>
      </g></g>
    </g>
  </g>
</g>
</svg>