<svg xmlns="http://www.w3.org/2000/svg" width="718.198272" height="508" viewBox="-90 -90 718.198272 508" font-family="'Russo One', Inter, sans-serif" data-shell="52.0 73.0 434.2 168.0" role="img" aria-label="PLAY, default state">
<defs>
  <linearGradient id="b15band" x1="0.500" y1="1.000" x2="0.500" y2="0.000">
    <stop offset="0" stop-color="#a36411"/>
    <stop offset=".5" stop-color="#e98f18"/>
    <stop offset="1" stop-color="#f3c180"/>
  </linearGradient>
  <linearGradient id="b15ext" x1="1" y1="0.5" x2="0" y2="0.5">
    <stop offset="0" stop-color="#86581c"/>
    <stop offset="0.55" stop-color="#7e4d0d"/>
    <stop offset="1" stop-color="#78490c"/>
  </linearGradient>
  <linearGradient id="b15extv" x1="0" y1="0" x2="0" y2="1">
    <stop offset="0.5" stop-color="#392306" stop-opacity="0"/>
    <stop offset="1" stop-color="#392306" stop-opacity="0.38"/>
  </linearGradient>
  <radialGradient id="b15ct">
    <stop offset="0" stop-color="#7A3B00" stop-opacity="1"/>
    <stop offset="1" stop-color="#7A3B00" stop-opacity="0"/>
  </radialGradient>
  <clipPath id="b15ec"><path d="M 147.2896 36 H 390.90867199999997 A 95.2896 84 0 0 1 486.198272 120 A 95.2896 84 0 0 1 390.90867199999997 204 H 147.2896 A 95.2896 84 0 0 1 52 120 A 95.2896 84 0 0 1 147.2896 36 Z" transform="translate(0 11.0)"/></clipPath>
  <radialGradient id="b15eg"><stop offset="0" stop-color="#ffd556" stop-opacity="1"/><stop offset="1" stop-color="#ffd556" stop-opacity="0"/></radialGradient>
  <pattern id="b15pt" width="98.0" height="98.0" patternUnits="userSpaceOnUse" patternTransform="rotate(45)"><rect width="49.0" height="98.0" fill="#28879f"/></pattern>
  <linearGradient id="b15rim" x1="0.500" y1="1.000" x2="0.500" y2="0.000">
    <stop offset="0" stop-color="#fff7dd" stop-opacity="0.45"/>
    <stop offset=".4" stop-color="#fff7dd" stop-opacity="0.08"/>
    <stop offset="1" stop-color="#fff7dd" stop-opacity="0.95"/>
  </linearGradient>
  <linearGradient id="b15face" x1="0.500" y1="1.000" x2="0.500" y2="0.000">
    <stop offset="0" stop-color="#bc7e24"/>
    <stop offset="0.50" stop-color="#ffab31"/>
    <stop offset="1" stop-color="#ffc775"/>
  </linearGradient>
  <linearGradient id="b15ie" x1="0.500" y1="1.000" x2="0.500" y2="0.000">
    <stop offset="0" stop-color="rgba(255,217,162,0.55)"/>
    <stop offset=".55" stop-color="rgba(151,93,16,0.35)"/>
    <stop offset="1" stop-color="rgba(98,60,10,0.90)"/>
  </linearGradient>
  <linearGradient id="b15ig" x1="0.500" y1="1.000" x2="0.500" y2="0.000">
    <stop offset="0" stop-color="#ffd556" stop-opacity="0.55"/>
    <stop offset="0.55" stop-color="#ffd556" stop-opacity="0"/>
  </linearGradient>
  <linearGradient id="b15gl" x1="0" y1="0" x2="0" y2="1">
    <stop offset="0" stop-color="#3d97b6" stop-opacity="0.74"/>
    <stop offset="0.48" stop-color="#9fd1e2" stop-opacity="0.53"/>
    <stop offset="1" stop-color="#e1f7ff" stop-opacity="0.04"/>
  </linearGradient>
  <radialGradient id="b15sp">
    <stop offset="0" stop-color="#fff7dd" stop-opacity="1"/>
    <stop offset="0.85" stop-color="#fff7dd" stop-opacity="1"/>
    <stop offset="0.92" stop-color="#fff7dd" stop-opacity="0.50"/>
    <stop offset="1" stop-color="#fff7dd" stop-opacity="0"/>
  </radialGradient>
  
  <radialGradient id="b15bl">
    <stop offset="0" stop-color="#fff7dd" stop-opacity="1"/>
    <stop offset="1" stop-color="#fff7dd" stop-opacity="0"/>
  </radialGradient>
  <linearGradient id="b15tg" x1="0" y1="0" x2="0" y2="1"><stop offset="0" stop-color="#0db9c5"/><stop offset="1" stop-color="#1b9bc5"/></linearGradient>
  
  
  
  
  <filter id="b15tf" x="-70%" y="-70%" width="240%" height="240%" color-interpolation-filters="sRGB"><feDropShadow dx="-0.0" dy="4.5" stdDeviation="0.3" flood-color="#FFFFFF" flood-opacity="0.52"/><feDropShadow dx="0.0" dy="-4.5" stdDeviation="0.3" flood-color="#04080E" flood-opacity="0.44"/><feDropShadow dx="0.0" dy="5.7" stdDeviation="1.4" flood-color="#583405" flood-opacity="0.45"/><feDropShadow dx="0" dy="0" stdDeviation="4.5" flood-color="#FFD34D" flood-opacity="1.00"/><feDropShadow dx="0" dy="0" stdDeviation="12.0" flood-color="#FFD34D" flood-opacity="0.60"/></filter>
  <clipPath id="b15fc"><path d="M 140.672 47 H 397.52627199999995 A 77.672 73 0 0 1 475.198272 120 A 77.672 73 0 0 1 397.52627199999995 193 H 140.672 A 77.672 73 0 0 1 63 120 A 77.672 73 0 0 1 140.672 47 Z"/></clipPath>
  <clipPath id="b15oc"><path d="M 147.2896 36 H 390.90867199999997 A 95.2896 84 0 0 1 486.198272 120 A 95.2896 84 0 0 1 390.90867199999997 204 H 147.2896 A 95.2896 84 0 0 1 52 120 A 95.2896 84 0 0 1 147.2896 36 Z"/></clipPath>
  <filter id="b15sb" x="-40%" y="-40%" width="180%" height="180%"><feGaussianBlur stdDeviation="7.0"/></filter>
  
  <filter id="b15nz" x="-5%" y="-5%" width="110%" height="110%"><feTurbulence type="fractalNoise" baseFrequency="1.05" numOctaves="2" seed="7" stitchTiles="stitch"/><feColorMatrix type="saturate" values="0"/><feComponentTransfer><feFuncR type="linear" slope="2.6" intercept="-0.8"/><feFuncG type="linear" slope="2.6" intercept="-0.8"/><feFuncB type="linear" slope="2.6" intercept="-0.8"/></feComponentTransfer></filter>
</defs>
<g opacity="1.00" transform="translate(0 37.0)">
  <g id="b15_cast-shadow"><path d="M 147.2896 36 H 390.90867199999997 A 95.2896 84 0 0 1 486.198272 120 A 95.2896 84 0 0 1 390.90867199999997 204 H 147.2896 A 95.2896 84 0 0 1 52 120 A 95.2896 84 0 0 1 147.2896 36 Z" transform="translate(-0.0 39.0)" fill="#7A3B00" opacity="0.40" filter="url(#b15sb)"/></g>
  <g id="b15_contact-shadow"><ellipse cx="269.1" cy="216.5" rx="204.1" ry="7.9" fill="url(#b15ct)" opacity="0.32"/></g>
  
  <g transform="translate(0 0)">
    <g id="b15_extrusion"><g>
        <path d="M 147.2896 36 H 390.90867199999997 A 95.2896 84 0 0 1 486.198272 120 A 95.2896 84 0 0 1 390.90867199999997 204 H 147.2896 A 95.2896 84 0 0 1 52 120 A 95.2896 84 0 0 1 147.2896 36 Z" transform="translate(0 2.2)" fill="url(#b15ext)"/><path d="M 147.2896 36 H 390.90867199999997 A 95.2896 84 0 0 1 486.198272 120 A 95.2896 84 0 0 1 390.90867199999997 204 H 147.2896 A 95.2896 84 0 0 1 52 120 A 95.2896 84 0 0 1 147.2896 36 Z" transform="translate(0 4.4)" fill="url(#b15ext)"/><path d="M 147.2896 36 H 390.90867199999997 A 95.2896 84 0 0 1 486.198272 120 A 95.2896 84 0 0 1 390.90867199999997 204 H 147.2896 A 95.2896 84 0 0 1 52 120 A 95.2896 84 0 0 1 147.2896 36 Z" transform="translate(0 6.6)" fill="url(#b15ext)"/><path d="M 147.2896 36 H 390.90867199999997 A 95.2896 84 0 0 1 486.198272 120 A 95.2896 84 0 0 1 390.90867199999997 204 H 147.2896 A 95.2896 84 0 0 1 52 120 A 95.2896 84 0 0 1 147.2896 36 Z" transform="translate(0 8.8)" fill="url(#b15ext)"/><path d="M 147.2896 36 H 390.90867199999997 A 95.2896 84 0 0 1 486.198272 120 A 95.2896 84 0 0 1 390.90867199999997 204 H 147.2896 A 95.2896 84 0 0 1 52 120 A 95.2896 84 0 0 1 147.2896 36 Z" transform="translate(0 11.0)" fill="url(#b15ext)" stroke="#523208" stroke-width="1"/>
        <path d="M 147.2896 36 H 390.90867199999997 A 95.2896 84 0 0 1 486.198272 120 A 95.2896 84 0 0 1 390.90867199999997 204 H 147.2896 A 95.2896 84 0 0 1 52 120 A 95.2896 84 0 0 1 147.2896 36 Z" transform="translate(0 11.0)" fill="url(#b15extv)"/>
        <g clip-path="url(#b15ec)"><ellipse cx="269.1" cy="208.9" rx="138.9" ry="12.1" fill="url(#b15eg)" opacity="0.69"/></g>
        <path d="M 147.2896 36 H 390.90867199999997 A 95.2896 84 0 0 1 486.198272 120 A 95.2896 84 0 0 1 390.90867199999997 204 H 147.2896 A 95.2896 84 0 0 1 52 120 A 95.2896 84 0 0 1 147.2896 36 Z" transform="translate(0 10.2)" fill="none" stroke="#af9169" stroke-width="1.2" opacity="0.45"/>
      </g></g>
    <g id="b15_shell" opacity="1.00">
      <path d="M 147.2896 36 H 390.90867199999997 A 95.2896 84 0 0 1 486.198272 120 A 95.2896 84 0 0 1 390.90867199999997 204 H 147.2896 A 95.2896 84 0 0 1 52 120 A 95.2896 84 0 0 1 147.2896 36 Z" fill="url(#b15band)" stroke="#75480c" stroke-width="1.5"/>
      <path d="M 146.98048 38.3 H 391.217792 A 92.68047999999999 81.7 0 0 1 483.89827199999996 120 A 92.68047999999999 81.7 0 0 1 391.217792 201.7 H 146.98048 A 92.68047999999999 81.7 0 0 1 54.3 120 A 92.68047999999999 81.7 0 0 1 146.98048 38.3 Z" fill="none" stroke="url(#b15rim)" stroke-width="3.0" opacity="0.80"/>
      
    </g>
    <g data-oclip="1" clip-path="url(#b15oc)">
    <g id="b15_face" opacity="1.00">
      <path d="M 140.672 47 H 397.52627199999995 A 77.672 73 0 0 1 475.198272 120 A 77.672 73 0 0 1 397.52627199999995 193 H 140.672 A 77.672 73 0 0 1 63 120 A 77.672 73 0 0 1 140.672 47 Z" fill="url(#b15face)"/>
      <g clip-path="url(#b15fc)">
        <rect x="43" y="27" width="452.198272" height="186" fill="url(#b15pt)" opacity="0.71"/>
        <path d="M 140.672 47 H 397.52627199999995 A 77.672 73 0 0 1 475.198272 120 A 77.672 73 0 0 1 397.52627199999995 193 H 140.672 A 77.672 73 0 0 1 63 120 A 77.672 73 0 0 1 140.672 47 Z" fill="url(#b15ig)"/>
        <ellipse cx="269.1" cy="163.8" rx="125.1" ry="25.1" fill="url(#b15bl)" opacity="0.55"/>
        
        <rect x="63" y="47" width="412.198272" height="146" filter="url(#b15nz)" opacity="0.15" style="mix-blend-mode:overlay"/>
      </g>
      <path d="M 140.672 47 H 397.52627199999995 A 77.672 73 0 0 1 475.198272 120 A 77.672 73 0 0 1 397.52627199999995 193 H 140.672 A 77.672 73 0 0 1 63 120 A 77.672 73 0 0 1 140.672 47 Z" fill="none" stroke="url(#b15ie)" stroke-width="3.0" opacity="0.45"/>
    </g>
    <g id="b15_content" opacity="1.00">
      
      <text x="261.1" y="121.0" font-size="76.0" font-weight="700" font-style="italic" letter-spacing="0.020em" fill="url(#b15tg)" stroke="url(#b15tg)" stroke-width="2.5" stroke-linejoin="round" paint-order="stroke" text-anchor="middle" dominant-baseline="central" filter="url(#b15tf)">PLAY</text>
      
      
      
    </g>
    <g id="b15_gloss" opacity="1.00" clip-path="url(#b15fc)"><path d="M 61 45 H 477.198272 V 117.1 Q 269.1 171.1 61 117.1 Z" fill="url(#b15gl)"/></g>
    <g id="b15_specular" opacity="1.00" clip-path="url(#b15fc)"><g transform="rotate(0.0 323.5 58.7)" opacity="0.80">
        <rect x="278.8" y="55.2" width="61.6" height="7.1" rx="3.5" fill="#fff7dd"/>
        <rect x="368.2" y="55.2" width="18.5" height="7.1" rx="3.5" fill="#fff7dd"/>
      </g></g>
    </g>
  </g>
</g>
</svg>