<svg xmlns="http://www.w3.org/2000/svg" width="664.438272" height="508" viewBox="-90 -90 664.438272 508" font-family="'Russo One', Inter, sans-serif" data-shell="52.0 71.0 380.4 168.0" role="img" aria-label="PLAY, default state">
<defs>
  <linearGradient id="b16band" x1="0.500" y1="1.000" x2="0.500" y2="0.000">
    <stop offset="0" stop-color="#1d1d22"/>
    <stop offset=".5" stop-color="#292a31"/>
    <stop offset="1" stop-color="#898a8e"/>
  </linearGradient>
  <linearGradient id="b16ext" x1="1" y1="0.5" x2="0" y2="0.5">
    <stop offset="0" stop-color="#25252a"/>
    <stop offset="0.55" stop-color="#17171c"/>
    <stop offset="1" stop-color="#16161b"/>
  </linearGradient>
  <linearGradient id="b16extv" x1="0" y1="0" x2="0" y2="1">
    <stop offset="0.5" stop-color="#0a0a0d" stop-opacity="0"/>
    <stop offset="1" stop-color="#0a0a0d" stop-opacity="0.38"/>
  </linearGradient>
  <radialGradient id="b16ct">
    <stop offset="0" stop-color="#0B0B12" stop-opacity="1"/>
    <stop offset="1" stop-color="#0B0B12" stop-opacity="0"/>
  </radialGradient>
  <clipPath id="b16ec"><path d="M 79.5 42.5 Q 86.0 36.0 95.2 36.0 L 423.2 36.0 Q 432.4 36.0 432.4 45.2 L 432.4 160.8 Q 432.4 170.0 425.9 176.5 L 404.9 197.5 Q 398.4 204.0 389.2 204.0 L 61.2 204.0 Q 52.0 204.0 52.0 194.8 L 52.0 79.2 Q 52.0 70.0 58.5 63.5 Z" transform="translate(0 13.0)"/></clipPath>
  <radialGradient id="b16eg"><stop offset="0" stop-color="#ffe353" stop-opacity="1"/><stop offset="1" stop-color="#ffe353" stop-opacity="0"/></radialGradient>
  <pattern id="b16pt" width="71.0" height="71.0" patternUnits="userSpaceOnUse" patternTransform="rotate(0)"><circle cx="35.5" cy="35.5" r="21.3" fill="#cca11e"/></pattern>
      <linearGradient id="b16pmg" x1="0.500" y1="1.000" x2="0.500" y2="0.000"><stop offset="0" stop-color="#fff"/><stop offset=".85" stop-color="#000"/></linearGradient>
      <mask id="b16pm"><rect x="44" y="28" width="396.438272" height="184" fill="url(#b16pmg)"/></mask>
  <linearGradient id="b16rim" x1="0.500" y1="1.000" x2="0.500" y2="0.000">
    <stop offset="0" stop-color="#ffffff" stop-opacity="0.45"/>
    <stop offset=".4" stop-color="#ffffff" stop-opacity="0.08"/>
    <stop offset="1" stop-color="#ffffff" stop-opacity="0.95"/>
  </linearGradient>
  <linearGradient id="b16face" x1="0.500" y1="1.000" x2="0.500" y2="0.000">
    <stop offset="0" stop-color="#bc941b"/>
    <stop offset="0.50" stop-color="#ffc925"/>
    <stop offset="1" stop-color="#ffdb6d"/>
  </linearGradient>
  <linearGradient id="b16ie" x1="0.500" y1="1.000" x2="0.500" y2="0.000">
    <stop offset="0" stop-color="rgba(255,231,157,0.55)"/>
    <stop offset=".55" stop-color="rgba(27,27,32,0.35)"/>
    <stop offset="1" stop-color="rgba(17,18,21,0.90)"/>
  </linearGradient>
  <linearGradient id="b16ig" x1="0.500" y1="1.000" x2="0.500" y2="0.000">
    <stop offset="0" stop-color="#ffe353" stop-opacity="0.55"/>
    <stop offset="0.55" stop-color="#ffe353" stop-opacity="0"/>
  </linearGradient>
  <linearGradient id="b16gl" x1="0" y1="0" x2="0" y2="1">
    <stop offset="0" stop-color="#3d97b6" stop-opacity="0.58"/>
    <stop offset="0.89" stop-color="#9fd1e2" stop-opacity="0.55"/>
    <stop offset="1" stop-color="#e1f7ff" stop-opacity="0.46"/>
  </linearGradient>
  <radialGradient id="b16sp">
    <stop offset="0" stop-color="#ffffff" stop-opacity="1"/>
    <stop offset="0.85" stop-color="#ffffff" stop-opacity="1"/>
    <stop offset="0.92" stop-color="#ffffff" stop-opacity="0.50"/>
    <stop offset="1" stop-color="#ffffff" stop-opacity="0"/>
  </radialGradient>
  
  <radialGradient id="b16bl">
    <stop offset="0" stop-color="#ffffff" stop-opacity="1"/>
    <stop offset="1" stop-color="#ffffff" stop-opacity="0"/>
  </radialGradient>
  <linearGradient id="b16tg" x1="0" y1="0" x2="0" y2="1"><stop offset="0" stop-color="#0db9c5"/><stop offset="1" stop-color="#1b9bc5"/></linearGradient>
  
  
  
  
  <filter id="b16tf" x="-70%" y="-70%" width="240%" height="240%" color-interpolation-filters="sRGB"><feDropShadow dx="-0.0" dy="4.5" stdDeviation="0.3" flood-color="#FFFFFF" flood-opacity="0.52"/><feDropShadow dx="0.0" dy="-4.5" stdDeviation="0.3" flood-color="#04080E" flood-opacity="0.44"/><feDropShadow dx="0.0" dy="5.7" stdDeviation="1.4" flood-color="#0b0c0e" flood-opacity="0.45"/><feDropShadow dx="0" dy="0" stdDeviation="4.5" flood-color="#FFE24A" flood-opacity="1.00"/><feDropShadow dx="0" dy="0" stdDeviation="12.0" flood-color="#FFE24A" flood-opacity="0.60"/></filter>
  <clipPath id="b16fc"><path d="M 259.1 48 L 418.8 50.8 L 419.5 162.5 L 396.9 188.2 L 387 192 L 67.5 190.9 L 64.6 78.5 L 87.6 51.7 L 97.4 48 Z"/></clipPath>
  <clipPath id="b16oc"><path d="M 79.5 42.5 Q 86.0 36.0 95.2 36.0 L 423.2 36.0 Q 432.4 36.0 432.4 45.2 L 432.4 160.8 Q 432.4 170.0 425.9 176.5 L 404.9 197.5 Q 398.4 204.0 389.2 204.0 L 61.2 204.0 Q 52.0 204.0 52.0 194.8 L 52.0 79.2 Q 52.0 70.0 58.5 63.5 Z"/></clipPath>
  <filter id="b16sb" x="-40%" y="-40%" width="180%" height="180%"><feGaussianBlur stdDeviation="7.0"/></filter>
  
  <filter id="b16nz" x="-5%" y="-5%" width="110%" height="110%"><feTurbulence type="fractalNoise" baseFrequency="1.05" numOctaves="2" seed="7" stitchTiles="stitch"/><feColorMatrix type="saturate" values="0"/><feComponentTransfer><feFuncR type="linear" slope="2.6" intercept="-0.8"/><feFuncG type="linear" slope="2.6" intercept="-0.8"/><feFuncB type="linear" slope="2.6" intercept="-0.8"/></feComponentTransfer></filter>
</defs>
<g opacity="1.00" transform="translate(0 35.0)">
  <g id="b16_cast-shadow"><path d="M 79.5 42.5 Q 86.0 36.0 95.2 36.0 L 423.2 36.0 Q 432.4 36.0 432.4 45.2 L 432.4 160.8 Q 432.4 170.0 425.9 176.5 L 404.9 197.5 Q 398.4 204.0 389.2 204.0 L 61.2 204.0 Q 52.0 204.0 52.0 194.8 L 52.0 79.2 Q 52.0 70.0 58.5 63.5 Z" transform="translate(-0.0 41.0)" fill="#0B0B12" opacity="0.40" filter="url(#b16sb)"/></g>
  <g id="b16_contact-shadow"><ellipse cx="242.2" cy="218.5" rx="178.8" ry="8.4" fill="url(#b16ct)" opacity="0.32"/></g>
  
  <g transform="translate(0 0)">
    <g id="b16_extrusion"><g>
        <path d="M 79.5 42.5 Q 86.0 36.0 95.2 36.0 L 423.2 36.0 Q 432.4 36.0 432.4 45.2 L 432.4 160.8 Q 432.4 170.0 425.9 176.5 L 404.9 197.5 Q 398.4 204.0 389.2 204.0 L 61.2 204.0 Q 52.0 204.0 52.0 194.8 L 52.0 79.2 Q 52.0 70.0 58.5 63.5 Z" transform="translate(0 2.2)" fill="url(#b16ext)"/><path d="M 79.5 42.5 Q 86.0 36.0 95.2 36.0 L 423.2 36.0 Q 432.4 36.0 432.4 45.2 L 432.4 160.8 Q 432.4 170.0 425.9 176.5 L 404.9 197.5 Q 398.4 204.0 389.2 204.0 L 61.2 204.0 Q 52.0 204.0 52.0 194.8 L 52.0 79.2 Q 52.0 70.0 58.5 63.5 Z" transform="translate(0 4.3)" fill="url(#b16ext)"/><path d="M 79.5 42.5 Q 86.0 36.0 95.2 36.0 L 423.2 36.0 Q 432.4 36.0 432.4 45.2 L 432.4 160.8 Q 432.4 170.0 425.9 176.5 L 404.9 197.5 Q 398.4 204.0 389.2 204.0 L 61.2 204.0 Q 52.0 204.0 52.0 194.8 L 52.0 79.2 Q 52.0 70.0 58.5 63.5 Z" transform="translate(0 6.5)" fill="url(#b16ext)"/><path d="M 79.5 42.5 Q 86.0 36.0 95.2 36.0 L 423.2 36.0 Q 432.4 36.0 432.4 45.2 L 432.4 160.8 Q 432.4 170.0 425.9 176.5 L 404.9 197.5 Q 398.4 204.0 389.2 204.0 L 61.2 204.0 Q 52.0 204.0 52.0 194.8 L 52.0 79.2 Q 52.0 70.0 58.5 63.5 Z" transform="translate(0 8.7)" fill="url(#b16ext)"/><path d="M 79.5 42.5 Q 86.0 36.0 95.2 36.0 L 423.2 36.0 Q 432.4 36.0 432.4 45.2 L 432.4 160.8 Q 432.4 170.0 425.9 176.5 L 404.9 197.5 Q 398.4 204.0 389.2 204.0 L 61.2 204.0 Q 52.0 204.0 52.0 194.8 L 52.0 79.2 Q 52.0 70.0 58.5 63.5 Z" transform="translate(0 10.8)" fill="url(#b16ext)"/><path d="M 79.5 42.5 Q 86.0 36.0 95.2 36.0 L 423.2 36.0 Q 432.4 36.0 432.4 45.2 L 432.4 160.8 Q 432.4 170.0 425.9 176.5 L 404.9 197.5 Q 398.4 204.0 389.2 204.0 L 61.2 204.0 Q 52.0 204.0 52.0 194.8 L 52.0 79.2 Q 52.0 70.0 58.5 63.5 Z" transform="translate(0 13.0)" fill="url(#b16ext)" stroke="#0f0f12" stroke-width="1"/>
        <path d="M 79.5 42.5 Q 86.0 36.0 95.2 36.0 L 423.2 36.0 Q 432.4 36.0 432.4 45.2 L 432.4 160.8 Q 432.4 170.0 425.9 176.5 L 404.9 197.5 Q 398.4 204.0 389.2 204.0 L 61.2 204.0 Q 52.0 204.0 52.0 194.8 L 52.0 79.2 Q 52.0 70.0 58.5 63.5 Z" transform="translate(0 13.0)" fill="url(#b16extv)"/>
        <g clip-path="url(#b16ec)"><ellipse cx="242.2" cy="209.8" rx="121.7" ry="14.3" fill="url(#b16eg)" opacity="0.69"/></g>
        <path d="M 79.5 42.5 Q 86.0 36.0 95.2 36.0 L 423.2 36.0 Q 432.4 36.0 432.4 45.2 L 432.4 160.8 Q 432.4 170.0 425.9 176.5 L 404.9 197.5 Q 398.4 204.0 389.2 204.0 L 61.2 204.0 Q 52.0 204.0 52.0 194.8 L 52.0 79.2 Q 52.0 70.0 58.5 63.5 Z" transform="translate(0 12.2)" fill="none" stroke="#6f6f72" stroke-width="1.2" opacity="0.45"/>
      </g></g>
    <g id="b16_shell" opacity="1.00">
      <path d="M 79.5 42.5 Q 86.0 36.0 95.2 36.0 L 423.2 36.0 Q 432.4 36.0 432.4 45.2 L 432.4 160.8 Q 432.4 170.0 425.9 176.5 L 404.9 197.5 Q 398.4 204.0 389.2 204.0 L 61.2 204.0 Q 52.0 204.0 52.0 194.8 L 52.0 79.2 Q 52.0 70.0 58.5 63.5 Z" fill="url(#b16band)" stroke="#151519" stroke-width="1.5"/>
      <path d="M 423 38.3 L 426.8 38.9 L 428.7 40.4 L 430.1 45.5 L 430.1 160.6 L 429.3 166.3 L 424.9 174.2 L 402.5 196.6 L 395.8 200.6 L 389 201.7 L 61.4 201.7 L 57 200.7 L 55.3 199 L 54.3 194.6 L 54.8 74.6 L 56.7 69.6 L 59.4 65.9 L 81.9 43.4 L 87.5 39.8 L 95.4 38.3 Z" fill="none" stroke="url(#b16rim)" stroke-width="3.0" opacity="0.80"/>
      
    </g>
    <g data-oclip="1" clip-path="url(#b16oc)">
    <g id="b16_face" opacity="1.00">
      <path d="M 259.1 48 L 418.8 50.8 L 419.5 162.5 L 396.9 188.2 L 387 192 L 67.5 190.9 L 64.6 78.5 L 87.6 51.7 L 97.4 48 Z" fill="url(#b16face)"/>
      <g clip-path="url(#b16fc)">
        <rect x="44" y="28" width="396.438272" height="184" fill="url(#b16pt)" opacity="0.38" mask="url(#b16pm)"/>
        <path d="M 259.1 48 L 418.8 50.8 L 419.5 162.5 L 396.9 188.2 L 387 192 L 67.5 190.9 L 64.6 78.5 L 87.6 51.7 L 97.4 48 Z" fill="url(#b16ig)"/>
        <ellipse cx="242.2" cy="163.2" rx="98.4" ry="22.5" fill="url(#b16bl)" opacity="0.45"/>
        
        <rect x="64" y="48" width="356.438272" height="144" filter="url(#b16nz)" opacity="0.15" style="mix-blend-mode:overlay"/>
      </g>
      <path d="M 259.1 48 L 418.8 50.8 L 419.5 162.5 L 396.9 188.2 L 387 192 L 67.5 190.9 L 64.6 78.5 L 87.6 51.7 L 97.4 48 Z" fill="none" stroke="url(#b16ie)" stroke-width="3.0" opacity="0.45"/>
    </g>
    <g id="b16_content" opacity="1.00">
      
      <text x="234.2" y="121.0" font-size="76.0" font-weight="700" font-style="italic" letter-spacing="0.020em" fill="url(#b16tg)" stroke="url(#b16tg)" stroke-width="2.5" stroke-linejoin="round" paint-order="stroke" text-anchor="middle" dominant-baseline="central" filter="url(#b16tf)">PLAY</text>
      
      
      
    </g>
    <g id="b16_gloss" opacity="1.00" clip-path="url(#b16fc)"><path d="M 62 46 H 422.438272 V 105.6 Q 242.2 138.0 62 105.6 Z" fill="url(#b16gl)"/></g>
    <g id="b16_specular" opacity="1.00" clip-path="url(#b16fc)"><g transform="rotate(0.0 289.3 59.5)"><ellipse cx="289.3" cy="59.5" rx="26.0" ry="2.6" fill="url(#b16sp)" opacity="0.88"/><ellipse cx="247.7" cy="64.5" rx="7.8" ry="1.0" fill="url(#b16sp)" opacity="0.53"/></g></g>
    </g>
  </g>
</g>
</svg>