<svg xmlns="http://www.w3.org/2000/svg" width="718.198272" height="508" viewBox="-90 -90 718.198272 508" font-family="'Russo One', Inter, sans-serif" data-shell="52.0 71.0 434.2 168.0" role="img" aria-label="PLAY, default state">
<defs>
  <linearGradient id="b17band" x1="0.500" y1="1.000" x2="0.500" y2="0.000">
    <stop offset="0" stop-color="#0f4568"/>
    <stop offset=".5" stop-color="#166395"/>
    <stop offset="1" stop-color="#7fa9c5"/>
  </linearGradient>
  <linearGradient id="b17ext" x1="1" y1="0.5" x2="0" y2="0.5">
    <stop offset="0" stop-color="#1c4966"/>
    <stop offset="0.55" stop-color="#0e3d5c"/>
    <stop offset="1" stop-color="#0d3a57"/>
  </linearGradient>
  <linearGradient id="b17extv" x1="0" y1="0" x2="0" y2="1">
    <stop offset="0.5" stop-color="#061b29" stop-opacity="0"/>
    <stop offset="1" stop-color="#061b29" stop-opacity="0.38"/>
  </linearGradient>
  <radialGradient id="b17ct">
    <stop offset="0" stop-color="#04263F" stop-opacity="1"/>
    <stop offset="1" stop-color="#04263F" stop-opacity="0"/>
  </radialGradient>
  <clipPath id="b17ec"><path d="M 96.2 47.2 Q 108.4 36.0 125.1 36.0 L 413.1 36.0 Q 429.8 36.0 442.0 47.2 L 461.5 65.1 Q 473.8 76.3 478.3 92.3 L 481.6 104.0 Q 486.2 120.0 481.6 136.0 L 478.3 147.7 Q 473.8 163.7 461.5 174.9 L 442.0 192.8 Q 429.8 204.0 413.1 204.0 L 125.1 204.0 Q 108.4 204.0 96.2 192.8 L 76.7 174.9 Q 64.4 163.7 59.9 147.7 L 56.6 136.0 Q 52.0 120.0 56.6 104.0 L 59.9 92.3 Q 64.4 76.3 76.7 65.1 Z" transform="translate(0 13.0)"/></clipPath>
  <radialGradient id="b17eg"><stop offset="0" stop-color="#56e4ff" stop-opacity="1"/><stop offset="1" stop-color="#56e4ff" stop-opacity="0"/></radialGradient>
  <pattern id="b17pt" width="98.0" height="98.0" patternUnits="userSpaceOnUse" patternTransform="rotate(45)"><rect width="49.0" height="98.0" fill="#28879f"/></pattern>
  <linearGradient id="b17rim" x1="0.500" y1="1.000" x2="0.500" y2="0.000">
    <stop offset="0" stop-color="#ebfbff" stop-opacity="0.45"/>
    <stop offset=".4" stop-color="#ebfbff" stop-opacity="0.08"/>
    <stop offset="1" stop-color="#ebfbff" stop-opacity="0.95"/>
  </linearGradient>
  <linearGradient id="b17face" x1="0.500" y1="1.000" x2="0.500" y2="0.000">
    <stop offset="0" stop-color="#136290"/>
    <stop offset="0.50" stop-color="#1a85c3"/>
    <stop offset="1" stop-color="#66add7"/>
  </linearGradient>
  <linearGradient id="b17ie" x1="0.500" y1="1.000" x2="0.500" y2="0.000">
    <stop offset="0" stop-color="rgba(152,200,228,0.55)"/>
    <stop offset=".55" stop-color="rgba(14,64,97,0.35)"/>
    <stop offset="1" stop-color="rgba(9,42,63,0.90)"/>
  </linearGradient>
  <linearGradient id="b17ig" x1="0.500" y1="1.000" x2="0.500" y2="0.000">
    <stop offset="0" stop-color="#56e4ff" stop-opacity="0.70"/>
    <stop offset="0.58" stop-color="#56e4ff" stop-opacity="0"/>
  </linearGradient>
  <linearGradient id="b17gl" x1="0" y1="0" x2="0" y2="1">
    <stop offset="0" stop-color="#3d97b6" stop-opacity="0.55"/>
    <stop offset="0.83" stop-color="#9fd1e2" stop-opacity="0.50"/>
    <stop offset="1" stop-color="#e1f7ff" stop-opacity="0.39"/>
  </linearGradient>
  <radialGradient id="b17sp">
    <stop offset="0" stop-color="#ebfbff" stop-opacity="1"/>
    <stop offset="0.85" stop-color="#ebfbff" stop-opacity="1"/>
    <stop offset="0.92" stop-color="#ebfbff" stop-opacity="0.50"/>
    <stop offset="1" stop-color="#ebfbff" stop-opacity="0"/>
  </radialGradient>
  
  <radialGradient id="b17bl">
    <stop offset="0" stop-color="#ebfbff" stop-opacity="1"/>
    <stop offset="1" stop-color="#ebfbff" stop-opacity="0"/>
  </radialGradient>
  <linearGradient id="b17tg" x1="0" y1="0" x2="0" y2="1"><stop offset="0" stop-color="#0db9c5"/><stop offset="1" stop-color="#1b9bc5"/></linearGradient>
  
  
  
  
  <filter id="b17tf" x="-70%" y="-70%" width="240%" height="240%" color-interpolation-filters="sRGB"><feDropShadow dx="-0.0" dy="4.5" stdDeviation="0.3" flood-color="#FFFFFF" flood-opacity="0.52"/><feDropShadow dx="0.0" dy="-4.5" stdDeviation="0.3" flood-color="#04080E" flood-opacity="0.44"/><feDropShadow dx="0.0" dy="5.7" stdDeviation="1.4" flood-color="#042336" flood-opacity="0.45"/><feDropShadow dx="0" dy="0" stdDeviation="4.5" flood-color="#4DE3FF" flood-opacity="1.00"/><feDropShadow dx="0" dy="0" stdDeviation="12.0" flood-color="#4DE3FF" flood-opacity="0.60"/></filter>
  <clipPath id="b17fc"><path d="M 269.1 49 L 417.4 49.5 L 431.3 55.3 L 455.4 77.7 L 470 114.5 L 463.9 148.4 L 432.8 183.2 L 410.9 191 L 126.8 191 L 110.2 186.6 L 77.1 154 L 68.3 114.3 L 84.2 76.2 L 109.8 53.5 L 126.8 49 Z"/></clipPath>
  <clipPath id="b17oc"><path d="M 96.2 47.2 Q 108.4 36.0 125.1 36.0 L 413.1 36.0 Q 429.8 36.0 442.0 47.2 L 461.5 65.1 Q 473.8 76.3 478.3 92.3 L 481.6 104.0 Q 486.2 120.0 481.6 136.0 L 478.3 147.7 Q 473.8 163.7 461.5 174.9 L 442.0 192.8 Q 429.8 204.0 413.1 204.0 L 125.1 204.0 Q 108.4 204.0 96.2 192.8 L 76.7 174.9 Q 64.4 163.7 59.9 147.7 L 56.6 136.0 Q 52.0 120.0 56.6 104.0 L 59.9 92.3 Q 64.4 76.3 76.7 65.1 Z"/></clipPath>
  <filter id="b17sb" x="-40%" y="-40%" width="180%" height="180%"><feGaussianBlur stdDeviation="7.0"/></filter>
  
  <filter id="b17nz" x="-5%" y="-5%" width="110%" height="110%"><feTurbulence type="fractalNoise" baseFrequency="1.05" numOctaves="2" seed="7" stitchTiles="stitch"/><feColorMatrix type="saturate" values="0"/><feComponentTransfer><feFuncR type="linear" slope="2.6" intercept="-0.8"/><feFuncG type="linear" slope="2.6" intercept="-0.8"/><feFuncB type="linear" slope="2.6" intercept="-0.8"/></feComponentTransfer></filter>
</defs>
<g opacity="1.00" transform="translate(0 35.0)">
  <g id="b17_cast-shadow"><path d="M 96.2 47.2 Q 108.4 36.0 125.1 36.0 L 413.1 36.0 Q 429.8 36.0 442.0 47.2 L 461.5 65.1 Q 473.8 76.3 478.3 92.3 L 481.6 104.0 Q 486.2 120.0 481.6 136.0 L 478.3 147.7 Q 473.8 163.7 461.5 174.9 L 442.0 192.8 Q 429.8 204.0 413.1 204.0 L 125.1 204.0 Q 108.4 204.0 96.2 192.8 L 76.7 174.9 Q 64.4 163.7 59.9 147.7 L 56.6 136.0 Q 52.0 120.0 56.6 104.0 L 59.9 92.3 Q 64.4 76.3 76.7 65.1 Z" transform="translate(-0.0 41.0)" fill="#04263F" opacity="0.40" filter="url(#b17sb)"/></g>
  <g id="b17_contact-shadow"><ellipse cx="269.1" cy="218.5" rx="204.1" ry="8.4" fill="url(#b17ct)" opacity="0.32"/></g>
  
  <g transform="translate(0 0)">
    <g id="b17_extrusion"><g>
        <path d="M 96.2 47.2 Q 108.4 36.0 125.1 36.0 L 413.1 36.0 Q 429.8 36.0 442.0 47.2 L 461.5 65.1 Q 473.8 76.3 478.3 92.3 L 481.6 104.0 Q 486.2 120.0 481.6 136.0 L 478.3 147.7 Q 473.8 163.7 461.5 174.9 L 442.0 192.8 Q 429.8 204.0 413.1 204.0 L 125.1 204.0 Q 108.4 204.0 96.2 192.8 L 76.7 174.9 Q 64.4 163.7 59.9 147.7 L 56.6 136.0 Q 52.0 120.0 56.6 104.0 L 59.9 92.3 Q 64.4 76.3 76.7 65.1 Z" transform="translate(0 2.2)" fill="url(#b17ext)"/><path d="M 96.2 47.2 Q 108.4 36.0 125.1 36.0 L 413.1 36.0 Q 429.8 36.0 442.0 47.2 L 461.5 65.1 Q 473.8 76.3 478.3 92.3 L 481.6 104.0 Q 486.2 120.0 481.6 136.0 L 478.3 147.7 Q 473.8 163.7 461.5 174.9 L 442.0 192.8 Q 429.8 204.0 413.1 204.0 L 125.1 204.0 Q 108.4 204.0 96.2 192.8 L 76.7 174.9 Q 64.4 163.7 59.9 147.7 L 56.6 136.0 Q 52.0 120.0 56.6 104.0 L 59.9 92.3 Q 64.4 76.3 76.7 65.1 Z" transform="translate(0 4.3)" fill="url(#b17ext)"/><path d="M 96.2 47.2 Q 108.4 36.0 125.1 36.0 L 413.1 36.0 Q 429.8 36.0 442.0 47.2 L 461.5 65.1 Q 473.8 76.3 478.3 92.3 L 481.6 104.0 Q 486.2 120.0 481.6 136.0 L 478.3 147.7 Q 473.8 163.7 461.5 174.9 L 442.0 192.8 Q 429.8 204.0 413.1 204.0 L 125.1 204.0 Q 108.4 204.0 96.2 192.8 L 76.7 174.9 Q 64.4 163.7 59.9 147.7 L 56.6 136.0 Q 52.0 120.0 56.6 104.0 L 59.9 92.3 Q 64.4 76.3 76.7 65.1 Z" transform="translate(0 6.5)" fill="url(#b17ext)"/><path d="M 96.2 47.2 Q 108.4 36.0 125.1 36.0 L 413.1 36.0 Q 429.8 36.0 442.0 47.2 L 461.5 65.1 Q 473.8 76.3 478.3 92.3 L 481.6 104.0 Q 486.2 120.0 481.6 136.0 L 478.3 147.7 Q 473.8 163.7 461.5 174.9 L 442.0 192.8 Q 429.8 204.0 413.1 204.0 L 125.1 204.0 Q 108.4 204.0 96.2 192.8 L 76.7 174.9 Q 64.4 163.7 59.9 147.7 L 56.6 136.0 Q 52.0 120.0 56.6 104.0 L 59.9 92.3 Q 64.4 76.3 76.7 65.1 Z" transform="translate(0 8.7)" fill="url(#b17ext)"/><path d="M 96.2 47.2 Q 108.4 36.0 125.1 36.0 L 413.1 36.0 Q 429.8 36.0 442.0 47.2 L 461.5 65.1 Q 473.8 76.3 478.3 92.3 L 481.6 104.0 Q 486.2 120.0 481.6 136.0 L 478.3 147.7 Q 473.8 163.7 461.5 174.9 L 442.0 192.8 Q 429.8 204.0 413.1 204.0 L 125.1 204.0 Q 108.4 204.0 96.2 192.8 L 76.7 174.9 Q 64.4 163.7 59.9 147.7 L 56.6 136.0 Q 52.0 120.0 56.6 104.0 L 59.9 92.3 Q 64.4 76.3 76.7 65.1 Z" transform="translate(0 10.8)" fill="url(#b17ext)"/><path d="M 96.2 47.2 Q 108.4 36.0 125.1 36.0 L 413.1 36.0 Q 429.8 36.0 442.0 47.2 L 461.5 65.1 Q 473.8 76.3 478.3 92.3 L 481.6 104.0 Q 486.2 120.0 481.6 136.0 L 478.3 147.7 Q 473.8 163.7 461.5 174.9 L 442.0 192.8 Q 429.8 204.0 413.1 204.0 L 125.1 204.0 Q 108.4 204.0 96.2 192.8 L 76.7 174.9 Q 64.4 163.7 59.9 147.7 L 56.6 136.0 Q 52.0 120.0 56.6 104.0 L 59.9 92.3 Q 64.4 76.3 76.7 65.1 Z" transform="translate(0 13.0)" fill="url(#b17ext)" stroke="#09283c" stroke-width="1"/>
        <path d="M 96.2 47.2 Q 108.4 36.0 125.1 36.0 L 413.1 36.0 Q 429.8 36.0 442.0 47.2 L 461.5 65.1 Q 473.8 76.3 478.3 92.3 L 481.6 104.0 Q 486.2 120.0 481.6 136.0 L 478.3 147.7 Q 473.8 163.7 461.5 174.9 L 442.0 192.8 Q 429.8 204.0 413.1 204.0 L 125.1 204.0 Q 108.4 204.0 96.2 192.8 L 76.7 174.9 Q 64.4 163.7 59.9 147.7 L 56.6 136.0 Q 52.0 120.0 56.6 104.0 L 59.9 92.3 Q 64.4 76.3 76.7 65.1 Z" transform="translate(0 13.0)" fill="url(#b17extv)"/>
        <g clip-path="url(#b17ec)"><ellipse cx="269.1" cy="209.8" rx="138.9" ry="14.3" fill="url(#b17eg)" opacity="0.69"/></g>
        <path d="M 96.2 47.2 Q 108.4 36.0 125.1 36.0 L 413.1 36.0 Q 429.8 36.0 442.0 47.2 L 461.5 65.1 Q 473.8 76.3 478.3 92.3 L 481.6 104.0 Q 486.2 120.0 481.6 136.0 L 478.3 147.7 Q 473.8 163.7 461.5 174.9 L 442.0 192.8 Q 429.8 204.0 413.1 204.0 L 125.1 204.0 Q 108.4 204.0 96.2 192.8 L 76.7 174.9 Q 64.4 163.7 59.9 147.7 L 56.6 136.0 Q 52.0 120.0 56.6 104.0 L 59.9 92.3 Q 64.4 76.3 76.7 65.1 Z" transform="translate(0 12.2)" fill="none" stroke="#6a879a" stroke-width="1.2" opacity="0.45"/>
      </g></g>
    <g id="b17_shell" opacity="1.00">
      <path d="M 96.2 47.2 Q 108.4 36.0 125.1 36.0 L 413.1 36.0 Q 429.8 36.0 442.0 47.2 L 461.5 65.1 Q 473.8 76.3 478.3 92.3 L 481.6 104.0 Q 486.2 120.0 481.6 136.0 L 478.3 147.7 Q 473.8 163.7 461.5 174.9 L 442.0 192.8 Q 429.8 204.0 413.1 204.0 L 125.1 204.0 Q 108.4 204.0 96.2 192.8 L 76.7 174.9 Q 64.4 163.7 59.9 147.7 L 56.6 136.0 Q 52.0 120.0 56.6 104.0 L 59.9 92.3 Q 64.4 76.3 76.7 65.1 Z" fill="url(#b17band)" stroke="#0b324b" stroke-width="1.5"/>
      <path d="M 269.1 38.3 L 419.7 38.8 L 427.8 40.9 L 437.1 46.1 L 464.7 71.7 L 469.9 78.7 L 473.9 86.5 L 481.2 113.4 L 480.9 128.8 L 473.9 153.5 L 469.9 161.3 L 464.7 168.3 L 438.8 192.5 L 427.7 199.1 L 421.8 200.8 L 413 201.7 L 125.2 201.7 L 114.3 200.3 L 104.7 196.3 L 97.7 191 L 76.7 171.7 L 67.2 159.4 L 62.8 149.2 L 57.7 131 L 56.7 122.2 L 57 113.5 L 64.3 86.5 L 69.5 76.9 L 75 70 L 97.7 49 L 104.7 43.7 L 114.3 39.7 L 125.2 38.3 Z" fill="none" stroke="url(#b17rim)" stroke-width="3.0" opacity="0.80"/>
      
    </g>
    <g data-oclip="1" clip-path="url(#b17oc)">
    <g id="b17_face" opacity="1.00">
      <path d="M 269.1 49 L 417.4 49.5 L 431.3 55.3 L 455.4 77.7 L 470 114.5 L 463.9 148.4 L 432.8 183.2 L 410.9 191 L 126.8 191 L 110.2 186.6 L 77.1 154 L 68.3 114.3 L 84.2 76.2 L 109.8 53.5 L 126.8 49 Z" fill="url(#b17face)"/>
      <g clip-path="url(#b17fc)">
        <rect x="45" y="29" width="448.198272" height="182" fill="url(#b17pt)" opacity="0.71"/>
        <path d="M 269.1 49 L 417.4 49.5 L 431.3 55.3 L 455.4 77.7 L 470 114.5 L 463.9 148.4 L 432.8 183.2 L 410.9 191 L 126.8 191 L 110.2 186.6 L 77.1 154 L 68.3 114.3 L 84.2 76.2 L 109.8 53.5 L 126.8 49 Z" fill="url(#b17ig)"/>
        <ellipse cx="269.1" cy="162.6" rx="112.7" ry="22.2" fill="url(#b17bl)" opacity="0.45"/>
        
        <rect x="65" y="49" width="408.198272" height="142" filter="url(#b17nz)" opacity="0.15" style="mix-blend-mode:overlay"/>
      </g>
      <path d="M 269.1 49 L 417.4 49.5 L 431.3 55.3 L 455.4 77.7 L 470 114.5 L 463.9 148.4 L 432.8 183.2 L 410.9 191 L 126.8 191 L 110.2 186.6 L 77.1 154 L 68.3 114.3 L 84.2 76.2 L 109.8 53.5 L 126.8 49 Z" fill="none" stroke="url(#b17ie)" stroke-width="3.0" opacity="0.45"/>
    </g>
    <g id="b17_content" opacity="1.00">
      
      <text x="261.1" y="121.0" font-size="76.0" font-weight="700" font-style="italic" letter-spacing="0.020em" fill="url(#b17tg)" stroke="url(#b17tg)" stroke-width="2.5" stroke-linejoin="round" paint-order="stroke" text-anchor="middle" dominant-baseline="central" filter="url(#b17tf)">PLAY</text>
      
      
      
    </g>
    <g id="b17_gloss" opacity="1.00" clip-path="url(#b17fc)"><path d="M 63 47 H 475.198272 V 105.8 Q 269.1 138.2 63 105.8 Z" fill="url(#b17gl)"/></g>
    <g id="b17_specular" opacity="1.00" clip-path="url(#b17fc)"><g transform="rotate(0.0 323.0 60.4)"><ellipse cx="323.0" cy="60.4" rx="24.0" ry="2.4" fill="url(#b17sp)" opacity="0.62"/><ellipse cx="193.4" cy="76.2" rx="10.1" ry="1.2" fill="url(#b17sp)" opacity="0.50"/></g></g>
    </g>
  </g>
</g>
</svg>