<svg xmlns="http://www.w3.org/2000/svg" width="677.878272" height="508" viewBox="-90 -90 677.878272 508" font-family="'Russo One', Inter, sans-serif" data-shell="52.0 72.0 393.9 168.0" role="img" aria-label="PLAY, default state">
<defs>
  <linearGradient id="b25band" x1="0.500" y1="1.000" x2="0.500" y2="0.000">
    <stop offset="0" stop-color="#326416"/>
    <stop offset=".5" stop-color="#488f20"/>
    <stop offset="1" stop-color="#9ac184"/>
  </linearGradient>
  <linearGradient id="b25ext" x1="1" y1="0.5" x2="0" y2="0.5">
    <stop offset="0" stop-color="#3a6422"/>
    <stop offset="0.55" stop-color="#2d5a14"/>
    <stop offset="1" stop-color="#2b5613"/>
  </linearGradient>
  <linearGradient id="b25extv" x1="0" y1="0" x2="0" y2="1">
    <stop offset="0.5" stop-color="#142809" stop-opacity="0"/>
    <stop offset="1" stop-color="#142809" stop-opacity="0.38"/>
  </linearGradient>
  <radialGradient id="b25ct">
    <stop offset="0" stop-color="#1C4405" stop-opacity="1"/>
    <stop offset="1" stop-color="#1C4405" stop-opacity="0"/>
  </radialGradient>
  <clipPath id="b25ec"><path d="M 71.3 42.0 Q 248.9 31.0 426.6 42.0 Q 445.9 44.1 441.2 79.7 Q 433.6 120.0 441.2 160.3 Q 445.9 195.9 426.6 198.0 Q 248.9 209.0 71.3 198.0 Q 52.0 195.9 56.7 160.3 Q 64.3 120.0 56.7 79.7 Q 52.0 44.1 71.3 42.0 Z" transform="translate(0 12.0)"/></clipPath>
  <radialGradient id="b25eg"><stop offset="0" stop-color="#b8f569" stop-opacity="1"/><stop offset="1" stop-color="#b8f569" stop-opacity="0"/></radialGradient>
  <pattern id="b25pt" width="98.0" height="98.0" patternUnits="userSpaceOnUse" patternTransform="rotate(45)"><rect width="49.0" height="98.0" fill="#28879f"/></pattern>
  <linearGradient id="b25rim" x1="0.500" y1="1.000" x2="0.500" y2="0.000">
    <stop offset="0" stop-color="#f3ffe2" stop-opacity="0.45"/>
    <stop offset=".4" stop-color="#f3ffe2" stop-opacity="0.08"/>
    <stop offset="1" stop-color="#f3ffe2" stop-opacity="0.95"/>
  </linearGradient>
  <linearGradient id="b25face" x1="0.500" y1="1.000" x2="0.500" y2="0.000">
    <stop offset="0" stop-color="#4d8820"/>
    <stop offset="0.50" stop-color="#69b92b"/>
    <stop offset="1" stop-color="#9bd071"/>
  </linearGradient>
  <linearGradient id="b25ie" x1="0.500" y1="1.000" x2="0.500" y2="0.000">
    <stop offset="0" stop-color="rgba(188,224,160,0.55)"/>
    <stop offset=".55" stop-color="rgba(47,93,21,0.35)"/>
    <stop offset="1" stop-color="rgba(30,60,13,0.90)"/>
  </linearGradient>
  <linearGradient id="b25ig" x1="0.500" y1="1.000" x2="0.500" y2="0.000">
    <stop offset="0" stop-color="#b8f569" stop-opacity="0.55"/>
    <stop offset="0.55" stop-color="#b8f569" stop-opacity="0"/>
  </linearGradient>
  <linearGradient id="b25gl" x1="0" y1="0" x2="0" y2="1">
    <stop offset="0" stop-color="#3d97b6" stop-opacity="0.62"/>
    <stop offset="0.48" stop-color="#9fd1e2" stop-opacity="0.44"/>
    <stop offset="1" stop-color="#e1f7ff" stop-opacity="0.03"/>
  </linearGradient>
  <radialGradient id="b25sp">
    <stop offset="0" stop-color="#f3ffe2" stop-opacity="1"/>
    <stop offset="0.60" stop-color="#f3ffe2" stop-opacity="1"/>
    <stop offset="0.80" stop-color="#f3ffe2" stop-opacity="0.41"/>
    <stop offset="1" stop-color="#f3ffe2" stop-opacity="0"/>
  </radialGradient>
  
  <radialGradient id="b25bl">
    <stop offset="0" stop-color="#f3ffe2" stop-opacity="1"/>
    <stop offset="1" stop-color="#f3ffe2" stop-opacity="0"/>
  </radialGradient>
  <linearGradient id="b25tg" x1="0" y1="0" x2="0" y2="1"><stop offset="0" stop-color="#0db9c5"/><stop offset="1" stop-color="#1b9bc5"/></linearGradient>
  
  
  
  
  <filter id="b25tf" x="-70%" y="-70%" width="240%" height="240%" color-interpolation-filters="sRGB"><feDropShadow dx="-0.0" dy="4.5" stdDeviation="0.3" flood-color="#FFFFFF" flood-opacity="0.52"/><feDropShadow dx="0.0" dy="-4.5" stdDeviation="0.3" flood-color="#04080E" flood-opacity="0.44"/><feDropShadow dx="0.0" dy="5.7" stdDeviation="1.4" flood-color="#183408" flood-opacity="0.45"/><feDropShadow dx="0" dy="0" stdDeviation="4.5" flood-color="#B4F461" flood-opacity="1.00"/><feDropShadow dx="0" dy="0" stdDeviation="12.0" flood-color="#B4F461" flood-opacity="0.60"/></filter>
  <clipPath id="b25fc"><path d="M 412.6 53.2 L 425.6 55.3 L 429.7 64.3 L 425.4 120 L 429.7 175.3 L 424.4 185 L 274.2 191.4 L 97.3 187.5 L 73.2 185.3 L 68.6 178.3 L 72.5 119.9 L 68.2 64.7 L 73.5 55 L 223.7 48.6 L 400.7 52.5 Z"/></clipPath>
  <clipPath id="b25oc"><path d="M 71.3 42.0 Q 248.9 31.0 426.6 42.0 Q 445.9 44.1 441.2 79.7 Q 433.6 120.0 441.2 160.3 Q 445.9 195.9 426.6 198.0 Q 248.9 209.0 71.3 198.0 Q 52.0 195.9 56.7 160.3 Q 64.3 120.0 56.7 79.7 Q 52.0 44.1 71.3 42.0 Z"/></clipPath>
  <filter id="b25sb" x="-40%" y="-40%" width="180%" height="180%"><feGaussianBlur stdDeviation="7.0"/></filter>
  
  <filter id="b25nz" x="-5%" y="-5%" width="110%" height="110%"><feTurbulence type="fractalNoise" baseFrequency="0.99" numOctaves="2" seed="7" stitchTiles="stitch"/><feColorMatrix type="saturate" values="0"/><feComponentTransfer><feFuncR type="linear" slope="2.6" intercept="-0.8"/><feFuncG type="linear" slope="2.6" intercept="-0.8"/><feFuncB type="linear" slope="2.6" intercept="-0.8"/></feComponentTransfer></filter>
</defs>
<g opacity="1.00" transform="translate(0 36.0)">
  <g id="b25_cast-shadow"><path d="M 71.3 42.0 Q 248.9 31.0 426.6 42.0 Q 445.9 44.1 441.2 79.7 Q 433.6 120.0 441.2 160.3 Q 445.9 195.9 426.6 198.0 Q 248.9 209.0 71.3 198.0 Q 52.0 195.9 56.7 160.3 Q 64.3 120.0 56.7 79.7 Q 52.0 44.1 71.3 42.0 Z" transform="translate(-0.0 40.0)" fill="#1C4405" opacity="0.40" filter="url(#b25sb)"/></g>
  <g id="b25_contact-shadow"><ellipse cx="248.9" cy="217.5" rx="185.1" ry="8.1" fill="url(#b25ct)" opacity="0.32"/></g>
  
  <g transform="translate(0 0)">
    <g id="b25_extrusion"><g>
        <path d="M 71.3 42.0 Q 248.9 31.0 426.6 42.0 Q 445.9 44.1 441.2 79.7 Q 433.6 120.0 441.2 160.3 Q 445.9 195.9 426.6 198.0 Q 248.9 209.0 71.3 198.0 Q 52.0 195.9 56.7 160.3 Q 64.3 120.0 56.7 79.7 Q 52.0 44.1 71.3 42.0 Z" transform="translate(0 2.4)" fill="url(#b25ext)"/><path d="M 71.3 42.0 Q 248.9 31.0 426.6 42.0 Q 445.9 44.1 441.2 79.7 Q 433.6 120.0 441.2 160.3 Q 445.9 195.9 426.6 198.0 Q 248.9 209.0 71.3 198.0 Q 52.0 195.9 56.7 160.3 Q 64.3 120.0 56.7 79.7 Q 52.0 44.1 71.3 42.0 Z" transform="translate(0 4.8)" fill="url(#b25ext)"/><path d="M 71.3 42.0 Q 248.9 31.0 426.6 42.0 Q 445.9 44.1 441.2 79.7 Q 433.6 120.0 441.2 160.3 Q 445.9 195.9 426.6 198.0 Q 248.9 209.0 71.3 198.0 Q 52.0 195.9 56.7 160.3 Q 64.3 120.0 56.7 79.7 Q 52.0 44.1 71.3 42.0 Z" transform="translate(0 7.2)" fill="url(#b25ext)"/><path d="M 71.3 42.0 Q 248.9 31.0 426.6 42.0 Q 445.9 44.1 441.2 79.7 Q 433.6 120.0 441.2 160.3 Q 445.9 195.9 426.6 198.0 Q 248.9 209.0 71.3 198.0 Q 52.0 195.9 56.7 160.3 Q 64.3 120.0 56.7 79.7 Q 52.0 44.1 71.3 42.0 Z" transform="translate(0 9.6)" fill="url(#b25ext)"/><path d="M 71.3 42.0 Q 248.9 31.0 426.6 42.0 Q 445.9 44.1 441.2 79.7 Q 433.6 120.0 441.2 160.3 Q 445.9 195.9 426.6 198.0 Q 248.9 209.0 71.3 198.0 Q 52.0 195.9 56.7 160.3 Q 64.3 120.0 56.7 79.7 Q 52.0 44.1 71.3 42.0 Z" transform="translate(0 12.0)" fill="url(#b25ext)" stroke="#1d3b0d" stroke-width="1"/>
        <path d="M 71.3 42.0 Q 248.9 31.0 426.6 42.0 Q 445.9 44.1 441.2 79.7 Q 433.6 120.0 441.2 160.3 Q 445.9 195.9 426.6 198.0 Q 248.9 209.0 71.3 198.0 Q 52.0 195.9 56.7 160.3 Q 64.3 120.0 56.7 79.7 Q 52.0 44.1 71.3 42.0 Z" transform="translate(0 12.0)" fill="url(#b25extv)"/>
        <g clip-path="url(#b25ec)"><ellipse cx="248.9" cy="209.4" rx="126.0" ry="13.2" fill="url(#b25eg)" opacity="0.69"/></g>
        <path d="M 71.3 42.0 Q 248.9 31.0 426.6 42.0 Q 445.9 44.1 441.2 79.7 Q 433.6 120.0 441.2 160.3 Q 445.9 195.9 426.6 198.0 Q 248.9 209.0 71.3 198.0 Q 52.0 195.9 56.7 160.3 Q 64.3 120.0 56.7 79.7 Q 52.0 44.1 71.3 42.0 Z" transform="translate(0 11.2)" fill="none" stroke="#7d996d" stroke-width="1.2" opacity="0.45"/>
      </g></g>
    <g id="b25_shell" opacity="1.00">
      <path d="M 71.3 42.0 Q 248.9 31.0 426.6 42.0 Q 445.9 44.1 441.2 79.7 Q 433.6 120.0 441.2 160.3 Q 445.9 195.9 426.6 198.0 Q 248.9 209.0 71.3 198.0 Q 52.0 195.9 56.7 160.3 Q 64.3 120.0 56.7 79.7 Q 52.0 44.1 71.3 42.0 Z" fill="url(#b25band)" stroke="#244810" stroke-width="1.5"/>
      <path d="M 426.2 44.3 L 432.6 46.5 L 435.5 49.2 L 437.7 53.3 L 439.6 62.3 L 439.5 74.6 L 436.3 96.7 L 435.1 120 L 436.3 143.3 L 439.5 165.4 L 439.6 177.6 L 436.6 189 L 434.1 192.4 L 430.7 194.6 L 426.3 195.7 L 375.7 198.4 L 274.3 201.1 L 172.8 200.2 L 96.8 197.2 L 71.7 195.7 L 67.2 194.6 L 63.8 192.4 L 61.2 189 L 58.7 181.1 L 58.5 165.4 L 61.6 143.3 L 62.8 120 L 61.6 96.7 L 58.4 74.6 L 58.3 62.4 L 61.3 51 L 63.8 47.6 L 67.2 45.4 L 71.6 44.3 L 122.1 41.6 L 223.6 38.9 L 299.6 39.2 L 401.1 42.8 Z" fill="none" stroke="url(#b25rim)" stroke-width="3.0" opacity="0.80"/>
      
    </g>
    <g data-oclip="1" clip-path="url(#b25oc)">
    <g id="b25_face" opacity="1.00">
      <path d="M 412.6 53.2 L 425.6 55.3 L 429.7 64.3 L 425.4 120 L 429.7 175.3 L 424.4 185 L 274.2 191.4 L 97.3 187.5 L 73.2 185.3 L 68.6 178.3 L 72.5 119.9 L 68.2 64.7 L 73.5 55 L 223.7 48.6 L 400.7 52.5 Z" fill="url(#b25face)"/>
      <g clip-path="url(#b25fc)">
        <rect x="44" y="28" width="409.87827200000004" height="184" fill="url(#b25pt)" opacity="0.71"/>
        <path d="M 412.6 53.2 L 425.6 55.3 L 429.7 64.3 L 425.4 120 L 429.7 175.3 L 424.4 185 L 274.2 191.4 L 97.3 187.5 L 73.2 185.3 L 68.6 178.3 L 72.5 119.9 L 68.2 64.7 L 73.5 55 L 223.7 48.6 L 400.7 52.5 Z" fill="url(#b25ig)"/>
        <ellipse cx="248.9" cy="163.2" rx="102.1" ry="22.5" fill="url(#b25bl)" opacity="0.45"/>
        
        <rect x="64" y="48" width="369.87827200000004" height="144" filter="url(#b25nz)" opacity="0.07" style="mix-blend-mode:overlay"/>
      </g>
      <path d="M 412.6 53.2 L 425.6 55.3 L 429.7 64.3 L 425.4 120 L 429.7 175.3 L 424.4 185 L 274.2 191.4 L 97.3 187.5 L 73.2 185.3 L 68.6 178.3 L 72.5 119.9 L 68.2 64.7 L 73.5 55 L 223.7 48.6 L 400.7 52.5 Z" fill="none" stroke="url(#b25ie)" stroke-width="3.0" opacity="0.45"/>
    </g>
    <g id="b25_content" opacity="1.00">
      
      <text x="241.0" y="121.0" font-size="76.0" font-weight="700" font-style="italic" letter-spacing="0.020em" fill="url(#b25tg)" stroke="url(#b25tg)" stroke-width="2.5" stroke-linejoin="round" paint-order="stroke" text-anchor="middle" dominant-baseline="central" filter="url(#b25tf)">PLAY</text>
      
      
      
    </g>
    <g id="b25_gloss" opacity="1.00" clip-path="url(#b25fc)"><path d="M 62 46 H 435.87827200000004 V 111.4 Q 248.9 158.2 62 111.4 Z" fill="url(#b25gl)"/></g>
    <g id="b25_specular" opacity="1.00" clip-path="url(#b25fc)"><g transform="rotate(0.0 297.8 59.5)"><ellipse cx="297.8" cy="59.5" rx="30.0" ry="3.0" fill="url(#b25sp)" opacity="0.55"/></g></g>
    </g>
  </g>
</g>
</svg>