<svg xmlns="http://www.w3.org/2000/svg" width="772.0968" height="508" viewBox="-90 -90 772.0968 508" font-family="'Fredoka', Inter, sans-serif" data-shell="52.0 72.0 488.1 168.0" role="img" aria-label="JELLY, disabled state">
<defs>
  <linearGradient id="b3band" x1="0.526" y1="0.999" x2="0.474" y2="0.001">
    <stop offset="0" stop-color="#544a5c"/>
    <stop offset=".5" stop-color="#786a84"/>
    <stop offset="1" stop-color="#8d8197"/>
  </linearGradient>
  <linearGradient id="b3ext" x1="0" y1="0.5" x2="1" y2="0.5">
    <stop offset="0" stop-color="#4d4753"/>
    <stop offset="0.55" stop-color="#413a47"/>
    <stop offset="1" stop-color="#3d3643"/>
  </linearGradient>
  <linearGradient id="b3extv" x1="0" y1="0" x2="0" y2="1">
    <stop offset="0.5" stop-color="#1d1a20" stop-opacity="0"/>
    <stop offset="1" stop-color="#1d1a20" stop-opacity="0.38"/>
  </linearGradient>
  <radialGradient id="b3ct">
    <stop offset="0" stop-color="#4A1178" stop-opacity="1"/>
    <stop offset="1" stop-color="#4A1178" stop-opacity="0"/>
  </radialGradient>
  
  <pattern id="b3pt" width="98.0" height="98.0" patternUnits="userSpaceOnUse" patternTransform="rotate(45)"><rect width="49.0" height="98.0" fill="#6a7a7d"/></pattern>
  <linearGradient id="b3rim" x1="0.526" y1="0.999" x2="0.474" y2="0.001">
    <stop offset="0" stop-color="#ffffff" stop-opacity="0.45"/>
    <stop offset=".4" stop-color="#ffffff" stop-opacity="0.08"/>
    <stop offset="1" stop-color="#ffffff" stop-opacity="0.95"/>
  </linearGradient>
  <linearGradient id="b3face" x1="0.526" y1="0.999" x2="0.474" y2="0.001">
    <stop offset="0" stop-color="#9386a0"/>
    <stop offset="0.39" stop-color="#9386a0"/>
    <stop offset="1" stop-color="#9386a0"/>
  </linearGradient>
  <linearGradient id="b3ie" x1="0.526" y1="0.999" x2="0.474" y2="0.001">
    <stop offset="0" stop-color="rgba(206,201,212,0.55)"/>
    <stop offset=".55" stop-color="rgba(78,69,86,0.35)"/>
    <stop offset="1" stop-color="rgba(50,45,55,0.90)"/>
  </linearGradient>
  <linearGradient id="b3ig" x1="0.526" y1="0.999" x2="0.474" y2="0.001">
    <stop offset="0" stop-color="#B9BEC6" stop-opacity="0.00"/>
    <stop offset="0.66" stop-color="#B9BEC6" stop-opacity="0"/>
  </linearGradient>
  <linearGradient id="b3gl" x1="0" y1="0" x2="0" y2="1">
    <stop offset="0" stop-color="#514757" stop-opacity="0.31"/>
    <stop offset="0.75" stop-color="#b0aeb6" stop-opacity="0.27"/>
    <stop offset="1" stop-color="#f0f3f5" stop-opacity="0.17"/>
  </linearGradient>
  <radialGradient id="b3sp">
    <stop offset="0" stop-color="#ffffff" stop-opacity="1"/>
    <stop offset="0.64" stop-color="#ffffff" stop-opacity="1"/>
    <stop offset="0.82" stop-color="#ffffff" stop-opacity="0.42"/>
    <stop offset="1" stop-color="#ffffff" stop-opacity="0"/>
  </radialGradient>
  
  <radialGradient id="b3bl">
    <stop offset="0" stop-color="#ffffff" stop-opacity="1"/>
    <stop offset="1" stop-color="#ffffff" stop-opacity="0"/>
  </radialGradient>
  <linearGradient id="b3tg" x1="0" y1="0" x2="0" y2="1"><stop offset="0" stop-color="#cec5d3"/><stop offset="1" stop-color="#9c8fa5"/></linearGradient>
  <linearGradient id="b3og" x1="0" y1="0" x2="0" y2="1"><stop offset="0" stop-color="#494250"/><stop offset="1" stop-color="#353239"/></linearGradient>
  
  
  
  <filter id="b3tf" x="-70%" y="-70%" width="240%" height="240%" color-interpolation-filters="sRGB"><feDropShadow dx="5.7" dy="3.8" stdDeviation="5.7" flood-color="#351452" flood-opacity="0.91"/></filter>
  <clipPath id="b3fc"><path d="M 136 50 H 456.09680000000003 A 70 70 0 0 1 526.0968 120 V 120 A 70 70 0 0 1 456.09680000000003 190 H 136 A 70 70 0 0 1 66 120 V 120 A 70 70 0 0 1 136 50 Z"/></clipPath>
  <clipPath id="b3oc"><path d="M 136 36 H 456.09680000000003 A 84 84 0 0 1 540.0968 120 V 120 A 84 84 0 0 1 456.09680000000003 204 H 136 A 84 84 0 0 1 52 120 V 120 A 84 84 0 0 1 136 36 Z"/></clipPath>
  <filter id="b3sb" x="-40%" y="-40%" width="180%" height="180%"><feGaussianBlur stdDeviation="7.0"/></filter>
  
  <filter id="b3nz" x="-5%" y="-5%" width="110%" height="110%"><feTurbulence type="fractalNoise" baseFrequency="1.05" numOctaves="2" seed="7" stitchTiles="stitch"/><feColorMatrix type="saturate" values="0"/><feComponentTransfer><feFuncR type="linear" slope="2.6" intercept="-0.8"/><feFuncG type="linear" slope="2.6" intercept="-0.8"/><feFuncB type="linear" slope="2.6" intercept="-0.8"/></feComponentTransfer></filter>
</defs>
<g opacity="1.00" transform="translate(0 34.0)">
  <g id="b3_cast-shadow"><path d="M 136 36 H 456.09680000000003 A 84 84 0 0 1 540.0968 120 V 120 A 84 84 0 0 1 456.09680000000003 204 H 136 A 84 84 0 0 1 52 120 V 120 A 84 84 0 0 1 136 36 Z" transform="translate(0.8 44.0)" fill="#4A1178" opacity="0.14" filter="url(#b3sb)"/></g>
  <g id="b3_contact-shadow"><ellipse cx="296.3" cy="221.5" rx="229.4" ry="8.6" fill="url(#b3ct)" opacity="0.13"/></g>
  
  <g transform="translate(0 2)">
    <g id="b3_extrusion"><g>
        <path d="M 136 36 H 456.09680000000003 A 84 84 0 0 1 540.0968 120 V 120 A 84 84 0 0 1 456.09680000000003 204 H 136 A 84 84 0 0 1 52 120 V 120 A 84 84 0 0 1 136 36 Z" transform="translate(0 2.3)" fill="url(#b3ext)"/><path d="M 136 36 H 456.09680000000003 A 84 84 0 0 1 540.0968 120 V 120 A 84 84 0 0 1 456.09680000000003 204 H 136 A 84 84 0 0 1 52 120 V 120 A 84 84 0 0 1 136 36 Z" transform="translate(0 4.7)" fill="url(#b3ext)"/><path d="M 136 36 H 456.09680000000003 A 84 84 0 0 1 540.0968 120 V 120 A 84 84 0 0 1 456.09680000000003 204 H 136 A 84 84 0 0 1 52 120 V 120 A 84 84 0 0 1 136 36 Z" transform="translate(0 7.0)" fill="url(#b3ext)"/><path d="M 136 36 H 456.09680000000003 A 84 84 0 0 1 540.0968 120 V 120 A 84 84 0 0 1 456.09680000000003 204 H 136 A 84 84 0 0 1 52 120 V 120 A 84 84 0 0 1 136 36 Z" transform="translate(0 9.3)" fill="url(#b3ext)"/><path d="M 136 36 H 456.09680000000003 A 84 84 0 0 1 540.0968 120 V 120 A 84 84 0 0 1 456.09680000000003 204 H 136 A 84 84 0 0 1 52 120 V 120 A 84 84 0 0 1 136 36 Z" transform="translate(0 11.7)" fill="url(#b3ext)"/><path d="M 136 36 H 456.09680000000003 A 84 84 0 0 1 540.0968 120 V 120 A 84 84 0 0 1 456.09680000000003 204 H 136 A 84 84 0 0 1 52 120 V 120 A 84 84 0 0 1 136 36 Z" transform="translate(0 14.0)" fill="url(#b3ext)" stroke="#2a262e" stroke-width="1"/>
        <path d="M 136 36 H 456.09680000000003 A 84 84 0 0 1 540.0968 120 V 120 A 84 84 0 0 1 456.09680000000003 204 H 136 A 84 84 0 0 1 52 120 V 120 A 84 84 0 0 1 136 36 Z" transform="translate(0 14.0)" fill="url(#b3extv)"/>
        
        <path d="M 136 36 H 456.09680000000003 A 84 84 0 0 1 540.0968 120 V 120 A 84 84 0 0 1 456.09680000000003 204 H 136 A 84 84 0 0 1 52 120 V 120 A 84 84 0 0 1 136 36 Z" transform="translate(0 13.2)" fill="none" stroke="#89858d" stroke-width="1.2" opacity="0.45"/>
      </g></g>
    <g id="b3_shell" opacity="1.00">
      <path d="M 136 36 H 456.09680000000003 A 84 84 0 0 1 540.0968 120 V 120 A 84 84 0 0 1 456.09680000000003 204 H 136 A 84 84 0 0 1 52 120 V 120 A 84 84 0 0 1 136 36 Z" fill="url(#b3band)" stroke="#5a5063" stroke-width="1.5"/>
      <path d="M 136 39.8 H 456.0968 A 80.2 80.2 0 0 1 536.2968 120 V 119.99999999999999 A 80.2 80.2 0 0 1 456.0968 200.2 H 136 A 80.2 80.2 0 0 1 55.8 119.99999999999999 V 120 A 80.2 80.2 0 0 1 136 39.8 Z" fill="none" stroke="url(#b3rim)" stroke-width="6.0" opacity="0.40"/>
      
    </g>
    <g data-oclip="1" clip-path="url(#b3oc)">
    <g id="b3_face" opacity="1.00">
      <path d="M 136 50 H 456.09680000000003 A 70 70 0 0 1 526.0968 120 V 120 A 70 70 0 0 1 456.09680000000003 190 H 136 A 70 70 0 0 1 66 120 V 120 A 70 70 0 0 1 136 50 Z" fill="url(#b3face)"/>
      <g clip-path="url(#b3fc)">
        <rect x="46" y="30" width="500.09680000000003" height="180" fill="url(#b3pt)" opacity="0.35"/>
        
        <ellipse cx="299.9" cy="161.9" rx="152.4" ry="26.2" fill="url(#b3bl)" opacity="0.18"/>
        
        <rect x="66" y="50" width="460.09680000000003" height="140" filter="url(#b3nz)" opacity="0.06" style="mix-blend-mode:overlay"/>
      </g>
      <path d="M 136 50 H 456.09680000000003 A 70 70 0 0 1 526.0968 120 V 120 A 70 70 0 0 1 456.09680000000003 190 H 136 A 70 70 0 0 1 66 120 V 120 A 70 70 0 0 1 136 50 Z" fill="none" stroke="url(#b3ie)" stroke-width="6.0" opacity="1.00"/>
    </g>
    <g id="b3_content" opacity="1.00">
      
      <text x="288.1" y="121.0" font-size="76.0" font-weight="500" font-style="italic" letter-spacing="0.010em" fill="url(#b3tg)" stroke="url(#b3og)" stroke-width="2.9" stroke-linejoin="round" paint-order="stroke" text-anchor="middle" dominant-baseline="central" filter="url(#b3tf)">JELLY</text>
      
      
      
    </g>
    <g id="b3_gloss" opacity="1.00" clip-path="url(#b3fc)" style="mix-blend-mode:hard-light"><path d="M 64 48 H 528.0968 V 106.0 Q 293.2 142.0 64 106.0 Z" fill="url(#b3gl)"/></g>
    <g id="b3_specular" opacity="1.00" clip-path="url(#b3fc)" style="mix-blend-mode:hard-light"><g transform="rotate(-0.0 370.7 66.3)" opacity="0.09">
        <rect x="287.7" y="59.7" width="114.4" height="13.1" rx="6.6" fill="#ffffff"/>
        <rect x="410.7" y="59.7" width="34.3" height="13.1" rx="6.6" fill="#ffffff"/>
      </g></g>
    </g>
  </g>
</g>
</svg>