<svg xmlns="http://www.w3.org/2000/svg" width="772.0968" height="508" viewBox="-90 -90 772.0968 508" font-family="'Fredoka', Inter, sans-serif" data-shell="52.0 62.0 488.1 168.0" role="img" aria-label="JELLY, hover state">
<defs>
  <linearGradient id="b1band" x1="0.526" y1="0.999" x2="0.474" y2="0.001">
    <stop offset="0" stop-color="#8313b3"/>
    <stop offset=".5" stop-color="#bb1bff"/>
    <stop offset="1" stop-color="#da82ff"/>
  </linearGradient>
  <linearGradient id="b1ext" x1="0" y1="0.5" x2="1" y2="0.5">
    <stop offset="0" stop-color="#702193"/>
    <stop offset="0.55" stop-color="#650f8a"/>
    <stop offset="1" stop-color="#5f0e82"/>
  </linearGradient>
  <linearGradient id="b1extv" x1="0" y1="0" x2="0" y2="1">
    <stop offset="0.5" stop-color="#2d073e" stop-opacity="0"/>
    <stop offset="1" stop-color="#2d073e" stop-opacity="0.38"/>
  </linearGradient>
  <radialGradient id="b1ct">
    <stop offset="0" stop-color="#4A1178" stop-opacity="1"/>
    <stop offset="1" stop-color="#4A1178" stop-opacity="0"/>
  </radialGradient>
  <clipPath id="b1ec"><path d="M 136 36 H 456.09680000000003 A 84 84 0 0 1 540.0968 120 V 120 A 84 84 0 0 1 456.09680000000003 204 H 136 A 84 84 0 0 1 52 120 V 120 A 84 84 0 0 1 136 36 Z" transform="translate(0 24.0)"/></clipPath>
  <radialGradient id="b1eg"><stop offset="0" stop-color="#ff86ff" stop-opacity="1"/><stop offset="1" stop-color="#ff86ff" stop-opacity="0"/></radialGradient>
  <pattern id="b1pt" width="98.0" height="98.0" patternUnits="userSpaceOnUse" patternTransform="rotate(45)"><rect width="49.0" height="98.0" fill="#14a4d2"/></pattern>
  <linearGradient id="b1rim" x1="0.526" y1="0.999" x2="0.474" y2="0.001">
    <stop offset="0" stop-color="#ffffff" stop-opacity="0.45"/>
    <stop offset=".4" stop-color="#ffffff" stop-opacity="0.08"/>
    <stop offset="1" stop-color="#ffffff" stop-opacity="0.95"/>
  </linearGradient>
  <linearGradient id="b1face" x1="0.526" y1="0.999" x2="0.474" y2="0.001">
    <stop offset="0" stop-color="#d43bff"/>
    <stop offset="0.39" stop-color="#d43bff"/>
    <stop offset="1" stop-color="#d43bff"/>
  </linearGradient>
  <linearGradient id="b1ie" x1="0.526" y1="0.999" x2="0.474" y2="0.001">
    <stop offset="0" stop-color="rgba(236,167,255,0.55)"/>
    <stop offset=".55" stop-color="rgba(122,18,166,0.35)"/>
    <stop offset="1" stop-color="rgba(79,11,107,0.90)"/>
  </linearGradient>
  <linearGradient id="b1ig" x1="0.526" y1="0.999" x2="0.474" y2="0.001">
    <stop offset="0" stop-color="#ff86ff" stop-opacity="0.72"/>
    <stop offset="0.66" stop-color="#ff86ff" stop-opacity="0"/>
  </linearGradient>
  <linearGradient id="b1gl" x1="0" y1="0" x2="0" y2="1">
    <stop offset="0" stop-color="#8514c1" stop-opacity="0.89"/>
    <stop offset="0.75" stop-color="#b3a0e6" stop-opacity="0.77"/>
    <stop offset="1" stop-color="#d1fdff" stop-opacity="0.48"/>
  </linearGradient>
  <radialGradient id="b1sp">
    <stop offset="0" stop-color="#ffffff" stop-opacity="1"/>
    <stop offset="0.64" stop-color="#ffffff" stop-opacity="1"/>
    <stop offset="0.82" stop-color="#ffffff" stop-opacity="0.42"/>
    <stop offset="1" stop-color="#ffffff" stop-opacity="0"/>
  </radialGradient>
  
  <radialGradient id="b1bl">
    <stop offset="0" stop-color="#ffffff" stop-opacity="1"/>
    <stop offset="1" stop-color="#ffffff" stop-opacity="0"/>
  </radialGradient>
  <linearGradient id="b1tg" x1="0" y1="0" x2="0" y2="1"><stop offset="0" stop-color="#ff92ff"/><stop offset="1" stop-color="#dd4cff"/></linearGradient>
  <linearGradient id="b1og" x1="0" y1="0" x2="0" y2="1"><stop offset="0" stop-color="#6817ae"/><stop offset="1" stop-color="#471771"/></linearGradient>
  
  
  
  <filter id="b1tf" x="-70%" y="-70%" width="240%" height="240%" color-interpolation-filters="sRGB"><feDropShadow dx="5.7" dy="3.8" stdDeviation="5.7" flood-color="#351452" flood-opacity="0.91"/></filter>
  <clipPath id="b1fc"><path d="M 136 50 H 456.09680000000003 A 70 70 0 0 1 526.0968 120 V 120 A 70 70 0 0 1 456.09680000000003 190 H 136 A 70 70 0 0 1 66 120 V 120 A 70 70 0 0 1 136 50 Z"/></clipPath>
  <clipPath id="b1oc"><path d="M 136 36 H 456.09680000000003 A 84 84 0 0 1 540.0968 120 V 120 A 84 84 0 0 1 456.09680000000003 204 H 136 A 84 84 0 0 1 52 120 V 120 A 84 84 0 0 1 136 36 Z"/></clipPath>
  <filter id="b1sb" x="-40%" y="-40%" width="180%" height="180%"><feGaussianBlur stdDeviation="7.0"/></filter>
  <filter id="b1gb" x="-70%" y="-70%" width="240%" height="240%"><feGaussianBlur stdDeviation="14"/></filter>
  <filter id="b1gb2" x="-90%" y="-90%" width="280%" height="280%"><feGaussianBlur stdDeviation="30"/></filter>
  <filter id="b1nz" x="-5%" y="-5%" width="110%" height="110%"><feTurbulence type="fractalNoise" baseFrequency="1.05" numOctaves="2" seed="7" stitchTiles="stitch"/><feColorMatrix type="saturate" values="0"/><feComponentTransfer><feFuncR type="linear" slope="2.6" intercept="-0.8"/><feFuncG type="linear" slope="2.6" intercept="-0.8"/><feFuncB type="linear" slope="2.6" intercept="-0.8"/></feComponentTransfer></filter>
</defs>
<g opacity="1.00" transform="translate(0 24.0)">
  <g id="b1_cast-shadow"><path d="M 136 36 H 456.09680000000003 A 84 84 0 0 1 540.0968 120 V 120 A 84 84 0 0 1 456.09680000000003 204 H 136 A 84 84 0 0 1 52 120 V 120 A 84 84 0 0 1 136 36 Z" transform="translate(0.8 54.0)" fill="#4A1178" opacity="0.40" filter="url(#b1sb)"/></g>
  <g id="b1_contact-shadow"><ellipse cx="296.3" cy="231.5" rx="229.4" ry="10.8" fill="url(#b1ct)" opacity="0.32"/></g>
  <g id="b1_outer-glow"><path d="M 136 36 H 456.09680000000003 A 84 84 0 0 1 540.0968 120 V 120 A 84 84 0 0 1 456.09680000000003 204 H 136 A 84 84 0 0 1 52 120 V 120 A 84 84 0 0 1 136 36 Z" transform="translate(0 11.6)" fill="#ff86ff" opacity="1.00" filter="url(#b1gb)"/>
       <path d="M 136 36 H 456.09680000000003 A 84 84 0 0 1 540.0968 120 V 120 A 84 84 0 0 1 456.09680000000003 204 H 136 A 84 84 0 0 1 52 120 V 120 A 84 84 0 0 1 136 36 Z" transform="translate(0 11.6)" fill="#ff86ff" opacity="0.60" filter="url(#b1gb2)"/></g>
  <g transform="translate(0 2)">
    <g id="b1_extrusion"><g>
        <path d="M 136 36 H 456.09680000000003 A 84 84 0 0 1 540.0968 120 V 120 A 84 84 0 0 1 456.09680000000003 204 H 136 A 84 84 0 0 1 52 120 V 120 A 84 84 0 0 1 136 36 Z" transform="translate(0 2.4)" fill="url(#b1ext)"/><path d="M 136 36 H 456.09680000000003 A 84 84 0 0 1 540.0968 120 V 120 A 84 84 0 0 1 456.09680000000003 204 H 136 A 84 84 0 0 1 52 120 V 120 A 84 84 0 0 1 136 36 Z" transform="translate(0 4.8)" fill="url(#b1ext)"/><path d="M 136 36 H 456.09680000000003 A 84 84 0 0 1 540.0968 120 V 120 A 84 84 0 0 1 456.09680000000003 204 H 136 A 84 84 0 0 1 52 120 V 120 A 84 84 0 0 1 136 36 Z" transform="translate(0 7.2)" fill="url(#b1ext)"/><path d="M 136 36 H 456.09680000000003 A 84 84 0 0 1 540.0968 120 V 120 A 84 84 0 0 1 456.09680000000003 204 H 136 A 84 84 0 0 1 52 120 V 120 A 84 84 0 0 1 136 36 Z" transform="translate(0 9.6)" fill="url(#b1ext)"/><path d="M 136 36 H 456.09680000000003 A 84 84 0 0 1 540.0968 120 V 120 A 84 84 0 0 1 456.09680000000003 204 H 136 A 84 84 0 0 1 52 120 V 120 A 84 84 0 0 1 136 36 Z" transform="translate(0 12.0)" fill="url(#b1ext)"/><path d="M 136 36 H 456.09680000000003 A 84 84 0 0 1 540.0968 120 V 120 A 84 84 0 0 1 456.09680000000003 204 H 136 A 84 84 0 0 1 52 120 V 120 A 84 84 0 0 1 136 36 Z" transform="translate(0 14.4)" fill="url(#b1ext)"/><path d="M 136 36 H 456.09680000000003 A 84 84 0 0 1 540.0968 120 V 120 A 84 84 0 0 1 456.09680000000003 204 H 136 A 84 84 0 0 1 52 120 V 120 A 84 84 0 0 1 136 36 Z" transform="translate(0 16.8)" fill="url(#b1ext)"/><path d="M 136 36 H 456.09680000000003 A 84 84 0 0 1 540.0968 120 V 120 A 84 84 0 0 1 456.09680000000003 204 H 136 A 84 84 0 0 1 52 120 V 120 A 84 84 0 0 1 136 36 Z" transform="translate(0 19.2)" fill="url(#b1ext)"/><path d="M 136 36 H 456.09680000000003 A 84 84 0 0 1 540.0968 120 V 120 A 84 84 0 0 1 456.09680000000003 204 H 136 A 84 84 0 0 1 52 120 V 120 A 84 84 0 0 1 136 36 Z" transform="translate(0 21.6)" fill="url(#b1ext)"/><path d="M 136 36 H 456.09680000000003 A 84 84 0 0 1 540.0968 120 V 120 A 84 84 0 0 1 456.09680000000003 204 H 136 A 84 84 0 0 1 52 120 V 120 A 84 84 0 0 1 136 36 Z" transform="translate(0 24.0)" fill="url(#b1ext)" stroke="#420a5a" stroke-width="1"/>
        <path d="M 136 36 H 456.09680000000003 A 84 84 0 0 1 540.0968 120 V 120 A 84 84 0 0 1 456.09680000000003 204 H 136 A 84 84 0 0 1 52 120 V 120 A 84 84 0 0 1 136 36 Z" transform="translate(0 24.0)" fill="url(#b1extv)"/>
        <g clip-path="url(#b1ec)"><ellipse cx="296.0" cy="214.8" rx="156.2" ry="26.4" fill="url(#b1eg)" opacity="0.69"/></g>
        <path d="M 136 36 H 456.09680000000003 A 84 84 0 0 1 540.0968 120 V 120 A 84 84 0 0 1 456.09680000000003 204 H 136 A 84 84 0 0 1 52 120 V 120 A 84 84 0 0 1 136 36 Z" transform="translate(0 23.2)" fill="none" stroke="#a06ab6" stroke-width="1.2" opacity="0.45"/>
      </g></g>
    <g id="b1_shell" opacity="1.00">
      <path d="M 136 36 H 456.09680000000003 A 84 84 0 0 1 540.0968 120 V 120 A 84 84 0 0 1 456.09680000000003 204 H 136 A 84 84 0 0 1 52 120 V 120 A 84 84 0 0 1 136 36 Z" fill="url(#b1band)" stroke="#5e0e80" stroke-width="1.5"/>
      <path d="M 136 39.8 H 456.0968 A 80.2 80.2 0 0 1 536.2968 120 V 119.99999999999999 A 80.2 80.2 0 0 1 456.0968 200.2 H 136 A 80.2 80.2 0 0 1 55.8 119.99999999999999 V 120 A 80.2 80.2 0 0 1 136 39.8 Z" fill="none" stroke="url(#b1rim)" stroke-width="6.0" opacity="0.80"/>
      
    </g>
    <g data-oclip="1" clip-path="url(#b1oc)">
    <g id="b1_face" opacity="1.00">
      <path d="M 136 50 H 456.09680000000003 A 70 70 0 0 1 526.0968 120 V 120 A 70 70 0 0 1 456.09680000000003 190 H 136 A 70 70 0 0 1 66 120 V 120 A 70 70 0 0 1 136 50 Z" fill="url(#b1face)"/>
      <g clip-path="url(#b1fc)">
        <rect x="46" y="30" width="500.09680000000003" height="180" fill="url(#b1pt)" opacity="0.71"/>
        <path d="M 136 50 H 456.09680000000003 A 70 70 0 0 1 526.0968 120 V 120 A 70 70 0 0 1 456.09680000000003 190 H 136 A 70 70 0 0 1 66 120 V 120 A 70 70 0 0 1 136 50 Z" fill="url(#b1ig)"/>
        <ellipse cx="299.9" cy="161.9" rx="152.4" ry="26.2" fill="url(#b1bl)" opacity="0.60"/>
        
        <rect x="66" y="50" width="460.09680000000003" height="140" filter="url(#b1nz)" opacity="0.15" style="mix-blend-mode:overlay"/>
      </g>
      <path d="M 136 50 H 456.09680000000003 A 70 70 0 0 1 526.0968 120 V 120 A 70 70 0 0 1 456.09680000000003 190 H 136 A 70 70 0 0 1 66 120 V 120 A 70 70 0 0 1 136 50 Z" fill="none" stroke="url(#b1ie)" stroke-width="6.0" opacity="1.00"/>
    </g>
    <g id="b1_content" opacity="1.00">
      
      <text x="288.1" y="121.0" font-size="76.0" font-weight="500" font-style="italic" letter-spacing="0.010em" fill="url(#b1tg)" stroke="url(#b1og)" stroke-width="2.9" stroke-linejoin="round" paint-order="stroke" text-anchor="middle" dominant-baseline="central" filter="url(#b1tf)">JELLY</text>
      
      
      
    </g>
    <g id="b1_gloss" opacity="1.00" clip-path="url(#b1fc)" style="mix-blend-mode:hard-light"><path d="M 64 48 H 528.0968 V 106.0 Q 293.2 142.0 64 106.0 Z" fill="url(#b1gl)"/></g>
    <g id="b1_specular" opacity="1.00" clip-path="url(#b1fc)" style="mix-blend-mode:hard-light"><g transform="rotate(-0.0 370.7 66.3)" opacity="0.35">
        <rect x="287.7" y="59.7" width="114.4" height="13.1" rx="6.6" fill="#ffffff"/>
        <rect x="410.7" y="59.7" width="34.3" height="13.1" rx="6.6" fill="#ffffff"/>
      </g></g>
    </g>
  </g>
</g>
</svg>