<svg xmlns="http://www.w3.org/2000/svg" width="772.0968" height="508" viewBox="-90 -90 772.0968 508" font-family="'Fredoka', Inter, sans-serif" data-shell="52.0 72.0 488.1 168.0" role="img" aria-label="JELLY, pressed state">
<defs>
  <linearGradient id="b2band" x1="0.526" y1="0.999" x2="0.474" y2="0.001">
    <stop offset="0" stop-color="#7e19b3"/>
    <stop offset=".5" stop-color="#b423ff"/>
    <stop offset="1" stop-color="#d686ff"/>
  </linearGradient>
  <linearGradient id="b2ext" x1="0" y1="0.5" x2="1" y2="0.5">
    <stop offset="0" stop-color="#6d2493"/>
    <stop offset="0.55" stop-color="#61138a"/>
    <stop offset="1" stop-color="#5b1282"/>
  </linearGradient>
  <linearGradient id="b2extv" x1="0" y1="0" x2="0" y2="1">
    <stop offset="0.5" stop-color="#2c093e" stop-opacity="0"/>
    <stop offset="1" stop-color="#2c093e" stop-opacity="0.38"/>
  </linearGradient>
  <radialGradient id="b2ct">
    <stop offset="0" stop-color="#4A1178" stop-opacity="1"/>
    <stop offset="1" stop-color="#4A1178" stop-opacity="0"/>
  </radialGradient>
  <clipPath id="b2ec"><path d="M 136 36 H 456.09680000000003 A 84 84 0 0 1 540.0968 120 V 120 A 84 84 0 0 1 456.09680000000003 204 H 136 A 84 84 0 0 1 52 120 V 120 A 84 84 0 0 1 136 36 Z" transform="translate(0 14.0)"/></clipPath>
  <radialGradient id="b2eg"><stop offset="0" stop-color="#ff8cff" stop-opacity="1"/><stop offset="1" stop-color="#ff8cff" stop-opacity="0"/></radialGradient>
  <pattern id="b2pt" width="98.0" height="98.0" patternUnits="userSpaceOnUse" patternTransform="rotate(45)"><rect width="49.0" height="98.0" fill="#149fc9"/></pattern>
  <linearGradient id="b2rim" x1="0.526" y1="0.999" x2="0.474" y2="0.001">
    <stop offset="0" stop-color="#ffffff" stop-opacity="0.45"/>
    <stop offset=".4" stop-color="#ffffff" stop-opacity="0.08"/>
    <stop offset="1" stop-color="#ffffff" stop-opacity="0.95"/>
  </linearGradient>
  <linearGradient id="b2face" x1="0.526" y1="0.999" x2="0.474" y2="0.001">
    <stop offset="0" stop-color="#cc42ff"/>
    <stop offset="0.39" stop-color="#cc42ff"/>
    <stop offset="1" stop-color="#cc42ff"/>
  </linearGradient>
  <linearGradient id="b2ie" x1="0.526" y1="0.999" x2="0.474" y2="0.001">
    <stop offset="0" stop-color="rgba(232,170,255,0.55)"/>
    <stop offset=".55" stop-color="rgba(117,23,166,0.35)"/>
    <stop offset="1" stop-color="rgba(76,15,107,0.90)"/>
  </linearGradient>
  <linearGradient id="b2ig" x1="0.526" y1="0.999" x2="0.474" y2="0.001">
    <stop offset="0" stop-color="#ff8cff" stop-opacity="0.72"/>
    <stop offset="0.66" stop-color="#ff8cff" stop-opacity="0"/>
  </linearGradient>
  <linearGradient id="b2gl" x1="0" y1="0" x2="0" y2="1">
    <stop offset="0" stop-color="#7f16b6" stop-opacity="0.89"/>
    <stop offset="0.75" stop-color="#b3a0e2" stop-opacity="0.77"/>
    <stop offset="1" stop-color="#d5fcff" stop-opacity="0.48"/>
  </linearGradient>
  <radialGradient id="b2sp">
    <stop offset="0" stop-color="#ffffff" stop-opacity="1"/>
    <stop offset="0.64" stop-color="#ffffff" stop-opacity="1"/>
    <stop offset="0.82" stop-color="#ffffff" stop-opacity="0.42"/>
    <stop offset="1" stop-color="#ffffff" stop-opacity="0"/>
  </radialGradient>
  
  <radialGradient id="b2bl">
    <stop offset="0" stop-color="#ffffff" stop-opacity="1"/>
    <stop offset="1" stop-color="#ffffff" stop-opacity="0"/>
  </radialGradient>
  <linearGradient id="b2tg" x1="0" y1="0" x2="0" y2="1"><stop offset="0" stop-color="#ff98ff"/><stop offset="1" stop-color="#d652ff"/></linearGradient>
  <linearGradient id="b2og" x1="0" y1="0" x2="0" y2="1"><stop offset="0" stop-color="#641ca4"/><stop offset="1" stop-color="#44196b"/></linearGradient>
  
  
  
  <filter id="b2tf" x="-70%" y="-70%" width="240%" height="240%" color-interpolation-filters="sRGB"><feDropShadow dx="5.7" dy="3.8" stdDeviation="5.7" flood-color="#351452" flood-opacity="0.91"/></filter>
  <clipPath id="b2fc"><path d="M 136 50 H 456.09680000000003 A 70 70 0 0 1 526.0968 120 V 120 A 70 70 0 0 1 456.09680000000003 190 H 136 A 70 70 0 0 1 66 120 V 120 A 70 70 0 0 1 136 50 Z"/></clipPath>
  <clipPath id="b2oc"><path d="M 136 36 H 456.09680000000003 A 84 84 0 0 1 540.0968 120 V 120 A 84 84 0 0 1 456.09680000000003 204 H 136 A 84 84 0 0 1 52 120 V 120 A 84 84 0 0 1 136 36 Z"/></clipPath>
  <filter id="b2sb" x="-40%" y="-40%" width="180%" height="180%"><feGaussianBlur stdDeviation="7.0"/></filter>
  <filter id="b2gb" x="-70%" y="-70%" width="240%" height="240%"><feGaussianBlur stdDeviation="14"/></filter>
  <filter id="b2gb2" x="-90%" y="-90%" width="280%" height="280%"><feGaussianBlur stdDeviation="30"/></filter>
  <filter id="b2nz" x="-5%" y="-5%" width="110%" height="110%"><feTurbulence type="fractalNoise" baseFrequency="1.05" numOctaves="2" seed="7" stitchTiles="stitch"/><feColorMatrix type="saturate" values="0"/><feComponentTransfer><feFuncR type="linear" slope="2.6" intercept="-0.8"/><feFuncG type="linear" slope="2.6" intercept="-0.8"/><feFuncB type="linear" slope="2.6" intercept="-0.8"/></feComponentTransfer></filter>
</defs>
<g opacity="1.00" transform="translate(0 34.0)">
  <g id="b2_cast-shadow"><path d="M 136 36 H 456.09680000000003 A 84 84 0 0 1 540.0968 120 V 120 A 84 84 0 0 1 456.09680000000003 204 H 136 A 84 84 0 0 1 52 120 V 120 A 84 84 0 0 1 136 36 Z" transform="translate(0.8 44.0)" fill="#4A1178" opacity="0.40" filter="url(#b2sb)"/></g>
  <g id="b2_contact-shadow"><ellipse cx="296.3" cy="221.5" rx="229.4" ry="8.6" fill="url(#b2ct)" opacity="0.32"/></g>
  <g id="b2_outer-glow"><path d="M 136 36 H 456.09680000000003 A 84 84 0 0 1 540.0968 120 V 120 A 84 84 0 0 1 456.09680000000003 204 H 136 A 84 84 0 0 1 52 120 V 120 A 84 84 0 0 1 136 36 Z" transform="translate(0 7.6)" fill="#ff8cff" opacity="0.94" filter="url(#b2gb)"/>
       <path d="M 136 36 H 456.09680000000003 A 84 84 0 0 1 540.0968 120 V 120 A 84 84 0 0 1 456.09680000000003 204 H 136 A 84 84 0 0 1 52 120 V 120 A 84 84 0 0 1 136 36 Z" transform="translate(0 7.6)" fill="#ff8cff" opacity="0.42" filter="url(#b2gb2)"/></g>
  <g transform="translate(0 2)">
    <g id="b2_extrusion"><g>
        <path d="M 136 36 H 456.09680000000003 A 84 84 0 0 1 540.0968 120 V 120 A 84 84 0 0 1 456.09680000000003 204 H 136 A 84 84 0 0 1 52 120 V 120 A 84 84 0 0 1 136 36 Z" transform="translate(0 2.3)" fill="url(#b2ext)"/><path d="M 136 36 H 456.09680000000003 A 84 84 0 0 1 540.0968 120 V 120 A 84 84 0 0 1 456.09680000000003 204 H 136 A 84 84 0 0 1 52 120 V 120 A 84 84 0 0 1 136 36 Z" transform="translate(0 4.7)" fill="url(#b2ext)"/><path d="M 136 36 H 456.09680000000003 A 84 84 0 0 1 540.0968 120 V 120 A 84 84 0 0 1 456.09680000000003 204 H 136 A 84 84 0 0 1 52 120 V 120 A 84 84 0 0 1 136 36 Z" transform="translate(0 7.0)" fill="url(#b2ext)"/><path d="M 136 36 H 456.09680000000003 A 84 84 0 0 1 540.0968 120 V 120 A 84 84 0 0 1 456.09680000000003 204 H 136 A 84 84 0 0 1 52 120 V 120 A 84 84 0 0 1 136 36 Z" transform="translate(0 9.3)" fill="url(#b2ext)"/><path d="M 136 36 H 456.09680000000003 A 84 84 0 0 1 540.0968 120 V 120 A 84 84 0 0 1 456.09680000000003 204 H 136 A 84 84 0 0 1 52 120 V 120 A 84 84 0 0 1 136 36 Z" transform="translate(0 11.7)" fill="url(#b2ext)"/><path d="M 136 36 H 456.09680000000003 A 84 84 0 0 1 540.0968 120 V 120 A 84 84 0 0 1 456.09680000000003 204 H 136 A 84 84 0 0 1 52 120 V 120 A 84 84 0 0 1 136 36 Z" transform="translate(0 14.0)" fill="url(#b2ext)" stroke="#3f0c5a" stroke-width="1"/>
        <path d="M 136 36 H 456.09680000000003 A 84 84 0 0 1 540.0968 120 V 120 A 84 84 0 0 1 456.09680000000003 204 H 136 A 84 84 0 0 1 52 120 V 120 A 84 84 0 0 1 136 36 Z" transform="translate(0 14.0)" fill="url(#b2extv)"/>
        <g clip-path="url(#b2ec)"><ellipse cx="296.0" cy="210.3" rx="156.2" ry="15.4" fill="url(#b2eg)" opacity="0.69"/></g>
        <path d="M 136 36 H 456.09680000000003 A 84 84 0 0 1 540.0968 120 V 120 A 84 84 0 0 1 456.09680000000003 204 H 136 A 84 84 0 0 1 52 120 V 120 A 84 84 0 0 1 136 36 Z" transform="translate(0 13.2)" fill="none" stroke="#9d6db6" stroke-width="1.2" opacity="0.45"/>
      </g></g>
    <g id="b2_shell" opacity="1.00">
      <path d="M 136 36 H 456.09680000000003 A 84 84 0 0 1 540.0968 120 V 120 A 84 84 0 0 1 456.09680000000003 204 H 136 A 84 84 0 0 1 52 120 V 120 A 84 84 0 0 1 136 36 Z" fill="url(#b2band)" stroke="#5a1280" stroke-width="1.5"/>
      <path d="M 136 39.8 H 456.0968 A 80.2 80.2 0 0 1 536.2968 120 V 119.99999999999999 A 80.2 80.2 0 0 1 456.0968 200.2 H 136 A 80.2 80.2 0 0 1 55.8 119.99999999999999 V 120 A 80.2 80.2 0 0 1 136 39.8 Z" fill="none" stroke="url(#b2rim)" stroke-width="6.0" opacity="0.80"/>
      
    </g>
    <g data-oclip="1" clip-path="url(#b2oc)">
    <g id="b2_face" opacity="1.00">
      <path d="M 136 50 H 456.09680000000003 A 70 70 0 0 1 526.0968 120 V 120 A 70 70 0 0 1 456.09680000000003 190 H 136 A 70 70 0 0 1 66 120 V 120 A 70 70 0 0 1 136 50 Z" fill="url(#b2face)"/>
      <g clip-path="url(#b2fc)">
        <rect x="46" y="30" width="500.09680000000003" height="180" fill="url(#b2pt)" opacity="0.71"/>
        <path d="M 136 50 H 456.09680000000003 A 70 70 0 0 1 526.0968 120 V 120 A 70 70 0 0 1 456.09680000000003 190 H 136 A 70 70 0 0 1 66 120 V 120 A 70 70 0 0 1 136 50 Z" fill="url(#b2ig)"/>
        <ellipse cx="299.9" cy="161.9" rx="152.4" ry="26.2" fill="url(#b2bl)" opacity="0.60"/>
        
        <rect x="66" y="50" width="460.09680000000003" height="140" filter="url(#b2nz)" opacity="0.15" style="mix-blend-mode:overlay"/>
      </g>
      <path d="M 136 50 H 456.09680000000003 A 70 70 0 0 1 526.0968 120 V 120 A 70 70 0 0 1 456.09680000000003 190 H 136 A 70 70 0 0 1 66 120 V 120 A 70 70 0 0 1 136 50 Z" fill="none" stroke="url(#b2ie)" stroke-width="6.0" opacity="1.00"/>
    </g>
    <g id="b2_content" opacity="1.00">
      
      <text x="288.1" y="121.0" font-size="76.0" font-weight="500" font-style="italic" letter-spacing="0.010em" fill="url(#b2tg)" stroke="url(#b2og)" stroke-width="2.9" stroke-linejoin="round" paint-order="stroke" text-anchor="middle" dominant-baseline="central" filter="url(#b2tf)">JELLY</text>
      
      
      
    </g>
    <g id="b2_gloss" opacity="1.00" clip-path="url(#b2fc)" style="mix-blend-mode:hard-light"><path d="M 64 48 H 528.0968 V 106.0 Q 293.2 142.0 64 106.0 Z" fill="url(#b2gl)"/></g>
    <g id="b2_specular" opacity="1.00" clip-path="url(#b2fc)" style="mix-blend-mode:hard-light"><g transform="rotate(-0.0 370.7 66.3)" opacity="0.35">
        <rect x="287.7" y="59.7" width="114.4" height="13.1" rx="6.6" fill="#ffffff"/>
        <rect x="410.7" y="59.7" width="34.3" height="13.1" rx="6.6" fill="#ffffff"/>
      </g></g>
    </g>
  </g>
</g>
</svg>