<svg xmlns="http://www.w3.org/2000/svg" width="671.158272" height="508" viewBox="-90 -90 671.158272 508" font-family="'Russo One', Inter, sans-serif" data-shell="52.0 74.0 387.2 168.0" role="img" aria-label="PLAY, default state">
<defs>
  <linearGradient id="b13band" x1="0.500" y1="1.000" x2="0.500" y2="0.000">
    <stop offset="0" stop-color="#12718f"/>
    <stop offset=".5" stop-color="#1aa1cc"/>
    <stop offset="1" stop-color="#81cbe3"/>
  </linearGradient>
  <linearGradient id="b13ext" x1="1" y1="0.5" x2="0" y2="0.5">
    <stop offset="0" stop-color="#1c6178"/>
    <stop offset="0.55" stop-color="#0e576f"/>
    <stop offset="1" stop-color="#0d5369"/>
  </linearGradient>
  <linearGradient id="b13extv" x1="0" y1="0" x2="0" y2="1">
    <stop offset="0.5" stop-color="#062732" stop-opacity="0"/>
    <stop offset="1" stop-color="#062732" stop-opacity="0.38"/>
  </linearGradient>
  <radialGradient id="b13ct">
    <stop offset="0" stop-color="#0A4A62" stop-opacity="1"/>
    <stop offset="1" stop-color="#0A4A62" stop-opacity="0"/>
  </radialGradient>
  <clipPath id="b13ec"><path d="M 96.56 36 H 394.598272 A 44.56 44.56 0 0 1 439.158272 80.56 V 159.44 A 44.56 44.56 0 0 1 394.598272 204 H 96.56 A 44.56 44.56 0 0 1 52 159.44 V 80.56 A 44.56 44.56 0 0 1 96.56 36 Z" transform="translate(0 10.0)"/></clipPath>
  <radialGradient id="b13eg"><stop offset="0" stop-color="#95f1ff" stop-opacity="1"/><stop offset="1" stop-color="#95f1ff" stop-opacity="0"/></radialGradient>
  <pattern id="b13pt" width="98.0" height="98.0" patternUnits="userSpaceOnUse" patternTransform="rotate(45)"><rect width="49.0" height="98.0" fill="#28879f"/></pattern>
  <linearGradient id="b13rim" x1="0.500" y1="1.000" x2="0.500" y2="0.000">
    <stop offset="0" stop-color="#ffffff" stop-opacity="0.45"/>
    <stop offset=".4" stop-color="#ffffff" stop-opacity="0.08"/>
    <stop offset="1" stop-color="#ffffff" stop-opacity="0.95"/>
  </linearGradient>
  <linearGradient id="b13face" x1="0.500" y1="1.000" x2="0.500" y2="0.000">
    <stop offset="0" stop-color="#2893b1"/>
    <stop offset="0.50" stop-color="#37c8f1"/>
    <stop offset="1" stop-color="#79daf6"/>
  </linearGradient>
  <linearGradient id="b13ie" x1="0.500" y1="1.000" x2="0.500" y2="0.000">
    <stop offset="0" stop-color="rgba(165,230,249,0.55)"/>
    <stop offset=".55" stop-color="rgba(17,105,133,0.35)"/>
    <stop offset="1" stop-color="rgba(11,68,86,0.90)"/>
  </linearGradient>
  <linearGradient id="b13ig" x1="0.500" y1="1.000" x2="0.500" y2="0.000">
    <stop offset="0" stop-color="#95f1ff" stop-opacity="0.55"/>
    <stop offset="0.55" stop-color="#95f1ff" stop-opacity="0"/>
  </linearGradient>
  <linearGradient id="b13gl" x1="0" y1="0" x2="0" y2="1">
    <stop offset="0" stop-color="#3d97b6" stop-opacity="0.72"/>
    <stop offset="0.48" stop-color="#9fd1e2" stop-opacity="0.51"/>
    <stop offset="1" stop-color="#e1f7ff" stop-opacity="0.04"/>
  </linearGradient>
  <radialGradient id="b13sp">
    <stop offset="0" stop-color="#ffffff" stop-opacity="1"/>
    <stop offset="0.85" stop-color="#ffffff" stop-opacity="1"/>
    <stop offset="0.92" stop-color="#ffffff" stop-opacity="0.50"/>
    <stop offset="1" stop-color="#ffffff" stop-opacity="0"/>
  </radialGradient>
  
  <radialGradient id="b13bl">
    <stop offset="0" stop-color="#ffffff" stop-opacity="1"/>
    <stop offset="1" stop-color="#ffffff" stop-opacity="0"/>
  </radialGradient>
  <linearGradient id="b13tg" x1="0" y1="0" x2="0" y2="1"><stop offset="0" stop-color="#0db9c5"/><stop offset="1" stop-color="#1b9bc5"/></linearGradient>
  
  
  
  
  <filter id="b13tf" x="-70%" y="-70%" width="240%" height="240%" color-interpolation-filters="sRGB"><feDropShadow dx="-0.0" dy="4.5" stdDeviation="0.3" flood-color="#FFFFFF" flood-opacity="0.52"/><feDropShadow dx="0.0" dy="-4.5" stdDeviation="0.3" flood-color="#04080E" flood-opacity="0.44"/><feDropShadow dx="0.0" dy="5.7" stdDeviation="1.4" flood-color="#053b4c" flood-opacity="0.45"/><feDropShadow dx="0" dy="0" stdDeviation="4.5" flood-color="#8FF0FF" flood-opacity="1.00"/><feDropShadow dx="0" dy="0" stdDeviation="12.0" flood-color="#8FF0FF" flood-opacity="0.60"/></filter>
  <clipPath id="b13fc"><path d="M 102.4 46 H 388.75827200000003 A 40.4 40.4 0 0 1 429.158272 86.4 V 153.6 A 40.4 40.4 0 0 1 388.75827200000003 194 H 102.4 A 40.4 40.4 0 0 1 62 153.6 V 86.4 A 40.4 40.4 0 0 1 102.4 46 Z"/></clipPath>
  <clipPath id="b13oc"><path d="M 96.56 36 H 394.598272 A 44.56 44.56 0 0 1 439.158272 80.56 V 159.44 A 44.56 44.56 0 0 1 394.598272 204 H 96.56 A 44.56 44.56 0 0 1 52 159.44 V 80.56 A 44.56 44.56 0 0 1 96.56 36 Z"/></clipPath>
  <filter id="b13sb" x="-40%" y="-40%" width="180%" height="180%"><feGaussianBlur stdDeviation="7.0"/></filter>
  
  <filter id="b13nz" x="-5%" y="-5%" width="110%" height="110%"><feTurbulence type="fractalNoise" baseFrequency="1.05" numOctaves="2" seed="7" stitchTiles="stitch"/><feColorMatrix type="saturate" values="0"/><feComponentTransfer><feFuncR type="linear" slope="2.6" intercept="-0.8"/><feFuncG type="linear" slope="2.6" intercept="-0.8"/><feFuncB type="linear" slope="2.6" intercept="-0.8"/></feComponentTransfer></filter>
</defs>
<g opacity="1.00" transform="translate(0 38.0)">
  <g id="b13_cast-shadow"><path d="M 96.56 36 H 394.598272 A 44.56 44.56 0 0 1 439.158272 80.56 V 159.44 A 44.56 44.56 0 0 1 394.598272 204 H 96.56 A 44.56 44.56 0 0 1 52 159.44 V 80.56 A 44.56 44.56 0 0 1 96.56 36 Z" transform="translate(-0.0 38.0)" fill="#0A4A62" opacity="0.40" filter="url(#b13sb)"/></g>
  <g id="b13_contact-shadow"><ellipse cx="245.6" cy="215.5" rx="182.0" ry="7.7" fill="url(#b13ct)" opacity="0.32"/></g>
  
  <g transform="translate(0 0)">
    <g id="b13_extrusion"><g>
        <path d="M 96.56 36 H 394.598272 A 44.56 44.56 0 0 1 439.158272 80.56 V 159.44 A 44.56 44.56 0 0 1 394.598272 204 H 96.56 A 44.56 44.56 0 0 1 52 159.44 V 80.56 A 44.56 44.56 0 0 1 96.56 36 Z" transform="translate(0 2.5)" fill="url(#b13ext)"/><path d="M 96.56 36 H 394.598272 A 44.56 44.56 0 0 1 439.158272 80.56 V 159.44 A 44.56 44.56 0 0 1 394.598272 204 H 96.56 A 44.56 44.56 0 0 1 52 159.44 V 80.56 A 44.56 44.56 0 0 1 96.56 36 Z" transform="translate(0 5.0)" fill="url(#b13ext)"/><path d="M 96.56 36 H 394.598272 A 44.56 44.56 0 0 1 439.158272 80.56 V 159.44 A 44.56 44.56 0 0 1 394.598272 204 H 96.56 A 44.56 44.56 0 0 1 52 159.44 V 80.56 A 44.56 44.56 0 0 1 96.56 36 Z" transform="translate(0 7.5)" fill="url(#b13ext)"/><path d="M 96.56 36 H 394.598272 A 44.56 44.56 0 0 1 439.158272 80.56 V 159.44 A 44.56 44.56 0 0 1 394.598272 204 H 96.56 A 44.56 44.56 0 0 1 52 159.44 V 80.56 A 44.56 44.56 0 0 1 96.56 36 Z" transform="translate(0 10.0)" fill="url(#b13ext)" stroke="#093948" stroke-width="1"/>
        <path d="M 96.56 36 H 394.598272 A 44.56 44.56 0 0 1 439.158272 80.56 V 159.44 A 44.56 44.56 0 0 1 394.598272 204 H 96.56 A 44.56 44.56 0 0 1 52 159.44 V 80.56 A 44.56 44.56 0 0 1 96.56 36 Z" transform="translate(0 10.0)" fill="url(#b13extv)"/>
        <g clip-path="url(#b13ec)"><ellipse cx="245.6" cy="208.5" rx="123.9" ry="11.0" fill="url(#b13eg)" opacity="0.69"/></g>
        <path d="M 96.56 36 H 394.598272 A 44.56 44.56 0 0 1 439.158272 80.56 V 159.44 A 44.56 44.56 0 0 1 394.598272 204 H 96.56 A 44.56 44.56 0 0 1 52 159.44 V 80.56 A 44.56 44.56 0 0 1 96.56 36 Z" transform="translate(0 9.2)" fill="none" stroke="#6a97a6" stroke-width="1.2" opacity="0.45"/>
      </g></g>
    <g id="b13_shell" opacity="1.00">
      <path d="M 96.56 36 H 394.598272 A 44.56 44.56 0 0 1 439.158272 80.56 V 159.44 A 44.56 44.56 0 0 1 394.598272 204 H 96.56 A 44.56 44.56 0 0 1 52 159.44 V 80.56 A 44.56 44.56 0 0 1 96.56 36 Z" fill="url(#b13band)" stroke="#0d5166" stroke-width="1.5"/>
      <path d="M 98.86 38.3 H 392.298272 A 44.56 44.56 0 0 1 436.858272 82.86 V 157.14 A 44.56 44.56 0 0 1 392.298272 201.7 H 98.86 A 44.56 44.56 0 0 1 54.3 157.14 V 82.86 A 44.56 44.56 0 0 1 98.86 38.3 Z" fill="none" stroke="url(#b13rim)" stroke-width="3.0" opacity="0.80"/>
      
    </g>
    <g data-oclip="1" clip-path="url(#b13oc)">
    <g id="b13_face" opacity="1.00">
      <path d="M 102.4 46 H 388.75827200000003 A 40.4 40.4 0 0 1 429.158272 86.4 V 153.6 A 40.4 40.4 0 0 1 388.75827200000003 194 H 102.4 A 40.4 40.4 0 0 1 62 153.6 V 86.4 A 40.4 40.4 0 0 1 102.4 46 Z" fill="url(#b13face)"/>
      <g clip-path="url(#b13fc)">
        <rect x="42" y="26" width="407.158272" height="188" fill="url(#b13pt)" opacity="0.71"/>
        <path d="M 102.4 46 H 388.75827200000003 A 40.4 40.4 0 0 1 429.158272 86.4 V 153.6 A 40.4 40.4 0 0 1 388.75827200000003 194 H 102.4 A 40.4 40.4 0 0 1 62 153.6 V 86.4 A 40.4 40.4 0 0 1 102.4 46 Z" fill="url(#b13ig)"/>
        <ellipse cx="245.6" cy="164.4" rx="101.3" ry="23.1" fill="url(#b13bl)" opacity="0.45"/>
        
        <rect x="62" y="46" width="367.158272" height="148" filter="url(#b13nz)" opacity="0.15" style="mix-blend-mode:overlay"/>
      </g>
      <path d="M 102.4 46 H 388.75827200000003 A 40.4 40.4 0 0 1 429.158272 86.4 V 153.6 A 40.4 40.4 0 0 1 388.75827200000003 194 H 102.4 A 40.4 40.4 0 0 1 62 153.6 V 86.4 A 40.4 40.4 0 0 1 102.4 46 Z" fill="none" stroke="url(#b13ie)" stroke-width="3.0" opacity="0.45"/>
    </g>
    <g id="b13_content" opacity="1.00">
      
      <text x="237.6" y="121.0" font-size="76.0" font-weight="700" font-style="italic" letter-spacing="0.020em" fill="url(#b13tg)" stroke="url(#b13tg)" stroke-width="2.5" stroke-linejoin="round" paint-order="stroke" text-anchor="middle" dominant-baseline="central" filter="url(#b13tf)">PLAY</text>
      
      
      
    </g>
    <g id="b13_gloss" opacity="1.00" clip-path="url(#b13fc)"><path d="M 60 44 H 431.158272 V 114.1 Q 245.6 160.9 60 114.1 Z" fill="url(#b13gl)"/></g>
    <g id="b13_specular" opacity="1.00" clip-path="url(#b13fc)"><g transform="rotate(0.0 294.0 57.8)" opacity="0.38">
        <rect x="243.0" y="53.8" width="70.4" height="8.1" rx="4.0" fill="#ffffff"/>
        <rect x="345.1" y="53.8" width="21.1" height="8.1" rx="4.0" fill="#ffffff"/>
      </g></g>
    </g>
  </g>
</g>
</svg>