<svg xmlns="http://www.w3.org/2000/svg" width="718.198272" height="508" viewBox="-90 -90 718.198272 508" font-family="'Russo One', Inter, sans-serif" data-shell="52.0 74.0 434.2 168.0" role="img" aria-label="PLAY, default state">
<defs>
  <linearGradient id="b22band" x1="0.500" y1="1.000" x2="0.500" y2="0.000">
    <stop offset="0" stop-color="#378d73"/>
    <stop offset=".5" stop-color="#4ecaa4"/>
    <stop offset="1" stop-color="#9ee2cd"/>
  </linearGradient>
  <linearGradient id="b22ext" x1="1" y1="0.5" x2="0" y2="0.5">
    <stop offset="0" stop-color="#3c846e"/>
    <stop offset="0.55" stop-color="#307c65"/>
    <stop offset="1" stop-color="#2e7660"/>
  </linearGradient>
  <linearGradient id="b22extv" x1="0" y1="0" x2="0" y2="1">
    <stop offset="0.5" stop-color="#16382d" stop-opacity="0"/>
    <stop offset="1" stop-color="#16382d" stop-opacity="0.38"/>
  </linearGradient>
  <radialGradient id="b22ct">
    <stop offset="0" stop-color="#14563F" stop-opacity="1"/>
    <stop offset="1" stop-color="#14563F" stop-opacity="0"/>
  </radialGradient>
  <clipPath id="b22ec"><path d="M 124.24000000000001 36 H 204.0 Q 269.1 52.8 334.2 36 H 413.95827199999997 A 72.24000000000001 72.24000000000001 0 0 1 486.198272 108.24000000000001 V 131.76 A 72.24000000000001 72.24000000000001 0 0 1 413.95827199999997 204 H 334.2 Q 269.1 187.2 204.0 204.0 H 124.24000000000001 A 72.24000000000001 72.24000000000001 0 0 1 52 131.76 V 108.24000000000001 A 72.24000000000001 72.24000000000001 0 0 1 124.24000000000001 36 Z" transform="translate(0 10.0)"/></clipPath>
  <radialGradient id="b22eg"><stop offset="0" stop-color="#d1ffec" stop-opacity="1"/><stop offset="1" stop-color="#d1ffec" stop-opacity="0"/></radialGradient>
  <pattern id="b22pt" width="44.0" height="44.0" patternUnits="userSpaceOnUse" patternTransform="rotate(0)"><circle cx="22.0" cy="22.0" r="9.7" fill="#6ab99f"/></pattern>
  <linearGradient id="b22rim" x1="0.500" y1="1.000" x2="0.500" y2="0.000">
    <stop offset="0" stop-color="#ffffff" stop-opacity="0.45"/>
    <stop offset=".4" stop-color="#ffffff" stop-opacity="0.08"/>
    <stop offset="1" stop-color="#ffffff" stop-opacity="0.95"/>
  </linearGradient>
  <linearGradient id="b22face" x1="0.500" y1="1.000" x2="0.500" y2="0.000">
    <stop offset="0" stop-color="#62aa92"/>
    <stop offset="0.50" stop-color="#85e7c7"/>
    <stop offset="1" stop-color="#adefd9"/>
  </linearGradient>
  <linearGradient id="b22ie" x1="0.500" y1="1.000" x2="0.500" y2="0.000">
    <stop offset="0" stop-color="rgba(200,244,230,0.55)"/>
    <stop offset=".55" stop-color="rgba(51,131,107,0.35)"/>
    <stop offset="1" stop-color="rgba(33,85,69,0.90)"/>
  </linearGradient>
  <linearGradient id="b22ig" x1="0.500" y1="1.000" x2="0.500" y2="0.000">
    <stop offset="0" stop-color="#d1ffec" stop-opacity="0.55"/>
    <stop offset="0.55" stop-color="#d1ffec" stop-opacity="0"/>
  </linearGradient>
  <linearGradient id="b22gl" x1="0" y1="0" x2="0" y2="1">
    <stop offset="0" stop-color="#3d97b6" stop-opacity="0.78"/>
    <stop offset="0.74" stop-color="#9fd1e2" stop-opacity="0.67"/>
    <stop offset="1" stop-color="#e1f7ff" stop-opacity="0.41"/>
  </linearGradient>
  <radialGradient id="b22sp">
    <stop offset="0" stop-color="#ffffff" stop-opacity="1"/>
    <stop offset="0.53" stop-color="#ffffff" stop-opacity="1"/>
    <stop offset="0.76" stop-color="#ffffff" stop-opacity="0.39"/>
    <stop offset="1" stop-color="#ffffff" stop-opacity="0"/>
  </radialGradient>
  
  <radialGradient id="b22bl">
    <stop offset="0" stop-color="#ffffff" stop-opacity="1"/>
    <stop offset="1" stop-color="#ffffff" stop-opacity="0"/>
  </radialGradient>
  <linearGradient id="b22tg" x1="0" y1="0" x2="0" y2="1"><stop offset="0" stop-color="#0db9c5"/><stop offset="1" stop-color="#1b9bc5"/></linearGradient>
  
  
  
  
  <filter id="b22tf" x="-70%" y="-70%" width="240%" height="240%" color-interpolation-filters="sRGB"><feDropShadow dx="-0.0" dy="4.5" stdDeviation="0.3" flood-color="#FFFFFF" flood-opacity="0.52"/><feDropShadow dx="0.0" dy="-4.5" stdDeviation="0.3" flood-color="#04080E" flood-opacity="0.44"/><feDropShadow dx="0.0" dy="5.7" stdDeviation="1.4" flood-color="#1a4c3c" flood-opacity="0.45"/><feDropShadow dx="0" dy="0" stdDeviation="4.5" flood-color="#CFFFEB" flood-opacity="1.00"/><feDropShadow dx="0" dy="0" stdDeviation="12.0" flood-color="#CFFFEB" flood-opacity="0.60"/></filter>
  <clipPath id="b22fc"><path d="M 121.9256 47 H 207.3 Q 269.1 61.6 330.9 47 H 416.27267199999994 A 58.92560000000001 58.92560000000001 0 0 1 475.198272 105.9256 V 134.0744 A 58.92560000000001 58.92560000000001 0 0 1 416.27267199999994 193 H 330.9 Q 269.1 178.4 207.3 193.0 H 121.9256 A 58.92560000000001 58.92560000000001 0 0 1 63 134.0744 V 105.9256 A 58.92560000000001 58.92560000000001 0 0 1 121.9256 47 Z"/></clipPath>
  <clipPath id="b22oc"><path d="M 124.24000000000001 36 H 204.0 Q 269.1 52.8 334.2 36 H 413.95827199999997 A 72.24000000000001 72.24000000000001 0 0 1 486.198272 108.24000000000001 V 131.76 A 72.24000000000001 72.24000000000001 0 0 1 413.95827199999997 204 H 334.2 Q 269.1 187.2 204.0 204.0 H 124.24000000000001 A 72.24000000000001 72.24000000000001 0 0 1 52 131.76 V 108.24000000000001 A 72.24000000000001 72.24000000000001 0 0 1 124.24000000000001 36 Z"/></clipPath>
  <filter id="b22sb" x="-40%" y="-40%" width="180%" height="180%"><feGaussianBlur stdDeviation="7.0"/></filter>
  
  <filter id="b22nz" x="-5%" y="-5%" width="110%" height="110%"><feTurbulence type="fractalNoise" baseFrequency="1.05" numOctaves="2" seed="7" stitchTiles="stitch"/><feColorMatrix type="saturate" values="0"/><feComponentTransfer><feFuncR type="linear" slope="2.6" intercept="-0.8"/><feFuncG type="linear" slope="2.6" intercept="-0.8"/><feFuncB type="linear" slope="2.6" intercept="-0.8"/></feComponentTransfer></filter>
</defs>
<g opacity="1.00" transform="translate(0 38.0)">
  <g id="b22_cast-shadow"><path d="M 124.24000000000001 36 H 204.0 Q 269.1 52.8 334.2 36 H 413.95827199999997 A 72.24000000000001 72.24000000000001 0 0 1 486.198272 108.24000000000001 V 131.76 A 72.24000000000001 72.24000000000001 0 0 1 413.95827199999997 204 H 334.2 Q 269.1 187.2 204.0 204.0 H 124.24000000000001 A 72.24000000000001 72.24000000000001 0 0 1 52 131.76 V 108.24000000000001 A 72.24000000000001 72.24000000000001 0 0 1 124.24000000000001 36 Z" transform="translate(-0.0 38.0)" fill="#14563F" opacity="0.40" filter="url(#b22sb)"/></g>
  <g id="b22_contact-shadow"><ellipse cx="269.1" cy="215.5" rx="204.1" ry="7.7" fill="url(#b22ct)" opacity="0.32"/></g>
  
  <g transform="translate(0 0)">
    <g id="b22_extrusion"><g>
        <path d="M 124.24000000000001 36 H 204.0 Q 269.1 52.8 334.2 36 H 413.95827199999997 A 72.24000000000001 72.24000000000001 0 0 1 486.198272 108.24000000000001 V 131.76 A 72.24000000000001 72.24000000000001 0 0 1 413.95827199999997 204 H 334.2 Q 269.1 187.2 204.0 204.0 H 124.24000000000001 A 72.24000000000001 72.24000000000001 0 0 1 52 131.76 V 108.24000000000001 A 72.24000000000001 72.24000000000001 0 0 1 124.24000000000001 36 Z" transform="translate(0 2.5)" fill="url(#b22ext)"/><path d="M 124.24000000000001 36 H 204.0 Q 269.1 52.8 334.2 36 H 413.95827199999997 A 72.24000000000001 72.24000000000001 0 0 1 486.198272 108.24000000000001 V 131.76 A 72.24000000000001 72.24000000000001 0 0 1 413.95827199999997 204 H 334.2 Q 269.1 187.2 204.0 204.0 H 124.24000000000001 A 72.24000000000001 72.24000000000001 0 0 1 52 131.76 V 108.24000000000001 A 72.24000000000001 72.24000000000001 0 0 1 124.24000000000001 36 Z" transform="translate(0 5.0)" fill="url(#b22ext)"/><path d="M 124.24000000000001 36 H 204.0 Q 269.1 52.8 334.2 36 H 413.95827199999997 A 72.24000000000001 72.24000000000001 0 0 1 486.198272 108.24000000000001 V 131.76 A 72.24000000000001 72.24000000000001 0 0 1 413.95827199999997 204 H 334.2 Q 269.1 187.2 204.0 204.0 H 124.24000000000001 A 72.24000000000001 72.24000000000001 0 0 1 52 131.76 V 108.24000000000001 A 72.24000000000001 72.24000000000001 0 0 1 124.24000000000001 36 Z" transform="translate(0 7.5)" fill="url(#b22ext)"/><path d="M 124.24000000000001 36 H 204.0 Q 269.1 52.8 334.2 36 H 413.95827199999997 A 72.24000000000001 72.24000000000001 0 0 1 486.198272 108.24000000000001 V 131.76 A 72.24000000000001 72.24000000000001 0 0 1 413.95827199999997 204 H 334.2 Q 269.1 187.2 204.0 204.0 H 124.24000000000001 A 72.24000000000001 72.24000000000001 0 0 1 52 131.76 V 108.24000000000001 A 72.24000000000001 72.24000000000001 0 0 1 124.24000000000001 36 Z" transform="translate(0 10.0)" fill="url(#b22ext)" stroke="#1f5142" stroke-width="1"/>
        <path d="M 124.24000000000001 36 H 204.0 Q 269.1 52.8 334.2 36 H 413.95827199999997 A 72.24000000000001 72.24000000000001 0 0 1 486.198272 108.24000000000001 V 131.76 A 72.24000000000001 72.24000000000001 0 0 1 413.95827199999997 204 H 334.2 Q 269.1 187.2 204.0 204.0 H 124.24000000000001 A 72.24000000000001 72.24000000000001 0 0 1 52 131.76 V 108.24000000000001 A 72.24000000000001 72.24000000000001 0 0 1 124.24000000000001 36 Z" transform="translate(0 10.0)" fill="url(#b22extv)"/>
        <g clip-path="url(#b22ec)"><ellipse cx="269.1" cy="208.5" rx="138.9" ry="11.0" fill="url(#b22eg)" opacity="0.69"/></g>
        <path d="M 124.24000000000001 36 H 204.0 Q 269.1 52.8 334.2 36 H 413.95827199999997 A 72.24000000000001 72.24000000000001 0 0 1 486.198272 108.24000000000001 V 131.76 A 72.24000000000001 72.24000000000001 0 0 1 413.95827199999997 204 H 334.2 Q 269.1 187.2 204.0 204.0 H 124.24000000000001 A 72.24000000000001 72.24000000000001 0 0 1 52 131.76 V 108.24000000000001 A 72.24000000000001 72.24000000000001 0 0 1 124.24000000000001 36 Z" transform="translate(0 9.2)" fill="none" stroke="#7faea0" stroke-width="1.2" opacity="0.45"/>
      </g></g>
    <g id="b22_shell" opacity="1.00">
      <path d="M 124.24000000000001 36 H 204.0 Q 269.1 52.8 334.2 36 H 413.95827199999997 A 72.24000000000001 72.24000000000001 0 0 1 486.198272 108.24000000000001 V 131.76 A 72.24000000000001 72.24000000000001 0 0 1 413.95827199999997 204 H 334.2 Q 269.1 187.2 204.0 204.0 H 124.24000000000001 A 72.24000000000001 72.24000000000001 0 0 1 52 131.76 V 108.24000000000001 A 72.24000000000001 72.24000000000001 0 0 1 124.24000000000001 36 Z" fill="url(#b22band)" stroke="#276552" stroke-width="1.5"/>
      <path d="M 124.56200000000001 38.3 H 204.7 Q 269.1 54.6 333.5 38.3 H 413.63627199999996 A 70.26200000000001 70.26200000000001 0 0 1 483.89827199999996 108.56200000000001 V 131.438 A 70.26200000000001 70.26200000000001 0 0 1 413.63627199999996 201.7 H 333.5 Q 269.1 185.4 204.7 201.7 H 124.56200000000001 A 70.26200000000001 70.26200000000001 0 0 1 54.3 131.438 V 108.56200000000001 A 70.26200000000001 70.26200000000001 0 0 1 124.56200000000001 38.3 Z" fill="none" stroke="url(#b22rim)" stroke-width="3.0" opacity="0.80"/>
      
    </g>
    <g data-oclip="1" clip-path="url(#b22oc)">
    <g id="b22_face" opacity="1.00">
      <path d="M 121.9256 47 H 207.3 Q 269.1 61.6 330.9 47 H 416.27267199999994 A 58.92560000000001 58.92560000000001 0 0 1 475.198272 105.9256 V 134.0744 A 58.92560000000001 58.92560000000001 0 0 1 416.27267199999994 193 H 330.9 Q 269.1 178.4 207.3 193.0 H 121.9256 A 58.92560000000001 58.92560000000001 0 0 1 63 134.0744 V 105.9256 A 58.92560000000001 58.92560000000001 0 0 1 121.9256 47 Z" fill="url(#b22face)"/>
      <g clip-path="url(#b22fc)">
        <rect x="43" y="27" width="452.198272" height="186" fill="url(#b22pt)" opacity="0.22"/>
        <path d="M 121.9256 47 H 207.3 Q 269.1 61.6 330.9 47 H 416.27267199999994 A 58.92560000000001 58.92560000000001 0 0 1 475.198272 105.9256 V 134.0744 A 58.92560000000001 58.92560000000001 0 0 1 416.27267199999994 193 H 330.9 Q 269.1 178.4 207.3 193.0 H 121.9256 A 58.92560000000001 58.92560000000001 0 0 1 63 134.0744 V 105.9256 A 58.92560000000001 58.92560000000001 0 0 1 121.9256 47 Z" fill="url(#b22ig)"/>
        <ellipse cx="269.1" cy="163.8" rx="125.1" ry="25.1" fill="url(#b22bl)" opacity="0.56"/>
        
        <rect x="63" y="47" width="412.198272" height="146" filter="url(#b22nz)" opacity="0.15" style="mix-blend-mode:overlay"/>
      </g>
      <path d="M 121.9256 47 H 207.3 Q 269.1 61.6 330.9 47 H 416.27267199999994 A 58.92560000000001 58.92560000000001 0 0 1 475.198272 105.9256 V 134.0744 A 58.92560000000001 58.92560000000001 0 0 1 416.27267199999994 193 H 330.9 Q 269.1 178.4 207.3 193.0 H 121.9256 A 58.92560000000001 58.92560000000001 0 0 1 63 134.0744 V 105.9256 A 58.92560000000001 58.92560000000001 0 0 1 121.9256 47 Z" fill="none" stroke="url(#b22ie)" stroke-width="3.0" opacity="0.45"/>
    </g>
    <g id="b22_content" opacity="1.00">
      
      <text x="261.1" y="121.0" font-size="76.0" font-weight="700" font-style="italic" letter-spacing="0.020em" fill="url(#b22tg)" stroke="url(#b22tg)" stroke-width="2.5" stroke-linejoin="round" paint-order="stroke" text-anchor="middle" dominant-baseline="central" filter="url(#b22tf)">PLAY</text>
      
      
      
    </g>
    <g id="b22_gloss" opacity="1.00" clip-path="url(#b22fc)"><path d="M 61 45 H 477.198272 V 125.8 Q 269.1 194.2 61 125.8 Z" fill="url(#b22gl)"/></g>
    <g id="b22_specular" opacity="1.00" clip-path="url(#b22fc)"><g transform="rotate(0.0 323.5 58.7)"><ellipse cx="323.5" cy="58.7" rx="26.0" ry="2.6" fill="url(#b22sp)" opacity="0.68"/><ellipse cx="183.1" cy="75.8" rx="10.9" ry="1.3" fill="url(#b22sp)" opacity="0.54"/></g></g>
    </g>
  </g>
</g>
</svg>