<svg xmlns="http://www.w3.org/2000/svg" width="765.2382719999999" height="508" viewBox="-90 -90 765.2382719999999 508" font-family="'Russo One', Inter, sans-serif" data-shell="52.0 72.0 481.2 168.0" role="img" aria-label="PLAY, default state">
<defs>
  <linearGradient id="b23band" x1="0.500" y1="1.000" x2="0.500" y2="0.000">
    <stop offset="0" stop-color="#811550"/>
    <stop offset=".5" stop-color="#b81e72"/>
    <stop offset="1" stop-color="#d883b1"/>
  </linearGradient>
  <linearGradient id="b23ext" x1="1" y1="0.5" x2="0" y2="0.5">
    <stop offset="0" stop-color="#74204d"/>
    <stop offset="0.55" stop-color="#6b1242"/>
    <stop offset="1" stop-color="#66113f"/>
  </linearGradient>
  <linearGradient id="b23extv" x1="0" y1="0" x2="0" y2="1">
    <stop offset="0.5" stop-color="#30081e" stop-opacity="0"/>
    <stop offset="1" stop-color="#30081e" stop-opacity="0.38"/>
  </linearGradient>
  <radialGradient id="b23ct">
    <stop offset="0" stop-color="#3D0430" stop-opacity="1"/>
    <stop offset="1" stop-color="#3D0430" stop-opacity="0"/>
  </radialGradient>
  <clipPath id="b23ec"><path d="M 111.3 38.1 Q 114.6 36.0 118.5 36.0 L 466.8 36.0 Q 470.7 36.0 474.0 38.1 L 530.0 74.2 Q 533.2 76.3 531.2 79.7 L 509.0 116.7 Q 507.0 120.0 509.0 123.3 L 531.2 160.3 Q 533.2 163.7 530.0 165.8 L 474.0 201.9 Q 470.7 204.0 466.8 204.0 L 118.5 204.0 Q 114.6 204.0 111.3 201.9 L 55.3 165.8 Q 52.0 163.7 54.0 160.3 L 76.3 123.3 Q 78.3 120.0 76.3 116.7 L 54.0 79.7 Q 52.0 76.3 55.3 74.2 Z" transform="translate(0 12.0)"/></clipPath>
  <radialGradient id="b23eg"><stop offset="0" stop-color="#ff48cb" stop-opacity="1"/><stop offset="1" stop-color="#ff48cb" stop-opacity="0"/></radialGradient>
  <pattern id="b23pt" width="38.6" height="38.6" patternUnits="userSpaceOnUse" patternTransform="rotate(65)"><rect width="19.3" height="38.6" fill="#1f162d"/></pattern>
  <linearGradient id="b23rim" x1="0.500" y1="1.000" x2="0.500" y2="0.000">
    <stop offset="0" stop-color="#ffeaf7" stop-opacity="0.45"/>
    <stop offset=".4" stop-color="#ffeaf7" stop-opacity="0.08"/>
    <stop offset="1" stop-color="#ffeaf7" stop-opacity="0.95"/>
  </linearGradient>
  <linearGradient id="b23face" x1="0.500" y1="1.000" x2="0.500" y2="0.000">
    <stop offset="0" stop-color="#1d1429"/>
    <stop offset="0.50" stop-color="#271b38"/>
    <stop offset="1" stop-color="#6e667a"/>
  </linearGradient>
  <linearGradient id="b23ie" x1="0.500" y1="1.000" x2="0.500" y2="0.000">
    <stop offset="0" stop-color="rgba(158,152,165,0.55)"/>
    <stop offset=".55" stop-color="rgba(120,20,74,0.35)"/>
    <stop offset="1" stop-color="rgba(77,13,48,0.90)"/>
  </linearGradient>
  <linearGradient id="b23ig" x1="0.500" y1="1.000" x2="0.500" y2="0.000">
    <stop offset="0" stop-color="#ff48cb" stop-opacity="0.78"/>
    <stop offset="0.48" stop-color="#ff48cb" stop-opacity="0"/>
  </linearGradient>
  <linearGradient id="b23gl" x1="0" y1="0" x2="0" y2="1">
    <stop offset="0" stop-color="#3d97b6" stop-opacity="0.40"/>
    <stop offset="0.89" stop-color="#9fd1e2" stop-opacity="0.38"/>
    <stop offset="1" stop-color="#e1f7ff" stop-opacity="0.32"/>
  </linearGradient>
  <radialGradient id="b23sp">
    <stop offset="0" stop-color="#ffeaf7" stop-opacity="1"/>
    <stop offset="0.85" stop-color="#ffeaf7" stop-opacity="1"/>
    <stop offset="0.92" stop-color="#ffeaf7" stop-opacity="0.50"/>
    <stop offset="1" stop-color="#ffeaf7" stop-opacity="0"/>
  </radialGradient>
  
  <radialGradient id="b23bl">
    <stop offset="0" stop-color="#ffeaf7" stop-opacity="1"/>
    <stop offset="1" stop-color="#ffeaf7" stop-opacity="0"/>
  </radialGradient>
  <linearGradient id="b23tg" x1="0" y1="0" x2="0" y2="1"><stop offset="0" stop-color="#0db9c5"/><stop offset="1" stop-color="#1b9bc5"/></linearGradient>
  
  
  
  
  <filter id="b23tf" x="-70%" y="-70%" width="240%" height="240%" color-interpolation-filters="sRGB"><feDropShadow dx="-0.0" dy="4.5" stdDeviation="0.3" flood-color="#FFFFFF" flood-opacity="0.52"/><feDropShadow dx="0.0" dy="-4.5" stdDeviation="0.3" flood-color="#04080E" flood-opacity="0.44"/><feDropShadow dx="0.0" dy="5.7" stdDeviation="1.4" flood-color="#440729" flood-opacity="0.45"/><feDropShadow dx="0" dy="0" stdDeviation="4.5" flood-color="#FF3EC8" flood-opacity="1.00"/><feDropShadow dx="0" dy="0" stdDeviation="12.0" flood-color="#FF3EC8" flood-opacity="0.60"/></filter>
  <clipPath id="b23fc"><path d="M 466.1 46.2 L 517.8 78.5 L 496.7 120.1 L 518.4 160.5 L 464 194 L 115.7 192.7 L 66.8 160.8 L 88.7 119.9 L 66.6 80.4 L 121.4 46 Z"/></clipPath>
  <clipPath id="b23oc"><path d="M 111.3 38.1 Q 114.6 36.0 118.5 36.0 L 466.8 36.0 Q 470.7 36.0 474.0 38.1 L 530.0 74.2 Q 533.2 76.3 531.2 79.7 L 509.0 116.7 Q 507.0 120.0 509.0 123.3 L 531.2 160.3 Q 533.2 163.7 530.0 165.8 L 474.0 201.9 Q 470.7 204.0 466.8 204.0 L 118.5 204.0 Q 114.6 204.0 111.3 201.9 L 55.3 165.8 Q 52.0 163.7 54.0 160.3 L 76.3 123.3 Q 78.3 120.0 76.3 116.7 L 54.0 79.7 Q 52.0 76.3 55.3 74.2 Z"/></clipPath>
  <filter id="b23sb" x="-40%" y="-40%" width="180%" height="180%"><feGaussianBlur stdDeviation="7.0"/></filter>
  
  <filter id="b23nz" x="-5%" y="-5%" width="110%" height="110%"><feTurbulence type="fractalNoise" baseFrequency="1.05" numOctaves="2" seed="7" stitchTiles="stitch"/><feColorMatrix type="saturate" values="0"/><feComponentTransfer><feFuncR type="linear" slope="2.6" intercept="-0.8"/><feFuncG type="linear" slope="2.6" intercept="-0.8"/><feFuncB type="linear" slope="2.6" intercept="-0.8"/></feComponentTransfer></filter>
</defs>
<g opacity="1.00" transform="translate(0 36.0)">
  <g id="b23_cast-shadow"><path d="M 111.3 38.1 Q 114.6 36.0 118.5 36.0 L 466.8 36.0 Q 470.7 36.0 474.0 38.1 L 530.0 74.2 Q 533.2 76.3 531.2 79.7 L 509.0 116.7 Q 507.0 120.0 509.0 123.3 L 531.2 160.3 Q 533.2 163.7 530.0 165.8 L 474.0 201.9 Q 470.7 204.0 466.8 204.0 L 118.5 204.0 Q 114.6 204.0 111.3 201.9 L 55.3 165.8 Q 52.0 163.7 54.0 160.3 L 76.3 123.3 Q 78.3 120.0 76.3 116.7 L 54.0 79.7 Q 52.0 76.3 55.3 74.2 Z" transform="translate(-0.0 40.0)" fill="#3D0430" opacity="0.40" filter="url(#b23sb)"/></g>
  <g id="b23_contact-shadow"><ellipse cx="292.6" cy="217.5" rx="226.2" ry="8.1" fill="url(#b23ct)" opacity="0.32"/></g>
  
  <g transform="translate(0 0)">
    <g id="b23_extrusion"><g>
        <path d="M 111.3 38.1 Q 114.6 36.0 118.5 36.0 L 466.8 36.0 Q 470.7 36.0 474.0 38.1 L 530.0 74.2 Q 533.2 76.3 531.2 79.7 L 509.0 116.7 Q 507.0 120.0 509.0 123.3 L 531.2 160.3 Q 533.2 163.7 530.0 165.8 L 474.0 201.9 Q 470.7 204.0 466.8 204.0 L 118.5 204.0 Q 114.6 204.0 111.3 201.9 L 55.3 165.8 Q 52.0 163.7 54.0 160.3 L 76.3 123.3 Q 78.3 120.0 76.3 116.7 L 54.0 79.7 Q 52.0 76.3 55.3 74.2 Z" transform="translate(0 2.4)" fill="url(#b23ext)"/><path d="M 111.3 38.1 Q 114.6 36.0 118.5 36.0 L 466.8 36.0 Q 470.7 36.0 474.0 38.1 L 530.0 74.2 Q 533.2 76.3 531.2 79.7 L 509.0 116.7 Q 507.0 120.0 509.0 123.3 L 531.2 160.3 Q 533.2 163.7 530.0 165.8 L 474.0 201.9 Q 470.7 204.0 466.8 204.0 L 118.5 204.0 Q 114.6 204.0 111.3 201.9 L 55.3 165.8 Q 52.0 163.7 54.0 160.3 L 76.3 123.3 Q 78.3 120.0 76.3 116.7 L 54.0 79.7 Q 52.0 76.3 55.3 74.2 Z" transform="translate(0 4.8)" fill="url(#b23ext)"/><path d="M 111.3 38.1 Q 114.6 36.0 118.5 36.0 L 466.8 36.0 Q 470.7 36.0 474.0 38.1 L 530.0 74.2 Q 533.2 76.3 531.2 79.7 L 509.0 116.7 Q 507.0 120.0 509.0 123.3 L 531.2 160.3 Q 533.2 163.7 530.0 165.8 L 474.0 201.9 Q 470.7 204.0 466.8 204.0 L 118.5 204.0 Q 114.6 204.0 111.3 201.9 L 55.3 165.8 Q 52.0 163.7 54.0 160.3 L 76.3 123.3 Q 78.3 120.0 76.3 116.7 L 54.0 79.7 Q 52.0 76.3 55.3 74.2 Z" transform="translate(0 7.2)" fill="url(#b23ext)"/><path d="M 111.3 38.1 Q 114.6 36.0 118.5 36.0 L 466.8 36.0 Q 470.7 36.0 474.0 38.1 L 530.0 74.2 Q 533.2 76.3 531.2 79.7 L 509.0 116.7 Q 507.0 120.0 509.0 123.3 L 531.2 160.3 Q 533.2 163.7 530.0 165.8 L 474.0 201.9 Q 470.7 204.0 466.8 204.0 L 118.5 204.0 Q 114.6 204.0 111.3 201.9 L 55.3 165.8 Q 52.0 163.7 54.0 160.3 L 76.3 123.3 Q 78.3 120.0 76.3 116.7 L 54.0 79.7 Q 52.0 76.3 55.3 74.2 Z" transform="translate(0 9.6)" fill="url(#b23ext)"/><path d="M 111.3 38.1 Q 114.6 36.0 118.5 36.0 L 466.8 36.0 Q 470.7 36.0 474.0 38.1 L 530.0 74.2 Q 533.2 76.3 531.2 79.7 L 509.0 116.7 Q 507.0 120.0 509.0 123.3 L 531.2 160.3 Q 533.2 163.7 530.0 165.8 L 474.0 201.9 Q 470.7 204.0 466.8 204.0 L 118.5 204.0 Q 114.6 204.0 111.3 201.9 L 55.3 165.8 Q 52.0 163.7 54.0 160.3 L 76.3 123.3 Q 78.3 120.0 76.3 116.7 L 54.0 79.7 Q 52.0 76.3 55.3 74.2 Z" transform="translate(0 12.0)" fill="url(#b23ext)" stroke="#460c2b" stroke-width="1"/>
        <path d="M 111.3 38.1 Q 114.6 36.0 118.5 36.0 L 466.8 36.0 Q 470.7 36.0 474.0 38.1 L 530.0 74.2 Q 533.2 76.3 531.2 79.7 L 509.0 116.7 Q 507.0 120.0 509.0 123.3 L 531.2 160.3 Q 533.2 163.7 530.0 165.8 L 474.0 201.9 Q 470.7 204.0 466.8 204.0 L 118.5 204.0 Q 114.6 204.0 111.3 201.9 L 55.3 165.8 Q 52.0 163.7 54.0 160.3 L 76.3 123.3 Q 78.3 120.0 76.3 116.7 L 54.0 79.7 Q 52.0 76.3 55.3 74.2 Z" transform="translate(0 12.0)" fill="url(#b23extv)"/>
        <g clip-path="url(#b23ec)"><ellipse cx="292.6" cy="209.4" rx="154.0" ry="13.2" fill="url(#b23eg)" opacity="0.69"/></g>
        <path d="M 111.3 38.1 Q 114.6 36.0 118.5 36.0 L 466.8 36.0 Q 470.7 36.0 474.0 38.1 L 530.0 74.2 Q 533.2 76.3 531.2 79.7 L 509.0 116.7 Q 507.0 120.0 509.0 123.3 L 531.2 160.3 Q 533.2 163.7 530.0 165.8 L 474.0 201.9 Q 470.7 204.0 466.8 204.0 L 118.5 204.0 Q 114.6 204.0 111.3 201.9 L 55.3 165.8 Q 52.0 163.7 54.0 160.3 L 76.3 123.3 Q 78.3 120.0 76.3 116.7 L 54.0 79.7 Q 52.0 76.3 55.3 74.2 Z" transform="translate(0 11.2)" fill="none" stroke="#a36c8a" stroke-width="1.2" opacity="0.45"/>
      </g></g>
    <g id="b23_shell" opacity="1.00">
      <path d="M 111.3 38.1 Q 114.6 36.0 118.5 36.0 L 466.8 36.0 Q 470.7 36.0 474.0 38.1 L 530.0 74.2 Q 533.2 76.3 531.2 79.7 L 509.0 116.7 Q 507.0 120.0 509.0 123.3 L 531.2 160.3 Q 533.2 163.7 530.0 165.8 L 474.0 201.9 Q 470.7 204.0 466.8 204.0 L 118.5 204.0 Q 114.6 204.0 111.3 201.9 L 55.3 165.8 Q 52.0 163.7 54.0 160.3 L 76.3 123.3 Q 78.3 120.0 76.3 116.7 L 54.0 79.7 Q 52.0 76.3 55.3 74.2 Z" fill="url(#b23band)" stroke="#5c0f39" stroke-width="1.5"/>
      <path d="M 468.6 38.5 L 473 40.2 L 529.5 77.1 L 529.3 78.4 L 506.9 115.8 L 505.6 120 L 506.9 124.2 L 529.2 161.5 L 529.3 162.9 L 473 199.8 L 466.5 201.7 L 118.8 201.7 L 113.7 200.6 L 56 162.9 L 56 161.5 L 78.4 124.2 L 79.7 120 L 78.7 116.3 L 56.1 78.8 L 55.8 77.5 L 56.9 75.9 L 112.3 40.2 L 118.8 38.3 Z" fill="none" stroke="url(#b23rim)" stroke-width="3.0" opacity="0.80"/>
      
    </g>
    <g data-oclip="1" clip-path="url(#b23oc)">
    <g id="b23_face" opacity="1.00">
      <path d="M 466.1 46.2 L 517.8 78.5 L 496.7 120.1 L 518.4 160.5 L 464 194 L 115.7 192.7 L 66.8 160.8 L 88.7 119.9 L 66.6 80.4 L 121.4 46 Z" fill="url(#b23face)"/>
      <g clip-path="url(#b23fc)">
        <rect x="42" y="26" width="501.23827199999994" height="188" fill="url(#b23pt)" opacity="0.26"/>
        <path d="M 466.1 46.2 L 517.8 78.5 L 496.7 120.1 L 518.4 160.5 L 464 194 L 115.7 192.7 L 66.8 160.8 L 88.7 119.9 L 66.6 80.4 L 121.4 46 Z" fill="url(#b23ig)"/>
        <ellipse cx="292.6" cy="164.4" rx="148.5" ry="26.9" fill="url(#b23bl)" opacity="0.55"/>
        
        <rect x="62" y="46" width="461.23827199999994" height="148" filter="url(#b23nz)" opacity="0.15" style="mix-blend-mode:overlay"/>
      </g>
      <path d="M 466.1 46.2 L 517.8 78.5 L 496.7 120.1 L 518.4 160.5 L 464 194 L 115.7 192.7 L 66.8 160.8 L 88.7 119.9 L 66.6 80.4 L 121.4 46 Z" fill="none" stroke="url(#b23ie)" stroke-width="3.0" opacity="0.45"/>
    </g>
    <g id="b23_content" opacity="1.00">
      
      <text x="284.6" y="121.0" font-size="76.0" font-weight="700" font-style="italic" letter-spacing="0.020em" fill="url(#b23tg)" stroke="url(#b23tg)" stroke-width="2.5" stroke-linejoin="round" paint-order="stroke" text-anchor="middle" dominant-baseline="central" filter="url(#b23tf)">PLAY</text>
      
      
      
    </g>
    <g id="b23_gloss" opacity="1.00" clip-path="url(#b23fc)"><path d="M 60 44 H 525.2382719999999 V 96.3 Q 292.6 117.9 60 96.3 Z" fill="url(#b23gl)"/></g>
    <g id="b23_specular" opacity="1.00" clip-path="url(#b23fc)"><g transform="rotate(0.0 353.5 57.8)"><ellipse cx="353.5" cy="57.8" rx="126.0" ry="3.6" fill="url(#b23sp)" opacity="0.60"/></g></g>
    </g>
  </g>
</g>
</svg>