<svg xmlns="http://www.w3.org/2000/svg" width="658.278272" height="508" viewBox="-90 -90 658.278272 508" font-family="'Russo One', Inter, sans-serif" data-shell="52.0 72.0 374.3 168.0" role="img" aria-label="PLAY, default state">
<defs>
  <linearGradient id="b12band" x1="0.500" y1="1.000" x2="0.500" y2="0.000">
    <stop offset="0" stop-color="#993026"/>
    <stop offset=".5" stop-color="#db4436"/>
    <stop offset="1" stop-color="#eb9890"/>
  </linearGradient>
  <linearGradient id="b12ext" x1="1" y1="0.5" x2="0" y2="0.5">
    <stop offset="0" stop-color="#8b362e"/>
    <stop offset="0.55" stop-color="#842921"/>
    <stop offset="1" stop-color="#7d271f"/>
  </linearGradient>
  <linearGradient id="b12extv" x1="0" y1="0" x2="0" y2="1">
    <stop offset="0.5" stop-color="#3b120f" stop-opacity="0"/>
    <stop offset="1" stop-color="#3b120f" stop-opacity="0.38"/>
  </linearGradient>
  <radialGradient id="b12ct">
    <stop offset="0" stop-color="#66150C" stop-opacity="1"/>
    <stop offset="1" stop-color="#66150C" stop-opacity="0"/>
  </radialGradient>
  <clipPath id="b12ec"><path d="M 66.112 36 H 412.166272 A 14.112 14.112 0 0 1 426.278272 50.112 V 189.888 A 14.112 14.112 0 0 1 412.166272 204 H 66.112 A 14.112 14.112 0 0 1 52 189.888 V 50.112 A 14.112 14.112 0 0 1 66.112 36 Z" transform="translate(0 12.0)"/></clipPath>
  <radialGradient id="b12eg"><stop offset="0" stop-color="#ffdbac" stop-opacity="1"/><stop offset="1" stop-color="#ffdbac" stop-opacity="0"/></radialGradient>
  <pattern id="b12pt" width="60.2" height="60.2" patternUnits="userSpaceOnUse" patternTransform="rotate(45)"><rect width="30.1" height="30.1" fill="#c5baa3"/><rect x="30.1" y="30.1" width="30.1" height="30.1" fill="#c5baa3"/></pattern>
  <linearGradient id="b12rim" x1="0.500" y1="1.000" x2="0.500" y2="0.000">
    <stop offset="0" stop-color="#fff6e9" stop-opacity="0.45"/>
    <stop offset=".4" stop-color="#fff6e9" stop-opacity="0.08"/>
    <stop offset="1" stop-color="#fff6e9" stop-opacity="0.95"/>
  </linearGradient>
  <linearGradient id="b12face" x1="0.500" y1="1.000" x2="0.500" y2="0.000">
    <stop offset="0" stop-color="#b5ab96"/>
    <stop offset="0.50" stop-color="#f6e8cc"/>
    <stop offset="1" stop-color="#f9f0dd"/>
  </linearGradient>
  <linearGradient id="b12ie" x1="0.500" y1="1.000" x2="0.500" y2="0.000">
    <stop offset="0" stop-color="rgba(251,245,232,0.55)"/>
    <stop offset=".55" stop-color="rgba(142,44,35,0.35)"/>
    <stop offset="1" stop-color="rgba(92,29,23,0.90)"/>
  </linearGradient>
  <linearGradient id="b12ig" x1="0.500" y1="1.000" x2="0.500" y2="0.000">
    <stop offset="0" stop-color="#ffdbac" stop-opacity="0.55"/>
    <stop offset="0.55" stop-color="#ffdbac" stop-opacity="0"/>
  </linearGradient>
  <linearGradient id="b12gl" x1="0" y1="0" x2="0" y2="1">
    <stop offset="0" stop-color="#3d97b6" stop-opacity="0.66"/>
    <stop offset="0.78" stop-color="#9fd1e2" stop-opacity="0.58"/>
    <stop offset="1" stop-color="#e1f7ff" stop-opacity="0.40"/>
  </linearGradient>
  <radialGradient id="b12sp">
    <stop offset="0" stop-color="#fff6e9" stop-opacity="1"/>
    <stop offset="0.85" stop-color="#fff6e9" stop-opacity="1"/>
    <stop offset="0.92" stop-color="#fff6e9" stop-opacity="0.50"/>
    <stop offset="1" stop-color="#fff6e9" stop-opacity="0"/>
  </radialGradient>
  
  <radialGradient id="b12bl">
    <stop offset="0" stop-color="#fff6e9" stop-opacity="1"/>
    <stop offset="1" stop-color="#fff6e9" stop-opacity="0"/>
  </radialGradient>
  <linearGradient id="b12tg" x1="0" y1="0" x2="0" y2="1"><stop offset="0" stop-color="#0db9c5"/><stop offset="1" stop-color="#1b9bc5"/></linearGradient>
  
  
  
  
  <filter id="b12tf" x="-70%" y="-70%" width="240%" height="240%" color-interpolation-filters="sRGB"><feDropShadow dx="-0.0" dy="4.5" stdDeviation="0.3" flood-color="#FFFFFF" flood-opacity="0.52"/><feDropShadow dx="0.0" dy="-4.5" stdDeviation="0.3" flood-color="#04080E" flood-opacity="0.44"/><feDropShadow dx="0.0" dy="5.7" stdDeviation="1.4" flood-color="#521610" flood-opacity="0.45"/><feDropShadow dx="0" dy="0" stdDeviation="4.5" flood-color="#FFD9A8" flood-opacity="1.00"/><feDropShadow dx="0" dy="0" stdDeviation="12.0" flood-color="#FFD9A8" flood-opacity="0.60"/></filter>
  <clipPath id="b12fc"><path d="M 73.86240000000001 47 H 404.41587200000004 A 10.862400000000001 10.862400000000001 0 0 1 415.278272 57.8624 V 182.1376 A 10.862400000000001 10.862400000000001 0 0 1 404.41587200000004 193 H 73.86240000000001 A 10.862400000000001 10.862400000000001 0 0 1 63 182.1376 V 57.8624 A 10.862400000000001 10.862400000000001 0 0 1 73.86240000000001 47 Z"/></clipPath>
  <clipPath id="b12oc"><path d="M 66.112 36 H 412.166272 A 14.112 14.112 0 0 1 426.278272 50.112 V 189.888 A 14.112 14.112 0 0 1 412.166272 204 H 66.112 A 14.112 14.112 0 0 1 52 189.888 V 50.112 A 14.112 14.112 0 0 1 66.112 36 Z"/></clipPath>
  <filter id="b12sb" x="-40%" y="-40%" width="180%" height="180%"><feGaussianBlur stdDeviation="7.0"/></filter>
  
  <filter id="b12nz" x="-5%" y="-5%" width="110%" height="110%"><feTurbulence type="fractalNoise" baseFrequency="1.05" numOctaves="2" seed="7" stitchTiles="stitch"/><feColorMatrix type="saturate" values="0"/><feComponentTransfer><feFuncR type="linear" slope="2.6" intercept="-0.8"/><feFuncG type="linear" slope="2.6" intercept="-0.8"/><feFuncB type="linear" slope="2.6" intercept="-0.8"/></feComponentTransfer></filter>
</defs>
<g opacity="1.00" transform="translate(0 36.0)">
  <g id="b12_cast-shadow"><path d="M 66.112 36 H 412.166272 A 14.112 14.112 0 0 1 426.278272 50.112 V 189.888 A 14.112 14.112 0 0 1 412.166272 204 H 66.112 A 14.112 14.112 0 0 1 52 189.888 V 50.112 A 14.112 14.112 0 0 1 66.112 36 Z" transform="translate(-0.0 40.0)" fill="#66150C" opacity="0.40" filter="url(#b12sb)"/></g>
  <g id="b12_contact-shadow"><ellipse cx="239.1" cy="217.5" rx="175.9" ry="8.1" fill="url(#b12ct)" opacity="0.32"/></g>
  
  <g transform="translate(0 0)">
    <g id="b12_extrusion"><g>
        <path d="M 66.112 36 H 412.166272 A 14.112 14.112 0 0 1 426.278272 50.112 V 189.888 A 14.112 14.112 0 0 1 412.166272 204 H 66.112 A 14.112 14.112 0 0 1 52 189.888 V 50.112 A 14.112 14.112 0 0 1 66.112 36 Z" transform="translate(0 2.4)" fill="url(#b12ext)"/><path d="M 66.112 36 H 412.166272 A 14.112 14.112 0 0 1 426.278272 50.112 V 189.888 A 14.112 14.112 0 0 1 412.166272 204 H 66.112 A 14.112 14.112 0 0 1 52 189.888 V 50.112 A 14.112 14.112 0 0 1 66.112 36 Z" transform="translate(0 4.8)" fill="url(#b12ext)"/><path d="M 66.112 36 H 412.166272 A 14.112 14.112 0 0 1 426.278272 50.112 V 189.888 A 14.112 14.112 0 0 1 412.166272 204 H 66.112 A 14.112 14.112 0 0 1 52 189.888 V 50.112 A 14.112 14.112 0 0 1 66.112 36 Z" transform="translate(0 7.2)" fill="url(#b12ext)"/><path d="M 66.112 36 H 412.166272 A 14.112 14.112 0 0 1 426.278272 50.112 V 189.888 A 14.112 14.112 0 0 1 412.166272 204 H 66.112 A 14.112 14.112 0 0 1 52 189.888 V 50.112 A 14.112 14.112 0 0 1 66.112 36 Z" transform="translate(0 9.6)" fill="url(#b12ext)"/><path d="M 66.112 36 H 412.166272 A 14.112 14.112 0 0 1 426.278272 50.112 V 189.888 A 14.112 14.112 0 0 1 412.166272 204 H 66.112 A 14.112 14.112 0 0 1 52 189.888 V 50.112 A 14.112 14.112 0 0 1 66.112 36 Z" transform="translate(0 12.0)" fill="url(#b12ext)" stroke="#561b15" stroke-width="1"/>
        <path d="M 66.112 36 H 412.166272 A 14.112 14.112 0 0 1 426.278272 50.112 V 189.888 A 14.112 14.112 0 0 1 412.166272 204 H 66.112 A 14.112 14.112 0 0 1 52 189.888 V 50.112 A 14.112 14.112 0 0 1 66.112 36 Z" transform="translate(0 12.0)" fill="url(#b12extv)"/>
        <g clip-path="url(#b12ec)"><ellipse cx="239.1" cy="209.4" rx="119.8" ry="13.2" fill="url(#b12eg)" opacity="0.69"/></g>
        <path d="M 66.112 36 H 412.166272 A 14.112 14.112 0 0 1 426.278272 50.112 V 189.888 A 14.112 14.112 0 0 1 412.166272 204 H 66.112 A 14.112 14.112 0 0 1 52 189.888 V 50.112 A 14.112 14.112 0 0 1 66.112 36 Z" transform="translate(0 11.2)" fill="none" stroke="#b37a75" stroke-width="1.2" opacity="0.45"/>
      </g></g>
    <g id="b12_shell" opacity="1.00">
      <path d="M 66.112 36 H 412.166272 A 14.112 14.112 0 0 1 426.278272 50.112 V 189.888 A 14.112 14.112 0 0 1 412.166272 204 H 66.112 A 14.112 14.112 0 0 1 52 189.888 V 50.112 A 14.112 14.112 0 0 1 66.112 36 Z" fill="url(#b12band)" stroke="#6e221b" stroke-width="1.5"/>
      <path d="M 68.0256 38.3 H 410.252672 A 13.7256 13.7256 0 0 1 423.978272 52.0256 V 187.9744 A 13.7256 13.7256 0 0 1 410.252672 201.7 H 68.0256 A 13.7256 13.7256 0 0 1 54.3 187.9744 V 52.0256 A 13.7256 13.7256 0 0 1 68.0256 38.3 Z" fill="none" stroke="url(#b12rim)" stroke-width="3.0" opacity="0.80"/>
      
    </g>
    <g data-oclip="1" clip-path="url(#b12oc)">
    <g id="b12_face" opacity="1.00">
      <path d="M 73.86240000000001 47 H 404.41587200000004 A 10.862400000000001 10.862400000000001 0 0 1 415.278272 57.8624 V 182.1376 A 10.862400000000001 10.862400000000001 0 0 1 404.41587200000004 193 H 73.86240000000001 A 10.862400000000001 10.862400000000001 0 0 1 63 182.1376 V 57.8624 A 10.862400000000001 10.862400000000001 0 0 1 73.86240000000001 47 Z" fill="url(#b12face)"/>
      <g clip-path="url(#b12fc)">
        <rect x="43" y="27" width="392.278272" height="186" fill="url(#b12pt)" opacity="0.20"/>
        <path d="M 73.86240000000001 47 H 404.41587200000004 A 10.862400000000001 10.862400000000001 0 0 1 415.278272 57.8624 V 182.1376 A 10.862400000000001 10.862400000000001 0 0 1 404.41587200000004 193 H 73.86240000000001 A 10.862400000000001 10.862400000000001 0 0 1 63 182.1376 V 57.8624 A 10.862400000000001 10.862400000000001 0 0 1 73.86240000000001 47 Z" fill="url(#b12ig)"/>
        <ellipse cx="239.1" cy="163.8" rx="97.2" ry="22.8" fill="url(#b12bl)" opacity="0.45"/>
        
        <rect x="63" y="47" width="352.278272" height="146" filter="url(#b12nz)" opacity="0.15" style="mix-blend-mode:overlay"/>
      </g>
      <path d="M 73.86240000000001 47 H 404.41587200000004 A 10.862400000000001 10.862400000000001 0 0 1 415.278272 57.8624 V 182.1376 A 10.862400000000001 10.862400000000001 0 0 1 404.41587200000004 193 H 73.86240000000001 A 10.862400000000001 10.862400000000001 0 0 1 63 182.1376 V 57.8624 A 10.862400000000001 10.862400000000001 0 0 1 73.86240000000001 47 Z" fill="none" stroke="url(#b12ie)" stroke-width="3.0" opacity="0.45"/>
    </g>
    <g id="b12_content" opacity="1.00">
      
      <text x="231.2" y="121.0" font-size="76.0" font-weight="700" font-style="italic" letter-spacing="0.020em" fill="url(#b12tg)" stroke="url(#b12tg)" stroke-width="2.5" stroke-linejoin="round" paint-order="stroke" text-anchor="middle" dominant-baseline="central" filter="url(#b12tf)">PLAY</text>
      
      
      
    </g>
    <g id="b12_gloss" opacity="1.00" clip-path="url(#b12fc)"><path d="M 61 45 H 417.278272 V 120.0 Q 239.1 174.0 61 120.0 Z" fill="url(#b12gl)"/></g>
    <g id="b12_specular" opacity="1.00" clip-path="url(#b12fc)"><g transform="rotate(0.0 285.6 58.7)"><ellipse cx="285.6" cy="58.7" rx="105.0" ry="3.0" fill="url(#b12sp)" opacity="0.55"/></g></g>
    </g>
  </g>
</g>
</svg>