<svg xmlns="http://www.w3.org/2000/svg" width="755.158272" height="508" viewBox="-90 -90 755.158272 508" font-family="'Russo One', Inter, sans-serif" data-shell="52.0 75.0 471.2 168.0" role="img" aria-label="PLAY, default state">
<defs>
  <linearGradient id="b20band" x1="0.500" y1="1.000" x2="0.500" y2="0.000">
    <stop offset="0" stop-color="#9e4c78"/>
    <stop offset=".5" stop-color="#e26cac"/>
    <stop offset="1" stop-color="#efaed1"/>
  </linearGradient>
  <linearGradient id="b20ext" x1="1" y1="0.5" x2="0" y2="0.5">
    <stop offset="0" stop-color="#834767"/>
    <stop offset="0.55" stop-color="#7b3b5d"/>
    <stop offset="1" stop-color="#753858"/>
  </linearGradient>
  <linearGradient id="b20extv" x1="0" y1="0" x2="0" y2="1">
    <stop offset="0.5" stop-color="#371b2a" stop-opacity="0"/>
    <stop offset="1" stop-color="#371b2a" stop-opacity="0.38"/>
  </linearGradient>
  <radialGradient id="b20ct">
    <stop offset="0" stop-color="#7C2050" stop-opacity="1"/>
    <stop offset="1" stop-color="#7C2050" stop-opacity="0"/>
  </radialGradient>
  <clipPath id="b20ec"><path d="M 52 120 Q 78.4 52.8 127.4 45.2 Q 287.6 67.9 447.8 45.2 Q 496.8 52.8 523.158272 120 Q 496.8 187.2 447.8 194.8 Q 287.6 172.1 127.4 194.8 Q 78.4 187.2 52 120 Z" transform="translate(0 9.0)"/></clipPath>
  <radialGradient id="b20eg"><stop offset="0" stop-color="#ffcae9" stop-opacity="1"/><stop offset="1" stop-color="#ffcae9" stop-opacity="0"/></radialGradient>
  <pattern id="b20pt" width="98.0" height="98.0" patternUnits="userSpaceOnUse" patternTransform="rotate(45)"><rect width="49.0" height="98.0" fill="#28879f"/></pattern>
  <linearGradient id="b20rim" x1="0.500" y1="1.000" x2="0.500" y2="0.000">
    <stop offset="0" stop-color="#ffffff" stop-opacity="0.45"/>
    <stop offset=".4" stop-color="#ffffff" stop-opacity="0.08"/>
    <stop offset="1" stop-color="#ffffff" stop-opacity="0.95"/>
  </linearGradient>
  <linearGradient id="b20face" x1="0.500" y1="1.000" x2="0.500" y2="0.000">
    <stop offset="0" stop-color="#b56b93"/>
    <stop offset="0.50" stop-color="#f691c8"/>
    <stop offset="1" stop-color="#f9b5da"/>
  </linearGradient>
  <linearGradient id="b20ie" x1="0.500" y1="1.000" x2="0.500" y2="0.000">
    <stop offset="0" stop-color="rgba(251,206,230,0.55)"/>
    <stop offset=".55" stop-color="rgba(147,70,112,0.35)"/>
    <stop offset="1" stop-color="rgba(95,45,72,0.90)"/>
  </linearGradient>
  <linearGradient id="b20ig" x1="0.500" y1="1.000" x2="0.500" y2="0.000">
    <stop offset="0" stop-color="#ffcae9" stop-opacity="0.55"/>
    <stop offset="0.55" stop-color="#ffcae9" stop-opacity="0"/>
  </linearGradient>
  <linearGradient id="b20gl" x1="0" y1="0" x2="0" y2="1">
    <stop offset="0" stop-color="#3d97b6" stop-opacity="0.76"/>
    <stop offset="0.81" stop-color="#9fd1e2" stop-opacity="0.68"/>
    <stop offset="1" stop-color="#e1f7ff" stop-opacity="0.50"/>
  </linearGradient>
  <radialGradient id="b20sp">
    <stop offset="0" stop-color="#ffffff" stop-opacity="1"/>
    <stop offset="0.85" stop-color="#ffffff" stop-opacity="1"/>
    <stop offset="0.92" stop-color="#ffffff" stop-opacity="0.50"/>
    <stop offset="1" stop-color="#ffffff" stop-opacity="0"/>
  </radialGradient>
  
  <radialGradient id="b20bl">
    <stop offset="0" stop-color="#ffffff" stop-opacity="1"/>
    <stop offset="1" stop-color="#ffffff" stop-opacity="0"/>
  </radialGradient>
  <linearGradient id="b20tg" x1="0" y1="0" x2="0" y2="1"><stop offset="0" stop-color="#0db9c5"/><stop offset="1" stop-color="#1b9bc5"/></linearGradient>
  
  
  
  
  <filter id="b20tf" x="-70%" y="-70%" width="240%" height="240%" color-interpolation-filters="sRGB"><feDropShadow dx="-0.0" dy="4.5" stdDeviation="0.3" flood-color="#FFFFFF" flood-opacity="0.52"/><feDropShadow dx="0.0" dy="-4.5" stdDeviation="0.3" flood-color="#04080E" flood-opacity="0.44"/><feDropShadow dx="0.0" dy="5.7" stdDeviation="1.4" flood-color="#552640" flood-opacity="0.45"/><feDropShadow dx="0" dy="0" stdDeviation="4.5" flood-color="#FFC7E8" flood-opacity="1.00"/><feDropShadow dx="0" dy="0" stdDeviation="12.0" flood-color="#FFC7E8" flood-opacity="0.60"/></filter>
  <clipPath id="b20fc"><path d="M 437.2 184.3 L 287.7 174.4 L 195.4 178.2 L 128.2 185.7 L 111.4 180.6 L 90.3 165.7 L 76.5 148.6 L 62 119.9 L 72.1 98.6 L 90.5 74.1 L 105.6 62.4 L 128.5 54.4 L 218.4 63.5 L 287.6 65.6 L 356.8 63.5 L 446.7 54.4 L 469.6 62.4 L 484.7 74.1 L 503.1 98.6 L 513.1 119.9 L 498.6 148.6 L 484.8 165.8 L 469.6 177.6 L 446.8 185.6 Z"/></clipPath>
  <clipPath id="b20oc"><path d="M 52 120 Q 78.4 52.8 127.4 45.2 Q 287.6 67.9 447.8 45.2 Q 496.8 52.8 523.158272 120 Q 496.8 187.2 447.8 194.8 Q 287.6 172.1 127.4 194.8 Q 78.4 187.2 52 120 Z"/></clipPath>
  <filter id="b20sb" x="-40%" y="-40%" width="180%" height="180%"><feGaussianBlur stdDeviation="7.0"/></filter>
  
  <filter id="b20nz" x="-5%" y="-5%" width="110%" height="110%"><feTurbulence type="fractalNoise" baseFrequency="1.05" numOctaves="2" seed="7" stitchTiles="stitch"/><feColorMatrix type="saturate" values="0"/><feComponentTransfer><feFuncR type="linear" slope="2.6" intercept="-0.8"/><feFuncG type="linear" slope="2.6" intercept="-0.8"/><feFuncB type="linear" slope="2.6" intercept="-0.8"/></feComponentTransfer></filter>
</defs>
<g opacity="1.00" transform="translate(0 39.0)">
  <g id="b20_cast-shadow"><path d="M 52 120 Q 78.4 52.8 127.4 45.2 Q 287.6 67.9 447.8 45.2 Q 496.8 52.8 523.158272 120 Q 496.8 187.2 447.8 194.8 Q 287.6 172.1 127.4 194.8 Q 78.4 187.2 52 120 Z" transform="translate(-0.0 37.0)" fill="#7C2050" opacity="0.40" filter="url(#b20sb)"/></g>
  <g id="b20_contact-shadow"><ellipse cx="287.6" cy="214.5" rx="221.4" ry="7.5" fill="url(#b20ct)" opacity="0.32"/></g>
  
  <g transform="translate(0 0)">
    <g id="b20_extrusion"><g>
        <path d="M 52 120 Q 78.4 52.8 127.4 45.2 Q 287.6 67.9 447.8 45.2 Q 496.8 52.8 523.158272 120 Q 496.8 187.2 447.8 194.8 Q 287.6 172.1 127.4 194.8 Q 78.4 187.2 52 120 Z" transform="translate(0 2.3)" fill="url(#b20ext)"/><path d="M 52 120 Q 78.4 52.8 127.4 45.2 Q 287.6 67.9 447.8 45.2 Q 496.8 52.8 523.158272 120 Q 496.8 187.2 447.8 194.8 Q 287.6 172.1 127.4 194.8 Q 78.4 187.2 52 120 Z" transform="translate(0 4.5)" fill="url(#b20ext)"/><path d="M 52 120 Q 78.4 52.8 127.4 45.2 Q 287.6 67.9 447.8 45.2 Q 496.8 52.8 523.158272 120 Q 496.8 187.2 447.8 194.8 Q 287.6 172.1 127.4 194.8 Q 78.4 187.2 52 120 Z" transform="translate(0 6.8)" fill="url(#b20ext)"/><path d="M 52 120 Q 78.4 52.8 127.4 45.2 Q 287.6 67.9 447.8 45.2 Q 496.8 52.8 523.158272 120 Q 496.8 187.2 447.8 194.8 Q 287.6 172.1 127.4 194.8 Q 78.4 187.2 52 120 Z" transform="translate(0 9.0)" fill="url(#b20ext)" stroke="#50263c" stroke-width="1"/>
        <path d="M 52 120 Q 78.4 52.8 127.4 45.2 Q 287.6 67.9 447.8 45.2 Q 496.8 52.8 523.158272 120 Q 496.8 187.2 447.8 194.8 Q 287.6 172.1 127.4 194.8 Q 78.4 187.2 52 120 Z" transform="translate(0 9.0)" fill="url(#b20extv)"/>
        <g clip-path="url(#b20ec)"><ellipse cx="287.6" cy="208.1" rx="150.8" ry="9.9" fill="url(#b20eg)" opacity="0.69"/></g>
        <path d="M 52 120 Q 78.4 52.8 127.4 45.2 Q 287.6 67.9 447.8 45.2 Q 496.8 52.8 523.158272 120 Q 496.8 187.2 447.8 194.8 Q 287.6 172.1 127.4 194.8 Q 78.4 187.2 52 120 Z" transform="translate(0 8.2)" fill="none" stroke="#ad859b" stroke-width="1.2" opacity="0.45"/>
      </g></g>
    <g id="b20_shell" opacity="1.00">
      <path d="M 52 120 Q 78.4 52.8 127.4 45.2 Q 287.6 67.9 447.8 45.2 Q 496.8 52.8 523.158272 120 Q 496.8 187.2 447.8 194.8 Q 287.6 172.1 127.4 194.8 Q 78.4 187.2 52 120 Z" fill="url(#b20band)" stroke="#713656" stroke-width="1.5"/>
      <path d="M 402.3 187 L 356.4 183.2 L 287.6 181.1 L 241.7 182.1 L 195.9 184.9 L 127.6 192.5 L 108.4 186.7 L 96.6 179.9 L 85.7 170.7 L 70.8 152.2 L 62.1 136.9 L 54.5 120 L 66.4 95.1 L 75.6 81 L 85.6 69.4 L 102.4 56.4 L 114.6 50.8 L 127.5 47.5 L 172.9 53 L 218.8 56.8 L 287.6 58.9 L 356.4 56.8 L 402.3 53 L 447.7 47.5 L 460.6 50.8 L 472.8 56.4 L 489.6 69.4 L 499.6 81 L 508.8 95.1 L 520.6 120 L 513.1 136.9 L 504.3 152.2 L 489.5 170.6 L 472.8 183.6 L 460.6 189.2 L 447.7 192.5 Z" fill="none" stroke="url(#b20rim)" stroke-width="3.0" opacity="0.80"/>
      
    </g>
    <g data-oclip="1" clip-path="url(#b20oc)">
    <g id="b20_face" opacity="1.00">
      <path d="M 437.2 184.3 L 287.7 174.4 L 195.4 178.2 L 128.2 185.7 L 111.4 180.6 L 90.3 165.7 L 76.5 148.6 L 62 119.9 L 72.1 98.6 L 90.5 74.1 L 105.6 62.4 L 128.5 54.4 L 218.4 63.5 L 287.6 65.6 L 356.8 63.5 L 446.7 54.4 L 469.6 62.4 L 484.7 74.1 L 503.1 98.6 L 513.1 119.9 L 498.6 148.6 L 484.8 165.8 L 469.6 177.6 L 446.8 185.6 Z" fill="url(#b20face)"/>
      <g clip-path="url(#b20fc)">
        <rect x="41" y="25" width="493.158272" height="190" fill="url(#b20pt)" opacity="0.71"/>
        <path d="M 437.2 184.3 L 287.7 174.4 L 195.4 178.2 L 128.2 185.7 L 111.4 180.6 L 90.3 165.7 L 76.5 148.6 L 62 119.9 L 72.1 98.6 L 90.5 74.1 L 105.6 62.4 L 128.5 54.4 L 218.4 63.5 L 287.6 65.6 L 356.8 63.5 L 446.7 54.4 L 469.6 62.4 L 484.7 74.1 L 503.1 98.6 L 513.1 119.9 L 498.6 148.6 L 484.8 165.8 L 469.6 177.6 L 446.8 185.6 Z" fill="url(#b20ig)"/>
        <ellipse cx="287.6" cy="165.0" rx="145.9" ry="27.3" fill="url(#b20bl)" opacity="0.62"/>
        
        <rect x="61" y="45" width="453.158272" height="150" filter="url(#b20nz)" opacity="0.15" style="mix-blend-mode:overlay"/>
      </g>
      <path d="M 437.2 184.3 L 287.7 174.4 L 195.4 178.2 L 128.2 185.7 L 111.4 180.6 L 90.3 165.7 L 76.5 148.6 L 62 119.9 L 72.1 98.6 L 90.5 74.1 L 105.6 62.4 L 128.5 54.4 L 218.4 63.5 L 287.6 65.6 L 356.8 63.5 L 446.7 54.4 L 469.6 62.4 L 484.7 74.1 L 503.1 98.6 L 513.1 119.9 L 498.6 148.6 L 484.8 165.8 L 469.6 177.6 L 446.8 185.6 Z" fill="none" stroke="url(#b20ie)" stroke-width="3.0" opacity="0.45"/>
    </g>
    <g id="b20_content" opacity="1.00">
      
      <text x="279.6" y="121.0" font-size="76.0" font-weight="700" font-style="italic" letter-spacing="0.020em" fill="url(#b20tg)" stroke="url(#b20tg)" stroke-width="2.5" stroke-linejoin="round" paint-order="stroke" text-anchor="middle" dominant-baseline="central" filter="url(#b20tf)">PLAY</text>
      
      
      
    </g>
    <g id="b20_gloss" opacity="1.00" clip-path="url(#b20fc)"><path d="M 59 43 H 516.158272 V 123.0 Q 287.6 187.8 59 123.0 Z" fill="url(#b20gl)"/></g>
    <g id="b20_specular" opacity="1.00" clip-path="url(#b20fc)"><g transform="rotate(0.0 347.4 57.0)" opacity="0.88">
        <rect x="299.5" y="53.2" width="66.0" height="7.6" rx="3.8" fill="#ffffff"/>
        <rect x="395.2" y="53.2" width="19.8" height="7.6" rx="3.8" fill="#ffffff"/>
      </g></g>
    </g>
  </g>
</g>
</svg>