<svg xmlns="http://www.w3.org/2000/svg" width="718.198272" height="508" viewBox="-90 -90 718.198272 508" font-family="'Russo One', Inter, sans-serif" data-shell="52.0 68.0 434.2 168.0" role="img" aria-label="PLAY, default state">
<defs>
  <linearGradient id="b21band" x1="0.500" y1="1.000" x2="0.500" y2="0.000">
    <stop offset="0" stop-color="#995f09"/>
    <stop offset=".5" stop-color="#db880d"/>
    <stop offset="1" stop-color="#ebbe7a"/>
  </linearGradient>
  <linearGradient id="b21ext" x1="1" y1="0.5" x2="0" y2="0.5">
    <stop offset="0" stop-color="#8c5d17"/>
    <stop offset="0.55" stop-color="#855308"/>
    <stop offset="1" stop-color="#7e4f08"/>
  </linearGradient>
  <linearGradient id="b21extv" x1="0" y1="0" x2="0" y2="1">
    <stop offset="0.5" stop-color="#3c2504" stop-opacity="0"/>
    <stop offset="1" stop-color="#3c2504" stop-opacity="0.38"/>
  </linearGradient>
  <radialGradient id="b21ct">
    <stop offset="0" stop-color="#7A3D00" stop-opacity="1"/>
    <stop offset="1" stop-color="#7A3D00" stop-opacity="0"/>
  </radialGradient>
  <clipPath id="b21ec"><path d="M 122.02239999999999 36 H 204.0 Q 269.1 52.8 334.2 36 H 416.17587199999997 A 70.02239999999999 70.02239999999999 0 0 1 486.198272 106.02239999999999 V 133.9776 A 70.02239999999999 70.02239999999999 0 0 1 416.17587199999997 204 H 334.2 Q 269.1 187.2 204.0 204.0 H 122.02239999999999 A 70.02239999999999 70.02239999999999 0 0 1 52 133.9776 V 106.02239999999999 A 70.02239999999999 70.02239999999999 0 0 1 122.02239999999999 36 Z" transform="translate(0 16.0)"/></clipPath>
  <radialGradient id="b21eg"><stop offset="0" stop-color="#ffe26e" stop-opacity="1"/><stop offset="1" stop-color="#ffe26e" stop-opacity="0"/></radialGradient>
  <pattern id="b21pt" width="49.4" height="49.4" patternUnits="userSpaceOnUse" patternTransform="rotate(0)"><circle cx="24.7" cy="24.7" r="10.9" fill="#cc9022"/></pattern>
  <linearGradient id="b21rim" x1="0.500" y1="1.000" x2="0.500" y2="0.000">
    <stop offset="0" stop-color="#fffdf3" stop-opacity="0.45"/>
    <stop offset=".4" stop-color="#fffdf3" stop-opacity="0.08"/>
    <stop offset="1" stop-color="#fffdf3" stop-opacity="0.95"/>
  </linearGradient>
  <linearGradient id="b21face" x1="0.500" y1="1.000" x2="0.500" y2="0.000">
    <stop offset="0" stop-color="#bc8420"/>
    <stop offset="0.50" stop-color="#ffb42b"/>
    <stop offset="1" stop-color="#ffcd71"/>
  </linearGradient>
  <linearGradient id="b21ie" x1="0.500" y1="1.000" x2="0.500" y2="0.000">
    <stop offset="0" stop-color="rgba(255,221,160,0.55)"/>
    <stop offset=".55" stop-color="rgba(142,88,8,0.35)"/>
    <stop offset="1" stop-color="rgba(92,57,5,0.90)"/>
  </linearGradient>
  <linearGradient id="b21ig" x1="0.500" y1="1.000" x2="0.500" y2="0.000">
    <stop offset="0" stop-color="#ffe26e" stop-opacity="0.55"/>
    <stop offset="0.55" stop-color="#ffe26e" stop-opacity="0"/>
  </linearGradient>
  <linearGradient id="b21gl" x1="0" y1="0" x2="0" y2="1">
    <stop offset="0" stop-color="#3d97b6" stop-opacity="0.80"/>
    <stop offset="0.77" stop-color="#9fd1e2" stop-opacity="0.70"/>
    <stop offset="1" stop-color="#e1f7ff" stop-opacity="0.46"/>
  </linearGradient>
  <radialGradient id="b21sp">
    <stop offset="0" stop-color="#fffdf3" stop-opacity="1"/>
    <stop offset="0.57" stop-color="#fffdf3" stop-opacity="1"/>
    <stop offset="0.78" stop-color="#fffdf3" stop-opacity="0.40"/>
    <stop offset="1" stop-color="#fffdf3" stop-opacity="0"/>
  </radialGradient>
  
  <radialGradient id="b21bl">
    <stop offset="0" stop-color="#fffdf3" stop-opacity="1"/>
    <stop offset="1" stop-color="#fffdf3" stop-opacity="0"/>
  </radialGradient>
  <linearGradient id="b21tg" x1="0" y1="0" x2="0" y2="1"><stop offset="0" stop-color="#0db9c5"/><stop offset="1" stop-color="#1b9bc5"/></linearGradient>
  
  
  
  
  <filter id="b21tf" x="-70%" y="-70%" width="240%" height="240%" color-interpolation-filters="sRGB"><feDropShadow dx="-0.0" dy="4.5" stdDeviation="0.3" flood-color="#FFFFFF" flood-opacity="0.52"/><feDropShadow dx="0.0" dy="-4.5" stdDeviation="0.3" flood-color="#04080E" flood-opacity="0.44"/><feDropShadow dx="0.0" dy="5.7" stdDeviation="1.4" flood-color="#523100" flood-opacity="0.45"/><feDropShadow dx="0" dy="0" stdDeviation="4.5" flood-color="#FFE066" flood-opacity="1.00"/><feDropShadow dx="0" dy="0" stdDeviation="12.0" flood-color="#FFE066" flood-opacity="0.60"/></filter>
  <clipPath id="b21fc"><path d="M 120.2176 48 H 207.6 Q 269.1 62.4 330.6 48 H 417.98067199999997 A 56.21760000000001 56.21760000000001 0 0 1 474.198272 104.2176 V 135.7824 A 56.21760000000001 56.21760000000001 0 0 1 417.98067199999997 192 H 330.6 Q 269.1 177.6 207.6 192.0 H 120.2176 A 56.21760000000001 56.21760000000001 0 0 1 64 135.7824 V 104.2176 A 56.21760000000001 56.21760000000001 0 0 1 120.2176 48 Z"/></clipPath>
  <clipPath id="b21oc"><path d="M 122.02239999999999 36 H 204.0 Q 269.1 52.8 334.2 36 H 416.17587199999997 A 70.02239999999999 70.02239999999999 0 0 1 486.198272 106.02239999999999 V 133.9776 A 70.02239999999999 70.02239999999999 0 0 1 416.17587199999997 204 H 334.2 Q 269.1 187.2 204.0 204.0 H 122.02239999999999 A 70.02239999999999 70.02239999999999 0 0 1 52 133.9776 V 106.02239999999999 A 70.02239999999999 70.02239999999999 0 0 1 122.02239999999999 36 Z"/></clipPath>
  <filter id="b21sb" x="-40%" y="-40%" width="180%" height="180%"><feGaussianBlur stdDeviation="7.0"/></filter>
  
  <filter id="b21nz" x="-5%" y="-5%" width="110%" height="110%"><feTurbulence type="fractalNoise" baseFrequency="1.05" numOctaves="2" seed="7" stitchTiles="stitch"/><feColorMatrix type="saturate" values="0"/><feComponentTransfer><feFuncR type="linear" slope="2.6" intercept="-0.8"/><feFuncG type="linear" slope="2.6" intercept="-0.8"/><feFuncB type="linear" slope="2.6" intercept="-0.8"/></feComponentTransfer></filter>
</defs>
<g opacity="1.00" transform="translate(0 32.0)">
  <g id="b21_cast-shadow"><path d="M 122.02239999999999 36 H 204.0 Q 269.1 52.8 334.2 36 H 416.17587199999997 A 70.02239999999999 70.02239999999999 0 0 1 486.198272 106.02239999999999 V 133.9776 A 70.02239999999999 70.02239999999999 0 0 1 416.17587199999997 204 H 334.2 Q 269.1 187.2 204.0 204.0 H 122.02239999999999 A 70.02239999999999 70.02239999999999 0 0 1 52 133.9776 V 106.02239999999999 A 70.02239999999999 70.02239999999999 0 0 1 122.02239999999999 36 Z" transform="translate(-0.0 44.0)" fill="#7A3D00" opacity="0.40" filter="url(#b21sb)"/></g>
  <g id="b21_contact-shadow"><ellipse cx="269.1" cy="221.5" rx="204.1" ry="9.0" fill="url(#b21ct)" opacity="0.32"/></g>
  
  <g transform="translate(0 0)">
    <g id="b21_extrusion"><g>
        <path d="M 122.02239999999999 36 H 204.0 Q 269.1 52.8 334.2 36 H 416.17587199999997 A 70.02239999999999 70.02239999999999 0 0 1 486.198272 106.02239999999999 V 133.9776 A 70.02239999999999 70.02239999999999 0 0 1 416.17587199999997 204 H 334.2 Q 269.1 187.2 204.0 204.0 H 122.02239999999999 A 70.02239999999999 70.02239999999999 0 0 1 52 133.9776 V 106.02239999999999 A 70.02239999999999 70.02239999999999 0 0 1 122.02239999999999 36 Z" transform="translate(0 2.3)" fill="url(#b21ext)"/><path d="M 122.02239999999999 36 H 204.0 Q 269.1 52.8 334.2 36 H 416.17587199999997 A 70.02239999999999 70.02239999999999 0 0 1 486.198272 106.02239999999999 V 133.9776 A 70.02239999999999 70.02239999999999 0 0 1 416.17587199999997 204 H 334.2 Q 269.1 187.2 204.0 204.0 H 122.02239999999999 A 70.02239999999999 70.02239999999999 0 0 1 52 133.9776 V 106.02239999999999 A 70.02239999999999 70.02239999999999 0 0 1 122.02239999999999 36 Z" transform="translate(0 4.6)" fill="url(#b21ext)"/><path d="M 122.02239999999999 36 H 204.0 Q 269.1 52.8 334.2 36 H 416.17587199999997 A 70.02239999999999 70.02239999999999 0 0 1 486.198272 106.02239999999999 V 133.9776 A 70.02239999999999 70.02239999999999 0 0 1 416.17587199999997 204 H 334.2 Q 269.1 187.2 204.0 204.0 H 122.02239999999999 A 70.02239999999999 70.02239999999999 0 0 1 52 133.9776 V 106.02239999999999 A 70.02239999999999 70.02239999999999 0 0 1 122.02239999999999 36 Z" transform="translate(0 6.9)" fill="url(#b21ext)"/><path d="M 122.02239999999999 36 H 204.0 Q 269.1 52.8 334.2 36 H 416.17587199999997 A 70.02239999999999 70.02239999999999 0 0 1 486.198272 106.02239999999999 V 133.9776 A 70.02239999999999 70.02239999999999 0 0 1 416.17587199999997 204 H 334.2 Q 269.1 187.2 204.0 204.0 H 122.02239999999999 A 70.02239999999999 70.02239999999999 0 0 1 52 133.9776 V 106.02239999999999 A 70.02239999999999 70.02239999999999 0 0 1 122.02239999999999 36 Z" transform="translate(0 9.1)" fill="url(#b21ext)"/><path d="M 122.02239999999999 36 H 204.0 Q 269.1 52.8 334.2 36 H 416.17587199999997 A 70.02239999999999 70.02239999999999 0 0 1 486.198272 106.02239999999999 V 133.9776 A 70.02239999999999 70.02239999999999 0 0 1 416.17587199999997 204 H 334.2 Q 269.1 187.2 204.0 204.0 H 122.02239999999999 A 70.02239999999999 70.02239999999999 0 0 1 52 133.9776 V 106.02239999999999 A 70.02239999999999 70.02239999999999 0 0 1 122.02239999999999 36 Z" transform="translate(0 11.4)" fill="url(#b21ext)"/><path d="M 122.02239999999999 36 H 204.0 Q 269.1 52.8 334.2 36 H 416.17587199999997 A 70.02239999999999 70.02239999999999 0 0 1 486.198272 106.02239999999999 V 133.9776 A 70.02239999999999 70.02239999999999 0 0 1 416.17587199999997 204 H 334.2 Q 269.1 187.2 204.0 204.0 H 122.02239999999999 A 70.02239999999999 70.02239999999999 0 0 1 52 133.9776 V 106.02239999999999 A 70.02239999999999 70.02239999999999 0 0 1 122.02239999999999 36 Z" transform="translate(0 13.7)" fill="url(#b21ext)"/><path d="M 122.02239999999999 36 H 204.0 Q 269.1 52.8 334.2 36 H 416.17587199999997 A 70.02239999999999 70.02239999999999 0 0 1 486.198272 106.02239999999999 V 133.9776 A 70.02239999999999 70.02239999999999 0 0 1 416.17587199999997 204 H 334.2 Q 269.1 187.2 204.0 204.0 H 122.02239999999999 A 70.02239999999999 70.02239999999999 0 0 1 52 133.9776 V 106.02239999999999 A 70.02239999999999 70.02239999999999 0 0 1 122.02239999999999 36 Z" transform="translate(0 16.0)" fill="url(#b21ext)" stroke="#563605" stroke-width="1"/>
        <path d="M 122.02239999999999 36 H 204.0 Q 269.1 52.8 334.2 36 H 416.17587199999997 A 70.02239999999999 70.02239999999999 0 0 1 486.198272 106.02239999999999 V 133.9776 A 70.02239999999999 70.02239999999999 0 0 1 416.17587199999997 204 H 334.2 Q 269.1 187.2 204.0 204.0 H 122.02239999999999 A 70.02239999999999 70.02239999999999 0 0 1 52 133.9776 V 106.02239999999999 A 70.02239999999999 70.02239999999999 0 0 1 122.02239999999999 36 Z" transform="translate(0 16.0)" fill="url(#b21extv)"/>
        <g clip-path="url(#b21ec)"><ellipse cx="269.1" cy="211.2" rx="138.9" ry="17.6" fill="url(#b21eg)" opacity="0.69"/></g>
        <path d="M 122.02239999999999 36 H 204.0 Q 269.1 52.8 334.2 36 H 416.17587199999997 A 70.02239999999999 70.02239999999999 0 0 1 486.198272 106.02239999999999 V 133.9776 A 70.02239999999999 70.02239999999999 0 0 1 416.17587199999997 204 H 334.2 Q 269.1 187.2 204.0 204.0 H 122.02239999999999 A 70.02239999999999 70.02239999999999 0 0 1 52 133.9776 V 106.02239999999999 A 70.02239999999999 70.02239999999999 0 0 1 122.02239999999999 36 Z" transform="translate(0 15.2)" fill="none" stroke="#b39466" stroke-width="1.2" opacity="0.45"/>
      </g></g>
    <g id="b21_shell" opacity="1.00">
      <path d="M 122.02239999999999 36 H 204.0 Q 269.1 52.8 334.2 36 H 416.17587199999997 A 70.02239999999999 70.02239999999999 0 0 1 486.198272 106.02239999999999 V 133.9776 A 70.02239999999999 70.02239999999999 0 0 1 416.17587199999997 204 H 334.2 Q 269.1 187.2 204.0 204.0 H 122.02239999999999 A 70.02239999999999 70.02239999999999 0 0 1 52 133.9776 V 106.02239999999999 A 70.02239999999999 70.02239999999999 0 0 1 122.02239999999999 36 Z" fill="url(#b21band)" stroke="#6e4407" stroke-width="1.5"/>
      <path d="M 122.40512 38.3 H 204.7 Q 269.1 54.6 333.5 38.3 H 415.79315199999996 A 68.10512 68.10512 0 0 1 483.89827199999996 106.40512 V 133.59488 A 68.10512 68.10512 0 0 1 415.79315199999996 201.7 H 333.5 Q 269.1 185.4 204.7 201.7 H 122.40512 A 68.10512 68.10512 0 0 1 54.3 133.59488 V 106.40512 A 68.10512 68.10512 0 0 1 122.40512 38.3 Z" fill="none" stroke="url(#b21rim)" stroke-width="3.0" opacity="0.80"/>
      
    </g>
    <g data-oclip="1" clip-path="url(#b21oc)">
    <g id="b21_face" opacity="1.00">
      <path d="M 120.2176 48 H 207.6 Q 269.1 62.4 330.6 48 H 417.98067199999997 A 56.21760000000001 56.21760000000001 0 0 1 474.198272 104.2176 V 135.7824 A 56.21760000000001 56.21760000000001 0 0 1 417.98067199999997 192 H 330.6 Q 269.1 177.6 207.6 192.0 H 120.2176 A 56.21760000000001 56.21760000000001 0 0 1 64 135.7824 V 104.2176 A 56.21760000000001 56.21760000000001 0 0 1 120.2176 48 Z" fill="url(#b21face)"/>
      <g clip-path="url(#b21fc)">
        <rect x="44" y="28" width="450.198272" height="184" fill="url(#b21pt)" opacity="0.30"/>
        <path d="M 120.2176 48 H 207.6 Q 269.1 62.4 330.6 48 H 417.98067199999997 A 56.21760000000001 56.21760000000001 0 0 1 474.198272 104.2176 V 135.7824 A 56.21760000000001 56.21760000000001 0 0 1 417.98067199999997 192 H 330.6 Q 269.1 177.6 207.6 192.0 H 120.2176 A 56.21760000000001 56.21760000000001 0 0 1 64 135.7824 V 104.2176 A 56.21760000000001 56.21760000000001 0 0 1 120.2176 48 Z" fill="url(#b21ig)"/>
        <ellipse cx="269.1" cy="163.2" rx="120.8" ry="24.0" fill="url(#b21bl)" opacity="0.50"/>
        
        <rect x="64" y="48" width="410.198272" height="144" filter="url(#b21nz)" opacity="0.15" style="mix-blend-mode:overlay"/>
      </g>
      <path d="M 120.2176 48 H 207.6 Q 269.1 62.4 330.6 48 H 417.98067199999997 A 56.21760000000001 56.21760000000001 0 0 1 474.198272 104.2176 V 135.7824 A 56.21760000000001 56.21760000000001 0 0 1 417.98067199999997 192 H 330.6 Q 269.1 177.6 207.6 192.0 H 120.2176 A 56.21760000000001 56.21760000000001 0 0 1 64 135.7824 V 104.2176 A 56.21760000000001 56.21760000000001 0 0 1 120.2176 48 Z" fill="none" stroke="url(#b21ie)" stroke-width="3.0" opacity="0.45"/>
    </g>
    <g id="b21_content" opacity="1.00">
      
      <text x="261.1" y="121.0" font-size="76.0" font-weight="700" font-style="italic" letter-spacing="0.020em" fill="url(#b21tg)" stroke="url(#b21tg)" stroke-width="2.5" stroke-linejoin="round" paint-order="stroke" text-anchor="middle" dominant-baseline="central" filter="url(#b21tf)">PLAY</text>
      
      
      
    </g>
    <g id="b21_gloss" opacity="1.00" clip-path="url(#b21fc)"><path d="M 62 46 H 476.198272 V 122.9 Q 269.1 191.3 62 122.9 Z" fill="url(#b21gl)"/></g>
    <g id="b21_specular" opacity="1.00" clip-path="url(#b21fc)"><g transform="rotate(0.0 323.2 59.5)"><ellipse cx="323.2" cy="59.5" rx="26.0" ry="2.6" fill="url(#b21sp)" opacity="0.70"/><ellipse cx="182.8" cy="76.7" rx="10.9" ry="1.3" fill="url(#b21sp)" opacity="0.56"/></g></g>
    </g>
  </g>
</g>
</svg>